<svg width="612" height="612" viewBox="0 0 612 612" fill="none" xmlns="http://www.w3.org/2000/svg">
<path opacity="0.3" d="M209.884 110.182C211.748 107.82 214.62 106.481 217.627 106.571L260.66 107.866C262.362 107.917 264.05 107.554 265.58 106.807L304.272 87.9283C306.976 86.609 310.146 86.6485 312.816 88.0348L351.025 107.872C352.536 108.657 354.215 109.062 355.918 109.053L398.969 108.832C401.978 108.817 404.816 110.227 406.62 112.635L432.439 147.086C433.46 148.449 434.796 149.542 436.334 150.273L475.218 168.753C477.936 170.045 479.881 172.547 480.462 175.499L488.775 217.741C489.104 219.411 489.834 220.977 490.902 222.302L517.918 255.823C519.805 258.166 520.472 261.264 519.715 264.176L508.877 305.842C508.448 307.489 508.427 309.216 508.814 310.874L518.61 352.797C519.294 355.727 518.551 358.808 516.605 361.103L488.762 393.94C487.661 395.238 486.893 396.785 486.522 398.447L477.158 440.468C476.504 443.405 474.497 445.858 471.748 447.081L432.415 464.586C430.86 465.278 429.496 466.338 428.442 467.675L401.773 501.472C399.909 503.834 397.036 505.173 394.029 505.083L350.996 503.788C349.295 503.737 347.606 504.1 346.076 504.847L307.384 523.726C304.68 525.045 301.511 525.005 298.841 523.619L260.631 503.782C259.12 502.997 257.441 502.592 255.739 502.601L212.687 502.822C209.678 502.837 206.84 501.427 205.036 499.019L179.218 464.568C178.197 463.205 176.86 462.112 175.322 461.381L136.438 442.901C133.721 441.609 131.776 439.107 131.195 436.155L122.881 393.913C122.552 392.243 121.822 390.677 120.754 389.352L93.7388 355.831C91.8509 353.488 91.1842 350.39 91.9416 347.478L102.779 305.812C103.208 304.165 103.229 302.437 102.842 300.78L93.0465 258.857C92.3619 255.927 93.1056 252.846 95.0514 250.551L122.894 217.714C123.995 216.416 124.764 214.869 125.134 213.207L134.498 171.186C135.153 168.249 137.159 165.796 139.908 164.573L179.241 147.068C180.796 146.376 182.16 145.316 183.215 143.979L209.884 110.182Z" stroke="#0D5735"/>
<path fill-rule="evenodd" clip-rule="evenodd" d="M253.962 307.884C251.892 308.8 249.249 311.509 248.854 313.118C248.749 313.548 248.904 313.459 241.154 317.546C238.764 318.806 235.196 320.604 233.225 321.54C231.254 322.476 228.76 323.737 227.682 324.342C225.416 325.613 225.502 325.624 225.741 324.108C226.084 321.933 225.324 321.739 222.932 323.389C222.597 323.621 221.945 323.933 221.484 324.083C217.082 325.514 215.324 330.631 218.049 334.081C218.319 334.424 218.665 334.951 218.815 335.251C220.828 339.262 223.825 341.648 226.85 341.648C230.233 341.648 233.115 339.846 240.11 333.356C241.674 331.904 243.404 330.35 243.954 329.903C245.372 328.748 245.424 328.497 245.031 324.699L244.932 323.742L245.927 322.355C250.488 315.996 249.037 321.934 243.008 334.295L241.23 337.942L239.781 339.07C236.305 341.774 235.467 343.455 236.394 345.865C236.64 346.506 236.999 347.523 237.19 348.123C237.575 349.335 238.244 350.762 239.092 352.18C239.609 353.045 239.822 354.544 239.464 354.799C236.634 356.814 234.399 358.848 223.573 369.257C222.704 370.092 222.679 370.104 222.2 369.905C215.059 366.943 210.534 373.071 215.155 379.446C215.957 380.552 216.748 381.066 218.103 381.363C220.509 381.888 221.018 382.077 221.36 382.569C221.854 383.279 223.03 383.745 225.008 384.015C228.09 384.435 228.066 384.425 229.116 385.762C231.892 389.292 233.52 392.82 233.778 395.867C233.84 396.593 234.017 397.273 234.309 397.895C234.833 399.016 235.062 400.521 234.946 402.082L234.862 403.228L236.947 403.325C239.335 403.435 240.975 403.326 241.306 403.036C241.432 402.926 242.084 402.695 242.755 402.524C245.56 401.809 246.666 401.053 248.345 398.704C248.786 398.088 249.54 397.145 250.022 396.61C253.897 392.307 256.369 383.394 255.27 377.69C255.11 376.86 255.02 375.663 255.028 374.492C255.071 368.167 254.478 362.683 253.201 357.607C252.039 352.987 252.366 352.384 262.018 341.343C264.533 338.466 265.347 337.007 264.986 336.027C264.802 335.528 264.86 335.407 265.282 335.407C265.549 335.407 265.565 335.502 265.488 336.617C265.442 337.282 265.365 338.493 265.315 339.308C265.189 341.415 264.58 346.18 263.961 349.918C261.51 364.721 261.297 366.2 260.965 370.669C259.499 390.397 269.807 401.379 290.215 401.83L293.913 401.912V402.853V403.794L296.009 403.694C309.879 403.035 321.97 395.229 321.97 386.932C321.97 382.147 320.489 382.339 318.854 387.336C318.117 389.588 317.922 389.719 317.946 387.948C318.072 378.286 318.01 377.336 316.974 373.094L316.556 371.385L315.751 371.056C314.404 370.507 313.32 368.48 312.873 365.676C312.35 362.399 312.04 361.78 310.743 361.425C309.955 361.209 310.028 361.395 308.793 356.549C307.451 351.289 306.95 349.996 306.196 349.852C305.501 349.718 305.284 349.415 304.73 347.808C304.464 347.038 304.119 346.223 303.963 345.999C303.807 345.774 303.606 345.394 303.517 345.154C303.428 344.915 302.976 344.059 302.512 343.252C301.367 341.261 300.71 339.824 300.388 338.606C300.178 337.815 300.046 337.571 299.798 337.518C299.622 337.481 298.852 337.307 298.087 337.131C297.322 336.955 296.551 336.812 296.375 336.812C296.148 336.812 296.027 336.686 295.964 336.383C295.619 334.729 294.487 332.132 293.84 331.51L293.49 331.174L293.399 333.018C293.348 334.032 293.269 339.214 293.223 344.535C293.063 362.887 292.542 370.066 290.851 377.243L290.386 379.214L288.986 379.925C282.618 383.155 278.216 382.202 277.465 377.432C277.287 376.303 277.498 366.022 277.75 363.492C278.139 359.598 278.521 357.782 280.244 351.634C281.399 347.513 281.839 345.719 282.962 340.556C284.107 335.291 282.803 331.033 278.841 327.099L277.309 325.578H275.725C274.817 325.578 273.434 325.447 272.482 325.272C271.023 325.002 270.793 324.993 270.577 325.194C270.258 325.489 269.822 325.483 269.397 325.179C269.09 324.959 269.026 324.959 268.719 325.179C268.265 325.504 266.466 325.523 266.466 325.202C266.466 324.951 267.307 323.816 268.672 322.223C270.575 320.005 270.67 319.85 270.357 319.496C270.117 319.225 270.096 319.027 270.198 317.973C270.375 316.136 270.341 315.85 269.808 314.703C268.861 312.662 266.024 310.287 264.532 310.287C263.621 310.287 262.307 309.886 260.214 308.969C257.091 307.6 255.303 307.29 253.962 307.884ZM371.542 308.2C369.924 309.059 368.988 309.962 368.853 310.797C368.706 311.709 368.587 311.894 367.755 312.519C365.643 314.104 359.339 316.854 347.442 321.383C344.293 322.581 341.551 323.633 341.349 323.72C340.644 324.022 340.43 322.99 340.78 320.983C341.402 317.423 340.655 316.918 337.345 318.659C330.565 322.225 329.824 324.256 333.09 330.317C333.928 331.873 334.839 333.707 335.115 334.393C335.711 335.876 335.627 335.802 337.065 336.127C338.956 336.553 339.218 336.757 339.349 337.904L339.429 338.606L340.954 338.653C345.871 338.803 348.687 337 354.674 329.869C359.592 324.011 362.053 322.053 365.387 321.349C366.666 321.078 366.673 320.819 365.266 325.604C361.657 337.878 358.409 342.926 352.574 345.333C350.881 346.032 350.549 347.597 351.695 349.483C352.388 350.624 352.56 350.497 348.672 351.707C344.055 353.142 336.74 355.908 330.815 358.457L327.386 359.932L326.088 359.508C319.17 357.244 316.544 364.012 323.005 367.455C323.951 367.959 325.015 368.598 325.368 368.874C328.282 371.149 330.663 370.899 339.81 367.359C347.904 364.226 351.753 363.049 356.259 362.328C358.197 362.018 357.985 361.427 357.804 366.627C357.178 384.651 353.265 387.46 340.666 378.933C335.73 375.593 335.659 376.872 340.279 385.912C342.582 390.42 344.942 394.081 347.725 397.465C348.776 398.743 348.805 398.805 348.263 398.593C345.781 397.628 345.558 399.728 347.865 402.352C351.132 406.07 358.814 405.833 362.869 401.89C363.563 401.215 364.68 400.211 365.351 399.657C373.585 392.867 376.994 374.742 372.189 363.299C369.741 357.468 380.536 356.595 391.502 361.737C393.053 362.464 395.558 363.639 397.067 364.347C398.577 365.055 400.242 365.794 400.768 365.989L401.724 366.344L402.674 365.42C403.975 364.155 404.842 363.445 406.653 362.164C408.078 361.156 408.219 361.01 408.459 360.292C408.799 359.274 408.835 356.857 408.512 356.73C408.072 356.557 407.822 355.881 407.6 354.268C406.697 347.682 401.174 345.242 387.156 345.239C380.685 345.238 369.17 346.138 366.014 346.893C363.386 347.521 363.956 346.883 369.29 343.229C373.01 340.679 373.173 340.545 374.625 338.858C376.45 336.735 378.471 334.858 382.963 331.116C388.625 326.398 390.766 324.257 392.679 321.402L393.542 320.112L393.211 319.061C392.541 316.937 391.214 315.099 387.806 311.575L385.656 309.352L384.347 309.117C383.628 308.988 381.872 308.631 380.447 308.324C378.259 307.853 377.45 307.753 375.262 307.684L372.67 307.602L371.542 308.2ZM261.711 330.52C261.649 331.057 261.281 331.201 261.281 330.688C261.281 330.292 261.392 330.103 261.622 330.103C261.697 330.103 261.737 330.29 261.711 330.52ZM260 333.402C260.16 333.586 260.994 334.074 261.853 334.486C263.223 335.143 263.769 335.563 263.255 335.563C262.943 335.563 261.194 336.89 257.349 340.042C255.211 341.795 252.939 343.589 252.301 344.028C251.663 344.467 250.764 345.187 250.303 345.627C248.509 347.338 248.179 347.432 247.003 346.56C246.595 346.257 246.031 345.86 245.749 345.676L245.237 345.342L246.173 344.907C247.29 344.388 250.867 340.948 251.965 339.337C254.648 335.401 258.966 332.211 260 333.402ZM298.572 341.433C298.644 342.017 298.81 342.449 299.115 342.841C299.597 343.462 299.667 343.855 299.345 344.128C298.681 344.692 298.139 343.607 298.07 341.57C298.009 339.816 298.363 339.72 298.572 341.433ZM358.911 344.091C358.808 344.134 358.602 344.137 358.454 344.097C358.306 344.057 358.39 344.022 358.642 344.019C358.893 344.016 359.015 344.048 358.911 344.091ZM239.467 376.058C237.939 384.981 237.374 385.681 233.947 382.9C232.76 381.936 232.733 381.999 235.668 378.865C237.096 377.341 238.434 375.787 238.641 375.41C240.101 372.764 240.039 372.715 239.467 376.058ZM231.862 382.617C232.096 382.905 231.796 383.541 231.252 383.911C230.952 384.115 230.937 384.097 230.937 383.495C230.937 382.408 231.364 382.003 231.862 382.617ZM345.45 388.376C345.717 388.705 345.527 389.08 345.094 389.08C344.589 389.08 344.282 388.692 344.537 388.378C344.78 388.079 345.209 388.078 345.45 388.376ZM346.747 389.232C346.938 390.122 346.146 390.871 345.849 390.081C345.71 389.708 345.73 389.625 346.073 389.179C346.48 388.649 346.624 388.66 346.747 389.232ZM347.536 399.95C347.48 400.007 347.388 400.007 347.332 399.95C347.277 399.892 347.322 399.846 347.434 399.846C347.546 399.846 347.592 399.892 347.536 399.95Z" fill="black"/>
<path fill-rule="evenodd" clip-rule="evenodd" d="M302.222 197.088C298.066 198.237 295.469 201 294.67 205.127C292.169 218.041 280.991 228.054 263.738 232.835C248.458 237.07 236.609 244.139 235.374 249.756C235.021 251.364 235.563 252.112 238.376 253.894C242.327 256.399 247.372 260.949 250.904 265.196C252.087 266.618 251.974 266.575 252.437 265.777C257.275 257.431 277.52 252.184 304.891 252.184C332.156 252.184 351.279 257.052 357.163 265.49L357.859 266.487L358.229 266.036C362.695 260.608 367.722 256.117 372.864 252.962C379.516 248.88 365.597 238.481 345.985 232.88C328.786 227.968 317.831 218.452 315.112 206.063C314.333 202.511 314.16 202.09 312.781 200.401C310.529 197.641 305.703 196.127 302.222 197.088ZM293.912 271.749C271.146 272.488 254.358 275.179 244.927 279.602L243.745 280.157L243.741 281.921L243.736 283.685L231.657 289.223C215.088 296.819 216.276 296.145 215.83 298.187C215.213 301.008 215.866 301.542 223.368 304.353C229.752 306.744 228.751 306.554 229.907 305.594C235.993 300.534 253.681 297.239 281.104 296.056C287.446 295.782 321.198 295.782 327.458 296.055C355.584 297.284 374.382 300.905 378.986 305.979C379.477 306.521 378.985 306.652 385.173 304.336C392.139 301.729 392.721 301.309 392.721 298.897C392.721 296.355 393.261 296.689 377.854 289.714L364.74 283.777L364.697 281.975L364.654 280.173L363.63 279.648C352.735 274.065 323.753 270.781 293.912 271.749Z" fill="#FFD571"/>
<path fill-rule="evenodd" clip-rule="evenodd" d="M340.554 129.001C492.902 160.062 538.36 355.036 415.091 448.694C294.209 540.538 120.918 450.021 126.718 298.068C130.899 188.569 233.775 107.231 340.554 129.001ZM292.381 129.117C141.771 142.808 74.9301 324.047 181.329 430.236C289.287 537.981 473.719 467.382 482.89 314.802C489.182 210.075 396.42 119.662 292.381 129.117ZM302.668 136.248C302.668 140.983 302.318 141.391 298.259 141.391C295.834 141.391 293.85 140.73 293.85 139.922C293.85 139.114 295.173 138.452 296.79 138.452C298.422 138.452 299.729 137.472 299.729 136.248C299.729 135.035 299.233 134.052 298.626 134.064C287.631 134.264 287.271 144.331 298.259 144.331H305.607V138.539C305.607 131.129 306.625 130.613 318.835 131.839L328.948 132.855L328.093 140.43C327.038 149.78 327.739 149.152 319.703 147.947C311.064 146.652 309.044 138.452 317.364 138.452C319.788 138.452 321.772 139.114 321.772 139.922C321.772 140.73 320.45 141.391 318.833 141.391C314.66 141.391 315.183 143.851 319.533 144.683C324.021 145.541 324.712 144.899 324.712 139.867C324.712 136.218 324.143 135.832 317.732 135.109C308.991 134.123 308.546 134.427 308.546 141.353V147.018L298.804 147.512C293.135 147.799 288.885 147.39 288.639 146.535C285.784 136.59 286.486 132.762 291.276 132.168C302.775 130.741 302.668 130.702 302.668 136.248ZM284.107 135.88C286.741 145.709 285.513 148.392 277.613 150.087C265.881 152.603 264.91 152.343 263.793 146.389C262.756 140.856 257.558 140.158 249.503 144.47C244.587 147.101 248.927 154.756 254.276 152.891C259.543 151.055 260.078 148.044 254.906 149.343C249.773 150.631 250.295 147.884 255.528 146.06C260.075 144.475 261.52 145.803 261.52 151.565C261.52 153.756 253.732 157.557 249.244 157.557C248.127 157.557 243.885 147.634 243.885 145.021C243.885 143.455 259.45 136.983 263.218 136.983C263.839 136.983 265.072 139.679 265.959 142.976L267.573 148.968L273.732 147.968C281.449 146.714 282.712 145.525 281.494 140.671C280.42 136.392 273.423 135.726 272.09 139.778C271.604 141.259 272.292 141.607 274.547 141.018C278.238 140.053 280.201 142.145 276.821 143.441C271.863 145.345 269.214 144.35 268.434 140.289C267.46 135.219 267.241 135.338 282.289 132.736C282.802 132.646 283.619 134.063 284.107 135.88ZM345.913 135.744C354.371 137.443 354.378 137.447 353.374 141.989C351.565 150.185 351.741 150.573 358.272 152.788C364.925 155.042 366.364 154.519 367.947 149.267C369.003 145.76 361.02 141.459 359.13 144.517C358.628 145.331 359.605 146.361 361.303 146.805C365.038 147.783 365.41 150.218 361.818 150.187C357.142 150.146 355.338 147.984 356.41 143.712C357.473 139.475 358.881 139.369 367.999 142.836C372.399 144.51 372.502 145.3 369.341 153.201C367.594 157.567 366.32 158.953 364.644 158.311C363.381 157.826 359.141 156.38 355.224 155.1L348.101 152.769L349.043 146.491C350.063 139.69 350.178 139.8 339.954 137.75C335.31 136.818 331.817 141.84 334.305 145.868C335.459 147.733 342.346 147.674 342.346 145.8C342.346 144.992 341.354 144.331 340.142 144.331C338.93 144.331 337.938 143.669 337.938 142.861C337.938 141.159 344.776 140.846 345.798 142.502C348.666 147.142 344.765 151.85 338.85 150.889C330.763 149.577 330.052 148.63 331.231 140.767C332.372 133.153 332.61 133.072 345.913 135.744ZM243.237 153.864L245.366 158.96L239.541 161.933C232.128 165.714 231.478 165.67 229.464 161.248C227.956 157.937 228.21 157.377 232.168 155.332C234.792 153.974 236.537 153.693 236.537 154.626C236.537 155.48 235.545 156.56 234.332 157.025C231.307 158.187 231.553 160.5 234.7 160.474C240.071 160.427 241.574 158.215 239.555 153.338L237.695 148.848L230.423 152.532L223.152 156.218L226.338 161.373C228.09 164.208 229.283 166.718 228.989 166.949C227.944 167.767 215.201 176.176 213.607 177.099C212.708 177.619 209.915 175.155 207.333 171.56L202.682 165.084L209.175 160.616L215.666 156.15L218.224 160.054C220.947 164.209 216.546 170.755 212.647 168.346C211.677 167.747 212.005 166.74 213.536 165.62C217.973 162.375 216.312 160.124 211.554 162.934C206.4 165.979 206.381 166.074 210.058 170.486L212.874 173.863L218.827 169.923C225.778 165.323 225.621 165.877 221.759 159.629L218.739 154.741L228.739 149.686C239.661 144.164 239.119 144.009 243.237 153.864ZM389.395 156.046C387.222 160.108 385.42 160.844 382.056 159.042C377.865 156.8 378.344 154.375 382.76 155.483C387.739 156.734 387.395 155.189 382.081 152.443C377.386 150.013 373.36 153.477 375.227 158.34C376.094 160.6 387.9 167.081 387.909 165.301C387.912 164.68 389.238 161.998 390.856 159.345L393.798 154.519L402.608 160.502C412.722 167.371 412.75 167.446 407.449 173.976C405.266 176.666 403.344 179.08 403.175 179.343C400.984 182.759 391.219 171.38 393.144 167.656C395.369 163.354 399.168 163.481 401.929 167.95C403.422 170.364 401.449 171.408 399.091 169.451C397.725 168.317 396.661 168.221 396.07 169.178C394.076 172.404 402.477 175.909 404.812 172.826C407.938 168.696 407.499 167.501 401.231 163.068C394.211 158.103 394.997 158.011 391.668 164.192C388.618 169.857 387.577 169.897 377.349 164.737C370.058 161.06 369.833 160.384 373.284 152.581L376.278 145.816L383.59 149.523C389.968 152.754 390.71 153.589 389.395 156.046ZM343.081 154.488C472.1 188.377 504.526 351.371 398.06 430.85C314.665 493.106 190.317 453.515 158.536 354.588C121.219 238.431 226.805 123.946 343.081 154.488ZM279.889 155.511C157.312 177.396 111.061 328.667 200.65 414.677C277.556 488.51 406.092 462.785 446.613 365.452C493.006 254.01 398.032 134.417 279.889 155.511ZM204.741 173.434C209.638 180.498 209.895 179.531 201.163 186.894L193.71 193.176L189.372 189.02L185.032 184.863L179.641 190.253C174.35 195.544 174.3 195.701 176.964 198.645C180.428 202.473 183.097 202.451 185.169 198.579C187.199 194.786 185.947 193.235 182.897 195.766C179.223 198.815 178.349 195.986 181.877 192.459L185.102 189.235L188.28 192.414L191.46 195.594L187.472 200.823C182.593 207.218 182.533 207.22 175.483 201.127L169.784 196.199L177.348 188.269L184.913 180.34L189.357 184.597L193.801 188.856L199.004 184.888C204.881 180.406 205.411 178.207 201.477 174.646C198.914 172.327 198.533 172.35 195.231 175.027C191.149 178.337 192.226 180.61 196.732 178.198C200.995 175.916 200.935 179.653 196.664 182.319C193.922 184.033 193.146 183.887 190.418 181.152L187.306 178.029L193.184 172.992C200.492 166.728 200.084 166.712 204.741 173.434ZM425.745 178.741C431.513 184.024 431.59 184.936 426.703 190.039L422.884 194.024L427.845 199.437L432.805 204.849L436.278 202.039C439.683 199.281 439.699 199.152 437.121 195.216C435.353 192.519 434.007 191.692 433.011 192.688C432.013 193.686 432.152 194.925 433.438 196.474C434.489 197.739 434.879 199.246 434.304 199.82C431.081 203.043 427.753 193.569 430.922 190.195L434.091 186.823L438.864 192.396C444.845 199.381 444.869 199.04 438.038 204.45L432.33 208.97L425.605 201.1L418.881 193.229L422.497 189.833C427.306 185.316 427.075 183.69 420.856 178.229L415.599 173.613L412.503 177.55L409.406 181.486L412.939 184.349C416.775 187.454 418.904 185.514 415.784 181.755C413.689 179.23 414.87 178.986 418.862 181.121C422.471 183.054 422.477 185.793 418.879 189.05C416.169 191.501 415.834 191.404 410.714 186.706L405.374 181.805L410.153 175.593C415.498 168.646 414.507 168.446 425.745 178.741ZM173.633 204.048C180.18 208.585 180.247 208.923 175.917 215.608C172.077 221.535 171.802 221.616 167.445 218.087C164.508 215.709 164.372 215.08 166.165 212.209C168.871 207.874 170.939 208.134 169.802 212.666C168.592 217.489 171.423 217.47 173.624 212.641C175.05 209.509 174.876 208.616 172.49 206.81C168.528 203.812 168.306 203.906 163.988 210.431C159.205 217.658 159.119 216.953 165.233 220.73L170.345 223.891L165.946 232.607C161.012 242.381 160.793 242.476 152.738 238.367L146.947 235.412L150.152 228.815C153.544 221.832 155.032 221.059 159.212 224.115C161.441 225.745 161.551 226.571 159.991 229.994C157.734 234.949 155.075 235.236 156.29 230.391C157.525 225.475 155.059 224.396 152.985 228.946C152.059 230.98 151.301 233.168 151.301 233.809C151.301 234.971 158.703 238.871 159.393 238.071C164.911 231.672 166.162 222.625 161.588 222.195C155.775 221.647 155.642 217.902 161.125 209.13C167.643 198.703 166.557 199.144 173.633 204.048ZM451.74 209.12C455.536 214.857 455.595 215.219 453.038 217.178C449.72 219.718 446.753 219.314 444.692 216.043C442.503 212.566 444.798 210.795 447.213 214.097C448.429 215.764 449.539 216.2 450.128 215.247C452.1 212.055 446.068 206.964 442.547 208.848C438.561 210.98 438.539 212.494 442.398 218.738C445.774 224.201 447.656 224.752 451.917 221.53C456.502 218.062 457.729 218.806 462.133 227.729C464.426 232.376 466.541 236.647 466.83 237.218C467.387 238.319 461.371 241.744 455.94 243.418C451.081 244.916 444.919 233.024 449.006 230.035C453.802 226.527 460.495 230.936 457.567 235.674C456.925 236.713 455.902 236.091 454.769 233.975C452.374 229.5 450.555 232.651 452.752 237.471C454.367 241.014 454.637 241.086 458.618 239.027L462.792 236.87L459.589 230.279C456.148 223.194 454.875 222.59 450.447 225.939C446.096 229.231 444.87 228.637 439.706 220.74C433.842 211.771 433.842 212.082 439.693 207.195C446.036 201.895 447.069 202.06 451.74 209.12ZM153.456 242.329C159.396 245.163 159.438 245.377 156.013 255.284C153.096 263.718 152.821 263.934 146.723 262.595C141.114 261.362 139.955 262.473 138.708 270.275C137.258 279.352 145.452 282.105 147.667 273.283C148.865 268.51 146.127 267.649 144.641 272.332C143.249 276.718 141.077 273.75 142.05 268.792C142.606 265.956 143.527 264.923 144.995 265.486C146.171 265.937 148.071 266.306 149.217 266.306C151.417 266.306 151.97 271.742 150.375 277.695C148.577 284.405 133.098 281.367 134.385 274.557C137.071 260.336 138.432 257.237 141.605 258.121C151.392 260.849 150.804 261.072 153.328 253.667C154.639 249.823 155.71 246.529 155.71 246.349C155.71 246.166 153.7 245.319 151.244 244.462C146.844 242.929 143.953 245.801 143.953 251.705C143.953 254.264 146.688 253.098 147.627 250.14C148.668 246.862 151.301 246.134 151.301 249.125C151.301 253.416 147.627 256.26 143.44 255.209C141.201 254.646 139.646 253.441 139.984 252.531C140.322 251.62 141.486 248.396 142.572 245.364C144.789 239.165 146.071 238.808 153.456 242.329ZM471.797 250.875C475.803 262.267 475.477 264.345 469.516 265.463C461.341 266.998 461.814 281.001 470.041 281.001C475.265 281.001 475.706 280.471 474.923 275.132C474.14 269.796 471.669 269.231 471.669 274.388C471.669 279.238 469.309 279.098 468.073 274.175C466.893 269.472 468.688 267.358 473.296 268.018C482.741 269.371 480.081 283.482 470.253 284.158L463.694 284.611L461.864 275.825C459.587 264.889 459.905 263.97 466.408 262.751C469.302 262.208 471.669 261.582 471.669 261.362C471.669 250.443 465.941 245.201 458.739 249.529C458.498 249.674 458.734 251.525 459.266 253.641C460.527 258.668 462.852 258.59 462.852 253.52C462.852 248.728 465.503 250.663 466.116 255.905C466.752 261.33 458.855 263.171 456.909 258.051C453.339 248.663 453.51 247.811 459.445 245.36C467.503 242.035 468.91 242.663 471.797 250.875ZM143.415 283.941H148.516L148.071 291.656C147.633 299.268 147.568 299.365 143.229 298.892C137.68 298.288 137.522 298.101 138.676 293.502C139.749 289.23 142.484 289.876 142.484 294.401C142.484 296.018 143.145 296.932 143.953 296.432C148.083 293.879 145.518 286.684 140.647 287.154C135.99 287.603 135.859 287.805 135.427 295.33L134.982 303.045H141.351H147.718L148.13 313.131L148.541 323.216L141.473 324.013C132.426 325.033 132.197 324.839 132.197 316.185C132.197 309.097 132.301 308.923 136.605 308.923C140.525 308.923 141.014 309.413 141.014 313.332C141.014 315.757 140.353 317.741 139.545 317.741C138.736 317.741 138.075 316.418 138.075 314.802C138.075 313.185 137.414 311.863 136.605 311.863C135.797 311.863 135.136 313.846 135.136 316.271C135.136 320.33 135.544 320.68 140.279 320.68C144.916 320.68 145.421 320.282 145.402 316.639C145.36 307.876 144.028 305.984 137.903 305.984H132.197L132.217 297.534C132.244 286.489 133.458 282.077 136.184 283.122C137.356 283.573 140.61 283.941 143.415 283.941ZM480.487 294.228C480.487 301.374 480.369 301.575 476.177 301.575C471.418 301.575 468.574 296.735 471.571 293.738C472.81 292.499 473.455 292.912 474.093 295.355C475.315 300.028 477.834 299.427 477.277 294.595C476.889 291.212 476.022 290.477 471.956 290.088L467.1 289.62L467.547 297.436L467.995 305.249L474.241 305.701L480.487 306.153L480.466 313.783C480.431 327.281 479.68 328.457 471.83 327.308C461.734 325.829 458.991 311.863 468.798 311.863C473.69 311.863 474.773 313.122 473.631 317.485C472.583 321.494 470.2 321.672 470.2 317.741C470.2 316.124 469.539 314.802 468.73 314.802C467.922 314.802 467.261 316.711 467.261 319.044C467.261 325.535 475.417 326.557 476.684 320.223C478.65 310.39 478.065 309.129 471.302 308.64L465.056 308.189L464.61 299.536C463.989 287.532 464.427 286.88 473.093 286.88H480.487V294.228ZM150.339 333.17C150.837 336.807 151.649 341.395 152.143 343.366C152.946 346.558 152.465 347.056 147.748 347.942C139.655 349.46 140.41 364.59 148.531 363.623C153.605 363.019 154.561 361.337 152.541 356.557L150.734 352.276L150.186 356.317C149.488 361.449 147.502 361.52 146.231 356.457C144.607 349.986 153.218 347.143 155.55 353.378C159.118 362.913 159.09 363.074 153.532 365.396C144.334 369.239 143.745 369.038 140.917 361.093C136.954 349.954 137.246 347.225 142.515 346.171C148.283 345.018 148.865 343.849 147.664 335.846C146.685 329.315 146.569 329.195 142.109 330.087C136.463 331.215 136.711 330.902 137.641 335.743C138.536 340.403 141.014 341.213 141.014 336.845C141.014 332.607 143.464 333.229 144.6 337.754C145.723 342.223 145.858 342.03 140.736 343.257C136.032 344.384 135.721 343.985 134.394 335.12C133.388 328.4 133.456 328.238 137.558 327.625C149.053 325.907 149.361 326.041 150.339 333.17ZM478.71 331.683C479.892 332.745 474.129 353.011 472.644 353.011C471.693 353.011 468.883 352.429 466.401 351.716C461.839 350.408 454.641 361.739 458.048 364.867C461.707 368.231 465.823 367.812 467.3 363.927C469.118 359.146 467.765 357.14 465.142 360.729C462.912 363.777 461.382 364.04 461.382 361.374C461.382 356.842 464.981 354.245 469.095 355.809C473.021 357.302 473.033 357.35 470.924 363.326C467.801 372.178 467.803 372.178 460.063 368.962L452.923 365.994L455.942 356.93C459.7 345.651 458.765 346.484 465.693 348.242C472.188 349.891 472.085 350 473.924 339.608C474.948 333.811 468.489 329.611 465.585 334.188C462.465 339.108 464.755 343.234 468.081 338.685C470.551 335.307 471.603 336.573 470.613 341.733C469.915 345.362 469.33 345.766 465.966 344.935C460.571 343.604 460.211 342.813 461.729 335.621L463.074 329.252L470.677 330.276C474.86 330.839 478.475 331.473 478.71 331.683ZM163.214 373.567L165.853 379.462L161.72 381.598C157.783 383.635 157.509 383.557 155.86 379.939C153.719 375.24 155.009 373.535 157.81 377.363C160.565 381.134 162.041 379.378 160.197 374.524C158.57 370.247 156.16 369.654 152.192 372.555C149.713 374.368 149.746 374.802 152.893 381.275L156.202 388.09L161.787 385.24L167.37 382.392L172.741 390.788L178.111 399.183L172.422 403.998C169.292 406.644 166.401 408.819 165.997 408.83C164.979 408.856 156.696 395.604 157.369 395.026C161.31 391.637 165.165 391.033 166.983 393.52C170.226 397.953 169.518 401.019 165.988 397.824C162.051 394.262 160.748 395.918 163.809 400.591C166.141 404.151 166.442 404.223 169.805 402.018C174.673 398.829 174.551 398.258 166.616 387.076C166.432 386.817 163.691 387.928 160.524 389.543L154.768 392.481L150.024 382.859C144.748 372.161 144.707 372.339 153.26 368.966C160.335 366.177 159.792 365.925 163.214 373.567ZM459.056 372.062C466.915 375.432 466.665 374.646 462.559 383.097C458.888 390.651 458.937 390.629 454.227 387.008C451.257 384.724 450.995 383.866 452.441 381.162C454.771 376.811 457.241 377.151 456.108 381.668C454.874 386.583 457.506 386.363 459.785 381.36C461.346 377.938 461.235 377.112 459.006 375.482C454.784 372.394 452.797 373.247 449.601 379.513C446.146 386.285 446.409 387.2 452.534 389.737C458.151 392.065 458.152 392.06 450.962 402.827L444.949 411.829L439.205 407.279C432.376 401.871 432.213 400.647 437.502 394.475C443.082 387.963 450.582 392.028 445.972 399.066C443.135 403.395 439.925 402.963 442.278 398.568C444.507 394.401 441.495 393.627 438.838 397.683C436.436 401.348 439.009 405.916 443.476 405.916C450.302 405.916 453.388 390.406 446.687 389.774C442.291 389.361 442.318 386.777 446.809 378.211C449.413 373.242 451.718 369.176 451.933 369.176C452.146 369.176 455.351 370.475 459.056 372.062ZM186.481 409.222C193.434 416.589 193.604 417.544 188.775 422.081C184.03 426.54 184.048 426.62 191.025 432.228L196.949 436.988L199.725 433.576C202.778 429.823 200.5 425.02 195.668 425.02C193.822 425.02 193.875 425.474 195.991 427.814C199.65 431.855 196.42 432.921 192.655 428.913L189.494 425.548L192.808 422.445L196.123 419.345L201.665 424.434L207.207 429.524L202.522 435.356C196.767 442.515 197.762 442.612 188.041 433.954L179.958 426.756L184.643 421.846L189.328 416.937L184.509 411.703C180.046 406.855 179.457 406.624 176.518 408.575C172.638 411.153 172.498 413.51 176.036 416.713C179.103 419.489 181.532 418.248 179.001 415.2C176.349 412.004 178.901 411.047 182.176 414.01L185.147 416.699L181.921 420.134L178.696 423.567L175.151 420.253C168.297 413.844 168.034 411.728 173.526 407.172C179.864 401.915 179.536 401.862 186.481 409.222ZM438.563 410.814L442.929 414.388L435.876 422.644C427.635 432.29 428.246 432.111 422.509 426.585L418.03 422.272L413.254 426.565C407.765 431.496 407.646 431.995 410.841 436.556L413.204 439.93L416.673 436.671C420.313 433.25 420.059 429.464 416.394 432.506C413.014 435.312 412.022 432.578 415.249 429.352C418.183 426.419 418.186 426.419 421.476 429.921L424.766 433.425L419.51 438.039C412.938 443.81 412.432 443.79 407.68 437.559C403.056 431.498 403 431.698 411.543 423.897L418.283 417.743L422.472 422.116C427.694 427.565 427.335 427.618 433.208 420.547L438.1 414.657L434.677 411.873C430.917 408.814 426.112 411.086 426.112 415.923C426.112 417.799 426.514 417.765 428.803 415.693C432.761 412.111 434.032 414.67 430.28 418.663C427.279 421.859 426.902 421.921 424.389 419.647C420.856 416.448 420.978 415.487 425.664 409.613C429.958 404.231 430.59 404.29 438.563 410.814ZM216.33 435.648C222.826 440.145 219.894 449.543 213.284 445.415C209.135 442.824 208.818 438.934 212.934 441.138C217.162 443.4 218.013 440.434 213.908 437.745C210.243 435.344 205.676 437.917 205.676 442.383C205.676 449.209 221.186 452.295 221.817 445.594C222.232 441.181 224.811 441.159 233.393 445.491C238.356 447.995 242.415 450.312 242.415 450.636C242.415 452.206 236.534 464.699 235.796 464.699C234.302 464.699 223.535 458.904 222.79 457.698C220.981 454.77 227.186 449.613 230.429 451.349C234.781 453.678 234.44 456.149 229.924 455.016C225.008 453.781 225.228 456.413 230.231 458.693C233.653 460.253 234.479 460.143 236.109 457.914C239.197 453.692 238.344 451.705 232.078 448.508C225.306 445.053 224.391 445.316 221.854 451.442C219.528 457.057 219.526 457.057 208.812 449.902L199.858 443.922L204.603 437.575C207.214 434.084 210.011 431.594 210.819 432.04C211.627 432.486 214.108 434.109 216.33 435.648ZM405.459 439.614L410.035 445.393L403.275 450.043C396.816 454.488 396.426 454.573 394.461 451.981C391.502 448.076 391.832 446.247 395.986 443.525C399.096 441.488 399.66 441.448 399.66 443.269C399.66 444.452 398.999 445.829 398.19 446.329C395.081 448.251 396.906 449.856 400.395 448.266C404.567 446.366 404.965 444.442 402.02 440.415C397.613 434.389 385.687 444.138 389.977 450.262C393.492 455.282 392.878 457.003 386.384 460.315C372.934 467.178 371.876 466.859 368.173 454.848C366.675 449.988 378.567 443.826 381.556 447.913C384.301 451.668 383.966 454.056 380.429 455.949C376.483 458.061 374.586 456.249 378.073 453.697C381.522 451.177 378.719 449.309 374.708 451.456C366.617 455.786 373.54 463.15 381.759 458.956C388.629 455.451 388.97 454.467 385.41 448.438C384.037 446.116 383.21 443.948 383.573 443.622C385.205 442.148 399.028 433.89 399.904 433.865C400.442 433.851 402.942 436.437 405.459 439.614ZM264.284 458.4C264.591 458.573 264.168 461.373 263.343 464.622L261.844 470.529L267.194 472.014C275.373 474.286 277.273 473.887 278.332 469.669C279.472 465.126 279.537 465.219 274.375 463.924C270.131 462.859 268.594 465.185 272.541 466.7C276.506 468.221 274.977 470.689 270.704 469.663C261.717 467.507 265.104 459.576 274.465 460.859C282.804 462.002 282.429 461.47 281.238 470.436L280.238 477.985L274.919 477.081C257.809 474.172 256.83 473.213 260.72 463.17C261.354 461.538 260.053 460.356 256.047 458.922C252.995 457.83 249.789 456.673 248.922 456.352C246.959 455.624 243.312 463.278 244.916 464.758C245.561 465.351 247.576 466.287 249.396 466.837C253.105 467.958 254.111 465.147 250.498 463.761C246.96 462.403 247.957 459.99 251.6 461.091C256.61 462.605 257.356 463.863 255.75 468.088C254.294 471.917 254.223 471.933 248.265 469.832C239.41 466.708 239.413 466.712 242.643 458.939L245.623 451.769L254.673 454.927C259.652 456.665 263.975 458.227 264.284 458.4ZM366.699 459.623C369.781 467.691 369.284 468.34 357.258 471.98L348.201 474.724L346.624 468.461L345.048 462.197L338.921 463.385C335.551 464.037 332.299 464.599 331.692 464.634C330.413 464.709 330.227 469.39 331.38 472.398C331.899 473.748 333.676 474.239 336.524 473.822C341.81 473.046 342.327 470.577 337.203 470.577C332.353 470.577 332.493 468.217 337.416 466.981C341.913 465.852 343.368 466.952 344.057 471.997C344.507 475.294 343.898 475.732 337.335 476.846C328.876 478.283 327.707 477.245 327.673 468.265L327.651 462.278L336.687 460.599C347.334 458.618 347.605 458.725 348.86 465.417C349.972 471.352 349.899 471.331 358.873 468.273C366.506 465.672 367.029 455.903 359.427 457.943C357.711 458.403 355.812 458.79 355.205 458.8C352.116 458.857 354.639 461.76 357.777 461.76C362.627 461.76 362.487 464.12 357.564 465.356C349.145 467.469 348.667 458.025 357.042 455.014C359.871 453.997 362.627 453.115 363.166 453.054C363.705 452.992 365.295 455.949 366.699 459.623ZM299.729 468.47C299.729 473.998 292.869 475.807 291.195 470.721C290.707 469.24 291.398 468.891 293.653 469.482C295.758 470.032 296.79 469.622 296.79 468.235C296.79 466.918 295.189 466.168 292.381 466.168C287.353 466.168 285.663 473.785 290.297 475.563C298.074 478.548 302.483 476.683 302.951 470.21L303.403 463.964L313.907 463.486L324.413 463.01L324.929 470.59C325.555 479.759 325.877 479.395 317.118 479.395C310.266 479.395 310.016 479.245 310.016 475.144C310.016 471.177 316.016 467.27 318.419 469.673C319.616 470.871 317.314 473.516 315.073 473.516C313.907 473.516 312.955 474.177 312.955 474.986C312.955 475.794 314.939 476.455 317.364 476.455C321.423 476.455 321.772 476.047 321.772 471.312C321.772 466.309 321.615 466.168 316.015 466.168C307.016 466.168 305.607 467.207 305.607 473.839V479.727L295.399 479.149C283.096 478.454 283.084 478.445 284.355 469.977L285.366 463.229H292.548H299.729V468.47Z" fill="#FFD571"/>
<path opacity="0.3" d="M205.843 101.52C207.707 99.1577 210.579 97.8183 213.587 97.9087L258.809 99.2691C260.511 99.3203 262.199 98.957 263.729 98.2105L304.391 78.371C307.094 77.0517 310.264 77.0912 312.934 78.4775L353.088 99.3246C354.599 100.109 356.277 100.514 357.98 100.506L403.222 100.273C406.231 100.258 409.069 101.668 410.873 104.076L438.005 140.28C439.026 141.643 440.363 142.736 441.901 143.467L482.764 162.887C485.481 164.179 487.426 166.681 488.007 169.633L496.744 214.025C497.072 215.695 497.802 217.26 498.871 218.586L527.261 253.813C529.149 256.155 529.815 259.254 529.058 262.166L517.669 305.952C517.24 307.599 517.218 309.326 517.606 310.984L527.9 355.04C528.585 357.97 527.841 361.051 525.895 363.346L496.636 397.854C495.535 399.152 494.766 400.699 494.396 402.361L484.555 446.52C483.901 449.457 481.894 451.91 479.145 453.133L437.811 471.529C436.255 472.221 434.892 473.281 433.837 474.618L405.811 510.135C403.947 512.496 401.075 513.836 398.067 513.745L352.845 512.385C351.143 512.334 349.455 512.697 347.925 513.444L307.264 533.283C304.56 534.602 301.391 534.563 298.72 533.177L258.566 512.33C257.056 511.545 255.377 511.14 253.674 511.149L208.432 511.381C205.423 511.397 202.585 509.986 200.781 507.578L173.649 471.374C172.628 470.012 171.291 468.918 169.753 468.187L128.89 448.767C126.173 447.475 124.228 444.973 123.647 442.021L114.91 397.629C114.582 395.959 113.852 394.394 112.783 393.068L84.3935 357.841C82.5055 355.499 81.8389 352.4 82.5962 349.489L93.9855 305.703C94.4141 304.055 94.4356 302.328 94.0482 300.67L83.7541 256.614C83.0696 253.684 83.8133 250.603 85.759 248.309L115.018 213.8C116.119 212.502 116.888 210.955 117.258 209.294L127.099 165.134C127.753 162.197 129.76 159.744 132.509 158.521L173.843 140.125C175.399 139.433 176.762 138.373 177.817 137.037L205.843 101.52Z" stroke="#0D5735"/>
</svg>
