<svg width="77" height="131" viewBox="0 0 77 131" fill="none" xmlns="http://www.w3.org/2000/svg">
<path fill-rule="evenodd" clip-rule="evenodd" d="M56.9916 0.359307C56.5224 1.11171 60.3151 3.48919 61.9846 3.48919C62.9764 3.48919 62.6907 1.71117 61.557 0.827348C60.5117 0.0123105 57.4064 -0.30625 56.9916 0.359307ZM16.7474 48.6894C16.8982 49.5083 17.0215 51.6479 17.0215 53.4444V56.7107L14.5013 57.0177C13.1152 57.1868 10.5415 57.2383 8.78246 57.1326C5.70202 56.9474 4.57492 57.3924 5.96645 58.2447C6.42008 58.5225 7.60418 62.444 8.49128 66.6056C9.08914 69.4096 10.2364 70.8737 10.2364 68.8325C10.2364 68.0251 10.8234 67.8614 14.9294 67.5236L17.1022 67.3453L17.3763 74.3245C17.9218 88.2316 19.3405 88.3473 19.7957 74.5224L20.0442 66.9718L24.6433 66.6982C29.477 66.41 29.9423 66.2383 29.1754 65.0213C28.598 64.1052 30.38 59.5335 31.6606 58.6443C33.3282 57.4869 29.7244 54.5226 27.5628 55.2739C26.8832 55.5106 24.8608 55.8253 23.0688 55.974L19.8104 56.2438L20.0263 52.3626C20.2667 48.0365 20.1597 47.7937 17.8481 47.4221L16.4733 47.2007L16.7474 48.6894ZM53.8196 48.978C53.4424 49.9521 58.4044 53.6315 59.7486 53.3748C61.3616 53.067 60.4543 50.5066 58.3509 49.4283C56.4918 48.4757 54.1058 48.2386 53.8196 48.978ZM20.8758 3.96953C21.0243 4.86795 21.1282 9.80006 21.1069 14.9305C21.0422 30.347 25.1745 34.398 35.9694 29.4997C38.381 28.4057 38.3806 28.4061 37.6075 25.8491C37.3078 24.8585 36.915 23.1831 36.7351 22.1263C36.2986 19.5655 35.7492 19.8215 35.1854 22.848C34.3983 27.0761 33.5884 27.6994 28.8861 27.6967C23.5701 27.6936 22.7481 25.9732 23.1824 15.7593C23.417 10.2385 23.7927 6.88845 24.4153 4.7569C24.6131 4.08058 24.4014 3.7528 23.3623 3.1249C21.193 1.81415 20.5552 2.03088 20.8758 3.96953ZM27.9963 98.2226C27.4799 98.7345 19.4056 99.983 16.5369 99.9949C13.0765 100.009 13.0528 100.025 13.9283 101.764C14.2528 102.408 14.8735 104.553 15.3082 106.53C16.1546 110.383 16.5419 111.138 17.2929 110.393C17.5488 110.14 18.5084 109.932 19.4254 109.932H21.0926V111.619C21.0926 113.535 21.5288 113.342 15.2768 114.182C10.8184 114.781 10.6342 114.848 11.5706 115.531C12.4596 116.18 14.5005 116.236 16.5601 115.67C17.3724 115.446 18.2021 115.318 18.4037 115.384C19.1102 115.618 15.1298 120.911 12.0292 123.862C8.63046 127.096 8.78207 127.7 12.4057 125.364C14.9049 123.752 17.6322 121.028 19.3885 118.388L20.511 116.7L20.63 118.304C20.6952 119.186 20.5765 121.75 20.366 124.002C19.9554 128.394 20.3567 130.875 21.4783 130.875C22.3317 130.875 22.5465 129.253 22.5977 122.427L22.6434 116.286L26.8114 120.358C31.6455 125.082 31.4792 124.997 34.9284 124.476C39.3976 123.802 39.3115 123.517 34.0382 121.535C30.166 120.079 27.1918 118.362 24.4025 115.972L22.8792 114.667L27.7047 114.189C33.1041 113.653 32.8308 113.728 32.4966 112.866C32.0158 111.624 30.0028 111.62 23.9035 112.848L22.6434 113.102V111.37C22.6434 109.898 22.7749 109.603 23.5158 109.406C24.8554 109.05 26.4481 109.121 26.7145 109.548C27.2317 110.377 27.6706 109.801 29.0715 106.451C29.8958 104.48 30.9383 102.649 31.4757 102.231C32.666 101.303 32.4376 100.681 30.3579 99.1879C28.7047 98.0009 28.3612 97.8606 27.9963 98.2226ZM52.9221 99.2644C52.4099 100.592 51.3909 101.326 48.2252 102.649C43.8688 104.469 43.3202 105.429 47.2117 104.422L49.376 103.862L49.559 105.072C49.6594 105.737 49.825 106.913 49.9262 107.684L50.1103 109.087L45.3914 109.941C38.806 111.134 38.7649 111.156 40.7624 112.453C41.7883 113.119 41.9298 113.113 45.2506 112.27C49.9083 111.088 48.9506 113.595 42.29 120.019C40.5922 121.657 39.4701 122.997 39.7966 122.997C41.3758 122.997 46.6123 118.666 49.3201 115.12L50.2007 113.967L49.9653 118.578C49.8358 121.114 49.5578 124.195 49.3477 125.424C49.0736 127.026 49.0941 128.06 49.4213 129.075C50.6981 133.038 51.4592 130.867 51.6531 122.709C51.7395 119.064 51.8849 116.08 51.9756 116.08C52.0668 116.08 52.8251 116.426 53.6611 116.849C55.6109 117.835 55.9874 117.816 55.9874 116.734C55.9874 115.429 55.26 114.928 53.3703 114.928H51.6837L51.8 112.725L51.9163 110.523L54.5338 110.099C58.7479 109.416 58.3502 107.697 54.0969 108.211L52.0125 108.462L52.2785 106.352C52.4487 105.002 52.3963 104.151 52.1334 103.99C51.3801 103.529 51.7081 103.141 53.2357 102.687C56.6671 101.669 57.2207 99.9983 54.4927 98.8951C53.3412 98.4294 53.2346 98.4543 52.9221 99.2644ZM4.80832 99.8923C4.80832 100.32 7.91823 103.171 9.02517 103.758C10.6579 104.624 11.3232 102.555 9.87389 101.119C8.75105 100.006 4.80832 99.0515 4.80832 99.8923ZM66.0681 100.578C65.1085 100.887 62.9439 101.214 61.2577 101.305C57.6775 101.498 57.5774 101.555 58.3901 102.931C58.7297 103.506 59.3935 105.273 59.8654 106.858C60.8932 110.311 60.9707 110.455 61.5469 109.991C61.7947 109.791 63.4801 109.345 65.2927 108.998C70.594 107.983 70.4269 108.039 70.1644 107.361C69.8461 106.538 71.0856 103.338 71.97 102.701C74.0625 101.191 69.3885 99.5103 66.0681 100.578ZM62.5786 4.85143C62.2588 4.91752 59.4238 5.43398 56.2782 5.99924C53.1326 6.56451 50.5593 7.17588 50.5593 7.35803C50.5593 7.85642 51.9334 8.48471 53.024 8.48471C53.7824 8.48471 54.0841 8.77176 54.4361 9.8285C54.6823 10.5675 55.2523 11.4282 55.7028 11.741C56.8714 12.5522 56.8722 12.5522 49.3961 13.5171C41.6216 14.5208 42.0097 14.3998 43.1019 15.4827L43.9374 16.3104L48.5086 15.4757C57.5953 13.8165 66.9164 12.8762 75.858 12.7167C76.4396 12.7067 76.1291 11.6603 75.3323 10.946C74.3785 10.0906 72.5927 10.0925 66.8494 10.954C62.5375 11.6011 62.717 11.6592 63.9403 10.0156C64.9236 8.69452 65.2167 7.3319 64.5172 7.3319C63.3901 7.3319 64.3621 6.61561 65.7773 6.4035C69.3699 5.86513 69.2125 4.61895 65.5606 4.68658C64.2404 4.71117 62.8985 4.78533 62.5786 4.85143ZM28.2359 100.662C29.3161 102.395 26.6075 107.577 24.4696 107.867L22.6434 108.115V106.526V104.937H24.147C25.5785 104.937 26.8033 104.192 26.2589 103.652C26.1186 103.513 25.2478 103.4 24.3234 103.4C22.4725 103.4 21.6276 101.029 23.322 100.59C24.5611 100.269 28.0223 100.32 28.2359 100.662ZM20.7048 102.631C20.7048 103.967 20.5909 104.169 19.8325 104.174C18.3622 104.184 17.7442 104.779 18.6856 105.278C19.1257 105.511 19.7394 105.606 20.05 105.488C20.4649 105.33 20.6579 105.642 20.7785 106.665C20.9673 108.27 21.0119 108.224 18.9209 108.567L17.3309 108.827L17.0793 106.441C16.5438 101.364 16.6194 101.179 19.2509 101.124C20.6936 101.094 20.7048 101.105 20.7048 102.631ZM12.1258 5.97158C11.9951 6.10108 12.1196 6.84925 12.4022 7.63393C14.6688 13.926 11.9125 23.4978 6.39837 28.4841C3.05079 31.5113 2.99302 32.1865 6.2394 30.3474C10.4904 27.9388 12.9024 25.1129 14.2412 20.9735C15.5571 16.9048 16.1515 7.44218 15.143 6.61254C14.5021 6.08571 12.4507 5.64956 12.1258 5.97158ZM68.3944 104.545C68.3944 107.12 68.7306 106.865 64.3466 107.617C61.9544 108.027 61.4411 107.827 61.417 106.474C61.4116 106.157 61.3015 105.265 61.1728 104.493L60.9382 103.088L63.0187 102.713C64.1628 102.507 65.8405 102.317 66.7466 102.292L68.3944 102.247V104.545ZM62.1824 8.00437C62.1611 9.6967 60.7447 11.8263 59.473 12.0784C57.4305 12.4834 56.7613 12.3939 57.0106 11.7502C57.401 10.7423 56.819 9.41272 55.7385 8.84323C54.694 8.29296 54.6955 8.29219 56.9881 7.85412C60.616 7.16089 62.1925 7.20662 62.1824 8.00437ZM59.0911 56.547C55.9998 57.3704 51.6379 58.3392 49.3981 58.6993C47.1578 59.0597 45.1634 59.4909 44.9657 59.6569C44.407 60.1268 47.1245 61.0821 48.4268 60.8738C50.084 60.6087 55.6206 59.6019 56.724 59.3648C57.8318 59.1269 57.7434 62.4052 56.5496 65.8371C55.78 68.0489 55.9432 68.0413 53.2974 65.9916C50.8326 64.0817 49.7055 63.4354 48.8401 63.4354C47.6514 63.4354 48.2632 64.4814 50.2685 65.8786C51.3879 66.6583 52.8879 67.7946 53.6017 68.4029L54.899 69.5096L53.3222 71.0724C51.41 72.9676 48.0918 74.6799 44.331 75.7128C39.6388 77.0017 40.5061 77.6369 45.7372 76.7423C49.6369 76.0752 53.2466 74.4682 55.3128 72.4796L56.7167 71.1281L61.1014 75.1933C66.3981 80.1027 66.3984 80.1031 71.267 79.7834C78.6636 79.2977 78.7687 79.0352 72.3585 77.052C65.2407 74.8498 57.5569 70.4629 58.0524 68.8843C58.164 68.5293 58.7258 67.1225 59.3012 65.7583C60.825 62.1454 60.9832 60.4289 59.8692 59.5961C58.9166 58.8841 59.8526 58.6508 67.0153 57.8166C69.3129 57.5487 69.6945 57.319 69.3436 56.4132C68.6453 54.6091 66.248 54.6406 59.0911 56.547ZM27.6838 58.5513C27.6838 59.6384 26.58 63.9188 26.2097 64.2658C26.0608 64.4053 24.5867 64.642 22.9342 64.7911L19.9294 65.0628V61.5836V58.1044L21.1895 57.9492C25.399 57.4315 27.6838 57.6433 27.6838 58.5513ZM17.2154 61.8679V65.2956L16.1491 65.4982C15.5629 65.6096 14.0175 65.8102 12.7155 65.9443L10.3481 66.1879L9.90956 62.8213C9.38924 58.8284 9.04572 59.3348 12.5701 58.8983C17.7171 58.2608 17.2154 57.9399 17.2154 61.8679ZM6.06298 109.531C5.57988 109.93 3.96464 110.568 2.47308 110.949C-0.369296 111.674 -0.639142 112.059 1.03852 112.997C1.96362 113.514 2.20866 113.489 3.82855 112.708C4.80522 112.238 5.71326 111.853 5.84625 111.853C6.32431 111.853 5.62292 119.797 4.99675 121.475C3.91773 124.366 3.91192 124.672 4.91727 125.608L5.85633 126.483L7.4421 124.452C8.31409 123.335 9.8231 121.65 10.7951 120.708C13.5421 118.045 13.0388 117.496 9.90025 119.731C8.86116 120.471 7.90117 121.076 7.76702 121.076C6.8109 121.076 8.06788 113.449 9.3272 111.61C9.8483 110.849 10.2225 110.189 10.1585 110.144C7.91862 108.555 7.34711 108.469 6.06298 109.531ZM65.2365 15.2014C64.8871 15.5472 53.3718 16.8507 52.3587 16.6589C50.4197 16.2915 50.1103 16.7031 50.9342 18.5545C51.3382 19.4622 51.9555 21.3393 52.306 22.7262C53.1388 26.022 53.4641 26.5569 54.1306 25.7254C54.4055 25.3822 55.4589 24.9972 56.472 24.87L58.3137 24.6387V26.122V27.6052L55.5609 28.0103C52.5584 28.4522 52.2792 28.574 52.7057 29.2576C52.9011 29.5712 53.8289 29.6561 55.6524 29.5266L58.3137 29.3379V30.5814C58.3137 32.0293 58.4277 31.9967 50.6496 32.7633C45.6686 33.254 45.1696 33.5461 47.3951 34.6681C48.3357 35.1423 48.9995 35.2157 50.0859 34.9663C54.5807 33.9342 60.1658 33.407 66.3589 33.43C73.2828 33.4558 73.7178 33.3432 72.1825 31.9252C70.7448 30.5979 68.655 30.4873 62.094 31.3915L60.2523 31.6455V30.2917V28.9379L62.7771 28.466C66.742 27.7244 66.407 26.223 62.3879 26.7206L60.2523 26.985V25.6124V24.2398H62.1909C63.2571 24.2398 64.1295 24.4127 64.1295 24.6241C64.1295 25.6989 65.3784 24.7613 66.4733 22.8649C67.1537 21.6859 68.3056 19.9486 69.0334 19.0037C69.7607 18.0592 70.2516 17.1193 70.1244 16.9148C69.5041 15.92 65.8157 14.6269 65.2365 15.2014ZM64.1295 112.137C57.3525 113.375 57.5483 113.31 58.5076 114.019C59.0399 114.412 59.9817 114.554 61.5132 114.472L63.7433 114.351L63.7426 116.151C63.7418 118.115 63.7329 118.122 60.737 118.584C57.8089 119.035 58.9418 120.29 62.2878 120.302L63.7418 120.307V122.003V123.698L62.094 123.948C56.4542 124.805 53.6401 125.432 53.7653 125.806C54.0821 126.747 56.2421 126.829 60.7854 126.071C63.9155 125.549 67.1847 125.303 70.9956 125.303C76.9138 125.303 77.3213 125.15 75.3261 123.673C74.2443 122.872 71.9645 122.715 68.0807 123.174L65.6346 123.462L65.7544 121.624L65.8742 119.785L67.9381 119.326C71.592 118.514 71.7497 117.022 68.1505 117.317L66.0681 117.489V115.684V113.88L68.3921 113.391C70.9763 112.848 72.1429 112.195 71.7265 111.528C71.3539 110.93 70.2566 111.018 64.1295 112.137ZM66.1759 17.1734C66.4651 17.4601 64.9852 21.5714 64.3745 22.1774C63.275 23.2684 60.2523 23.0728 60.2523 21.9103C60.2523 20.9228 60.4043 20.806 61.997 20.5692C64.3393 20.2211 63.8965 18.86 61.4411 18.86C60.5481 18.86 60.295 17.5251 61.1247 17.193C61.8272 16.9121 65.8963 16.8964 66.1759 17.1734ZM58.2439 18.561C58.1474 19.2266 57.7558 19.486 56.472 19.7365C54.0259 20.2138 54.516 21.1656 57.2079 21.1656C59.5556 21.1656 58.5785 23.2334 56.1149 23.4789L54.11 23.6791L53.8708 21.9419C53.7394 20.9866 53.5401 19.7427 53.4284 19.1782C53.2016 18.0323 53.6072 17.8559 56.693 17.7595C58.2148 17.7118 58.3564 17.7852 58.2439 18.561Z" fill="#CB6B6B"/>
</svg>
