<svg width="310" height="49" viewBox="0 0 310 49" fill="none" xmlns="http://www.w3.org/2000/svg">
<path fill-rule="evenodd" clip-rule="evenodd" d="M133.574 26.1438C133.087 26.3594 132.465 26.9969 132.372 27.3757C132.347 27.4768 132.384 27.4558 130.56 28.4177C129.997 28.7144 129.158 29.1374 128.694 29.3578C128.23 29.5781 127.643 29.8749 127.389 30.0173C126.856 30.3165 126.876 30.3189 126.932 29.9621C127.013 29.4503 126.834 29.4045 126.271 29.7929C126.192 29.8474 126.039 29.9209 125.93 29.9562C124.894 30.293 124.481 31.4972 125.122 32.3093C125.186 32.3901 125.267 32.5141 125.302 32.5847C125.776 33.5286 126.482 34.0903 127.193 34.0903C127.99 34.0903 128.668 33.6661 130.314 32.1387C130.682 31.7971 131.089 31.4313 131.219 31.3259C131.553 31.0542 131.565 30.9951 131.472 30.1012L131.449 29.876L131.683 29.5496C132.757 28.0531 132.415 29.4505 130.996 32.3598L130.578 33.2181L130.237 33.4834C129.419 34.1199 129.221 34.5155 129.44 35.0826C129.498 35.2336 129.582 35.4728 129.627 35.6142C129.718 35.8994 129.875 36.2352 130.075 36.5689C130.196 36.7724 130.246 37.1254 130.162 37.1854C129.496 37.6596 128.97 38.1382 126.422 40.5879C126.218 40.7845 126.212 40.7872 126.099 40.7404C124.418 40.0433 123.353 41.4855 124.441 42.9858C124.63 43.2463 124.816 43.3673 125.135 43.437C125.701 43.5607 125.821 43.6051 125.901 43.7209C126.018 43.8881 126.294 43.9977 126.76 44.0612C127.485 44.1602 127.479 44.1577 127.727 44.4723C128.38 45.3032 128.763 46.1334 128.824 46.8506C128.838 47.0216 128.88 47.1814 128.949 47.3279C129.072 47.5917 129.126 47.9458 129.099 48.3132L129.079 48.583L129.57 48.6057C130.132 48.6317 130.518 48.6062 130.596 48.5378C130.625 48.5118 130.779 48.4577 130.937 48.4174C131.597 48.2491 131.857 48.0712 132.252 47.5184C132.356 47.3733 132.534 47.1514 132.647 47.0254C133.559 46.0128 134.141 43.9152 133.882 42.5727C133.844 42.3773 133.823 42.0957 133.825 41.8199C133.835 40.3315 133.696 39.0408 133.395 37.846C133.122 36.7589 133.198 36.617 135.47 34.0185C136.062 33.3413 136.254 32.9979 136.169 32.7672C136.125 32.6499 136.139 32.6215 136.238 32.6215C136.301 32.6215 136.305 32.6438 136.287 32.9061C136.276 33.0626 136.258 33.3476 136.246 33.5395C136.216 34.0352 136.073 35.1569 135.928 36.0365C135.351 39.5204 135.3 39.8685 135.222 40.9203C134.877 45.5633 137.303 48.1478 142.106 48.2541L142.977 48.2733V48.4948V48.7162L143.47 48.6928C146.734 48.5377 149.58 46.7004 149.58 44.7479C149.58 43.6217 149.231 43.6668 148.846 44.8429C148.673 45.3729 148.627 45.4037 148.633 44.9868C148.663 42.7129 148.648 42.4892 148.404 41.4911L148.306 41.0888L148.116 41.0114C147.799 40.8821 147.544 40.4051 147.439 39.7452C147.316 38.974 147.243 38.8283 146.938 38.7448C146.752 38.694 146.769 38.7375 146.479 37.5971C146.163 36.3592 146.045 36.055 145.867 36.0209C145.704 35.9895 145.653 35.9183 145.522 35.54C145.46 35.3586 145.379 35.167 145.342 35.1141C145.305 35.0612 145.258 34.9718 145.237 34.9153C145.216 34.859 145.11 34.6576 145 34.4678C144.731 33.9992 144.576 33.6609 144.5 33.3743C144.451 33.1881 144.42 33.1306 144.362 33.1183C144.32 33.1095 144.139 33.0685 143.959 33.0272C143.779 32.9858 143.598 32.952 143.556 32.952C143.503 32.952 143.474 32.9224 143.459 32.851C143.378 32.4618 143.112 31.8505 142.959 31.7042L142.877 31.6251L142.856 32.059C142.844 32.2977 142.825 33.5174 142.814 34.7696C142.777 39.0887 142.654 40.7784 142.256 42.4675L142.147 42.9314L141.817 43.0987C140.318 43.8589 139.282 43.6347 139.106 42.5119C139.064 42.2462 139.113 39.8267 139.173 39.2311C139.264 38.3146 139.354 37.8873 139.76 36.4404C140.032 35.4705 140.135 35.0484 140.399 33.8332C140.669 32.594 140.362 31.592 139.429 30.6661L139.069 30.3081H138.696C138.482 30.3081 138.157 30.2774 137.933 30.236C137.59 30.1727 137.535 30.1705 137.484 30.2177C137.409 30.2872 137.307 30.2859 137.207 30.2142C137.135 30.1625 137.119 30.1625 137.047 30.2142C136.94 30.2908 136.517 30.2951 136.517 30.2196C136.517 30.1606 136.715 29.8933 137.036 29.5186C137.484 28.9964 137.506 28.9601 137.433 28.8767C137.376 28.8129 137.371 28.7664 137.395 28.5184C137.437 28.086 137.429 28.0186 137.304 27.7487C137.081 27.2683 136.413 26.7095 136.062 26.7095C135.848 26.7095 135.538 26.6151 135.046 26.3992C134.311 26.0771 133.89 26.004 133.574 26.1438ZM161.247 26.2183C160.866 26.4204 160.646 26.6329 160.614 26.8294C160.579 27.044 160.551 27.0876 160.355 27.2346C159.858 27.6076 158.375 28.2549 155.575 29.3208C154.833 29.6029 154.188 29.8504 154.141 29.8708C153.975 29.942 153.924 29.699 154.007 29.2268C154.153 28.3889 153.977 28.2699 153.198 28.6797C151.603 29.5191 151.428 29.9969 152.197 31.4235C152.394 31.7895 152.609 32.2212 152.674 32.3828C152.814 32.7317 152.794 32.7143 153.133 32.7907C153.577 32.8912 153.639 32.9392 153.67 33.209L153.689 33.3742L154.048 33.3852C155.205 33.4206 155.868 32.9964 157.277 31.3179C158.434 29.9393 159.013 29.4785 159.798 29.3128C160.099 29.2491 160.101 29.1882 159.77 30.3142C158.92 33.2029 158.156 34.3909 156.782 34.9575C156.384 35.1219 156.306 35.4904 156.576 35.9342C156.739 36.2026 156.779 36.1729 155.864 36.4575C154.777 36.7954 153.056 37.4462 151.662 38.0461L150.854 38.3934L150.549 38.2935C148.921 37.7608 148.303 39.3536 149.823 40.1638C150.046 40.2825 150.296 40.4328 150.38 40.4977C151.065 41.0333 151.626 40.9745 153.778 40.1413C155.683 39.4039 156.589 39.1269 157.65 38.9572C158.106 38.8843 158.056 38.7451 158.013 39.9689C157.866 44.2109 156.945 44.8721 153.98 42.8653C152.818 42.0791 152.802 42.38 153.889 44.5077C154.431 45.5687 154.986 46.4303 155.641 47.2267C155.889 47.5275 155.896 47.542 155.768 47.4923C155.184 47.265 155.131 47.7592 155.674 48.3769C156.443 49.2518 158.251 49.1961 159.205 48.2681C159.369 48.1093 159.632 47.8729 159.79 47.7427C161.727 46.1446 162.53 41.8789 161.399 39.1857C160.823 37.8134 163.363 37.6079 165.944 38.818C166.309 38.9892 166.899 39.2657 167.254 39.4323C167.609 39.599 168.001 39.773 168.125 39.8189L168.35 39.9024L168.573 39.6849C168.88 39.3872 169.084 39.2201 169.51 38.9187C169.845 38.6814 169.878 38.647 169.935 38.478C170.015 38.2384 170.024 37.6695 169.948 37.6397C169.844 37.599 169.785 37.44 169.733 37.0604C169.52 35.5102 168.22 34.9361 164.921 34.9354C163.398 34.9351 160.688 35.147 159.946 35.3245C159.327 35.4724 159.461 35.3223 160.716 34.4622C161.592 33.8622 161.631 33.8307 161.972 33.4335C162.402 32.9339 162.877 32.4923 163.934 31.6114C165.267 30.5011 165.771 29.9973 166.221 29.3252L166.424 29.0217L166.346 28.7744C166.189 28.2744 165.876 27.8418 165.074 27.0125L164.568 26.4893L164.26 26.434C164.091 26.4037 163.678 26.3197 163.342 26.2474C162.827 26.1366 162.637 26.1131 162.122 26.0968L161.512 26.0775L161.247 26.2183ZM135.398 31.4711C135.383 31.5976 135.297 31.6314 135.297 31.5107C135.297 31.4176 135.323 31.373 135.377 31.373C135.395 31.373 135.404 31.4172 135.398 31.4711ZM134.995 32.1494C135.033 32.1927 135.229 32.3075 135.431 32.4046C135.754 32.5593 135.882 32.6582 135.761 32.6582C135.688 32.6582 135.276 32.9703 134.371 33.7121C133.868 34.1248 133.333 34.547 133.183 34.6503C133.033 34.7537 132.822 34.9231 132.713 35.0266C132.291 35.4294 132.213 35.4514 131.936 35.2462C131.84 35.175 131.708 35.0814 131.641 35.0381L131.521 34.9595L131.741 34.8572C132.004 34.7351 132.846 33.9255 133.104 33.5464C133.736 32.62 134.752 31.8692 134.995 32.1494ZM144.073 34.0396C144.09 34.1771 144.129 34.2786 144.201 34.371C144.314 34.5171 144.331 34.6096 144.255 34.674C144.099 34.8067 143.971 34.5512 143.955 34.0719C143.941 33.6591 144.024 33.6364 144.073 34.0396ZM158.274 34.6652C158.25 34.6752 158.201 34.6759 158.166 34.6665C158.131 34.6572 158.151 34.649 158.21 34.6482C158.27 34.6475 158.298 34.6551 158.274 34.6652ZM130.163 42.1885C129.803 44.2886 129.67 44.4534 128.864 43.7988C128.584 43.5719 128.578 43.5867 129.269 42.8493C129.605 42.4906 129.92 42.1247 129.969 42.0361C130.312 41.4133 130.297 41.4018 130.163 42.1885ZM128.373 43.7322C128.428 43.7999 128.357 43.9498 128.229 44.0368C128.159 44.0849 128.155 44.0805 128.155 43.9388C128.155 43.6829 128.256 43.5876 128.373 43.7322ZM155.106 45.0875C155.169 45.1649 155.124 45.2533 155.022 45.2533C154.903 45.2533 154.831 45.1621 154.891 45.088C154.948 45.0176 155.049 45.0174 155.106 45.0875ZM155.411 45.2892C155.456 45.4985 155.27 45.6749 155.2 45.4889C155.167 45.4012 155.172 45.3814 155.252 45.2766C155.348 45.1519 155.382 45.1545 155.411 45.2892ZM155.597 47.8114C155.584 47.8249 155.562 47.8249 155.549 47.8114C155.536 47.798 155.547 47.7869 155.573 47.7869C155.599 47.7869 155.61 47.798 155.597 47.8114Z" fill="white"/>
<path fill-rule="evenodd" clip-rule="evenodd" d="M144.932 0.0682205C143.954 0.338482 143.343 0.988835 143.155 1.95998C142.566 4.99932 139.936 7.35584 135.875 8.48124C132.279 9.47791 129.49 11.1416 129.2 12.4636C129.117 12.8419 129.244 13.0179 129.906 13.4374C130.836 14.0268 132.023 15.0979 132.855 16.0973C133.133 16.4319 133.106 16.4219 133.215 16.2341C134.354 14.2698 139.119 13.035 145.56 13.035C151.977 13.035 156.478 14.1806 157.863 16.1664L158.026 16.401L158.113 16.2951C159.165 15.0175 160.348 13.9605 161.558 13.218C163.123 12.2573 159.848 9.80982 155.232 8.49167C151.184 7.33572 148.606 5.09607 147.966 2.1803C147.783 1.34436 147.742 1.24536 147.417 0.847719C146.887 0.19821 145.752 -0.158087 144.932 0.0682205ZM142.977 17.6396C137.619 17.8135 133.668 18.4469 131.448 19.4878L131.17 19.6183L131.169 20.0335L131.168 20.4486L128.325 21.752C124.425 23.5397 124.705 23.3812 124.6 23.8617C124.455 24.5255 124.608 24.6512 126.374 25.3128C127.877 25.8757 127.641 25.831 127.913 25.6048C129.345 24.4141 133.508 23.6386 139.962 23.3601C141.455 23.2957 149.398 23.2956 150.872 23.3601C157.491 23.6493 161.915 24.5014 162.999 25.6956C163.114 25.8231 162.998 25.8538 164.455 25.3088C166.094 24.6952 166.231 24.5966 166.231 24.0289C166.231 23.4306 166.358 23.5091 162.732 21.8676L159.646 20.4704L159.636 20.0463L159.626 19.6222L159.385 19.4986C156.821 18.1845 149.999 17.4117 142.977 17.6396Z" fill="#FFD571"/>
<path d="M3.198 28.336H6.409L7.059 30H9.048L5.356 20.9H4.303L0.559 30H2.548L3.198 28.336ZM4.81 24.15L5.785 26.633H3.822L4.81 24.15ZM20.4179 30H22.4459L20.2229 26.529C19.7029 25.71 19.4039 25.476 19.1179 25.346C19.3649 25.216 19.6509 24.969 20.1709 24.254L22.3159 20.9H20.2879L18.4939 23.708C18.1039 24.306 17.8829 24.527 17.2589 24.527H16.4789V20.9H14.6849V30H16.4789V26.256H17.3109C17.9349 26.256 18.1559 26.464 18.5459 27.075L20.4179 30ZM30.1044 28.336H33.3154L33.9654 30H35.9544L32.2624 20.9H31.2094L27.4654 30H29.4544L30.1044 28.336ZM31.7164 24.15L32.6914 26.633H30.7284L31.7164 24.15ZM50.4138 31.677V28.31H49.2178L46.2148 20.9H45.1488L42.1068 28.31H40.8978V31.677H42.6918V30H48.6198V31.677H50.4138ZM45.6558 24.189L47.2938 28.31H44.0308L45.6558 24.189ZM57.9621 24.579V22.59H62.2261V20.9H56.1681V30H62.2261V28.31H57.9621V26.269H61.9011V24.579H57.9621ZM77.2511 30V20.9H76.1851L72.7141 25.242L69.2561 20.9H68.1901V30H69.9841V24.189L72.7141 27.595L75.4571 24.189V30H77.2511ZM90.9201 30V20.9H89.8541L85.5511 26.633V20.9H83.7571V30H84.8101L89.1261 24.267V30H90.9201ZM103.832 30V20.9H100.738C98.1898 20.9 96.7988 22.408 96.7988 24.332C96.7988 25.684 97.5268 26.711 98.7618 27.192C98.3588 27.439 97.9688 27.907 97.3968 28.791L96.6168 30H98.6318L99.2168 29.09C99.9188 28.011 100.153 27.803 101.037 27.777H102.038V30H103.832ZM102.038 22.59V26.087H100.569C99.3988 26.087 98.4888 25.554 98.4888 24.332C98.4888 23.175 99.3988 22.59 100.569 22.59H102.038Z" fill="white"/>
<path d="M197.098 30H199.126L196.903 26.529C196.383 25.71 196.084 25.476 195.798 25.346C196.045 25.216 196.331 24.969 196.851 24.254L198.996 20.9H196.968L195.174 23.708C194.784 24.306 194.563 24.527 193.939 24.527H193.159V20.9H191.365V30H193.159V26.256H193.991C194.615 26.256 194.836 26.464 195.226 27.075L197.098 30ZM208.575 20.809C206.014 20.809 203.947 22.889 203.947 25.45C203.947 28.024 206.014 30.091 208.575 30.091C211.136 30.091 213.216 28.024 213.216 25.45C213.216 22.889 211.136 20.809 208.575 20.809ZM208.575 22.499C210.174 22.499 211.422 23.708 211.422 25.45C211.422 27.205 210.174 28.401 208.575 28.401C206.989 28.401 205.741 27.205 205.741 25.45C205.741 23.708 206.989 22.499 208.575 22.499ZM226.217 30V20.9H224.423V24.579H220.9V20.9H219.106V30H220.9V26.269H224.423V30H226.217ZM241.769 21.381C240.885 21.381 240.105 21.758 239.624 22.356V20.9H237.83V22.356C237.362 21.758 236.582 21.381 235.698 21.381C233.514 21.381 232.123 23.019 232.123 25.099C232.123 27.179 233.514 28.817 235.698 28.817C236.595 28.817 237.362 28.427 237.83 27.842V30H239.624V27.842C240.092 28.427 240.872 28.817 241.769 28.817C243.953 28.817 245.344 27.179 245.344 25.099C245.344 23.019 243.953 21.381 241.769 21.381ZM235.867 27.114C234.775 27.114 233.917 26.295 233.917 25.099C233.917 23.903 234.775 23.071 235.867 23.071C236.972 23.071 237.83 23.903 237.83 25.099C237.83 26.295 236.972 27.114 235.867 27.114ZM241.587 27.114C240.495 27.114 239.637 26.295 239.637 25.099C239.637 23.903 240.495 23.071 241.587 23.071C242.692 23.071 243.55 23.903 243.55 25.099C243.55 26.295 242.692 27.114 241.587 27.114ZM253.416 30L258.603 20.9H256.562L254.287 24.865L251.999 20.9H249.958L253.26 26.711L251.388 30H253.416ZM272.526 31.677V28.31H271.356V20.9H269.562V28.31H266.091V20.9H264.297V30H270.732V31.677H272.526ZM285.363 30V20.9H284.297L279.994 26.633V20.9H278.2V30H279.253L283.569 24.267V30H285.363ZM295.324 20.25C296.455 20.25 297.365 19.431 297.365 18.287H296.234C296.234 18.755 295.831 19.119 295.324 19.119C294.817 19.119 294.427 18.755 294.427 18.287H293.283C293.283 19.431 294.193 20.25 295.324 20.25ZM298.899 30V20.9H297.833L293.53 26.633V20.9H291.736V30H292.789L297.105 24.267V30H298.899Z" fill="white"/>
</svg>
