<svg width="612" height="612" viewBox="0 0 612 612" fill="none" xmlns="http://www.w3.org/2000/svg">
<path opacity="0.3" d="M209.883 110.48C211.747 108.118 214.619 106.779 217.626 106.87L260.659 108.164C262.361 108.215 264.049 107.852 265.579 107.105L304.272 88.2266C306.975 86.9073 310.145 86.9468 312.815 88.3331L351.024 108.171C352.535 108.955 354.214 109.36 355.917 109.352L398.968 109.13C401.977 109.115 404.815 110.526 406.619 112.933L432.438 147.385C433.459 148.747 434.795 149.841 436.333 150.571L475.217 169.051C477.935 170.343 479.88 172.845 480.461 175.797L488.774 218.039C489.103 219.71 489.833 221.275 490.901 222.6L517.917 256.122C519.805 258.464 520.471 261.563 519.714 264.474L508.876 306.14C508.447 307.788 508.426 309.515 508.813 311.173L518.609 353.096C519.293 356.025 518.55 359.106 516.604 361.401L488.761 394.238C487.66 395.537 486.892 397.083 486.521 398.745L477.157 440.767C476.503 443.703 474.496 446.156 471.747 447.38L432.414 464.885C430.859 465.577 429.495 466.637 428.441 467.973L401.772 501.77C399.908 504.132 397.035 505.472 394.028 505.381L350.995 504.087C349.294 504.035 347.605 504.399 346.075 505.145L307.383 524.024C304.679 525.343 301.51 525.304 298.84 523.918L260.63 504.08C259.119 503.296 257.44 502.89 255.738 502.899L212.686 503.12C209.678 503.136 206.839 501.725 205.035 499.318L179.217 464.866C178.196 463.504 176.859 462.41 175.321 461.679L136.437 443.199C133.72 441.908 131.775 439.405 131.194 436.453L122.88 394.211C122.551 392.541 121.821 390.976 120.753 389.65L93.7379 356.129C91.8499 353.786 91.1833 350.688 91.9406 347.776L102.778 306.11C103.207 304.463 103.228 302.736 102.841 301.078L93.0455 259.155C92.361 256.225 93.1047 253.144 95.0504 250.85L122.893 218.012C123.994 216.714 124.763 215.167 125.133 213.506L134.497 171.484C135.152 168.547 137.158 166.094 139.907 164.871L179.24 147.366C180.795 146.674 182.159 145.614 183.214 144.278L209.883 110.48Z" stroke="#E58E8E"/>
<path opacity="0.1" d="M205.843 101.818C207.707 99.456 210.579 98.1166 213.587 98.2071L258.809 99.5675C260.511 99.6186 262.199 99.2553 263.729 98.5089L304.391 78.6694C307.094 77.3501 310.264 77.3896 312.934 78.7759L353.088 99.6229C354.599 100.407 356.277 100.813 357.98 100.804L403.222 100.571C406.231 100.556 409.069 101.966 410.873 104.374L438.005 140.579C439.026 141.941 440.363 143.035 441.901 143.765L482.764 163.186C485.481 164.477 487.426 166.98 488.007 169.932L496.744 214.323C497.072 215.993 497.802 217.559 498.871 218.884L527.261 254.111C529.149 256.454 529.815 259.552 529.058 262.464L517.669 306.25C517.24 307.898 517.218 309.625 517.606 311.282L527.9 355.339C528.585 358.268 527.841 361.349 525.895 363.644L496.636 398.152C495.535 399.451 494.766 400.997 494.396 402.659L484.555 446.819C483.901 449.755 481.894 452.208 479.145 453.432L437.811 471.827C436.255 472.52 434.892 473.58 433.837 474.916L405.811 510.433C403.947 512.795 401.075 514.134 398.067 514.044L352.845 512.683C351.143 512.632 349.455 512.996 347.925 513.742L307.264 533.581C304.56 534.901 301.391 534.861 298.72 533.475L258.566 512.628C257.056 511.843 255.377 511.438 253.674 511.447L208.432 511.68C205.423 511.695 202.585 510.284 200.781 507.877L173.649 471.672C172.628 470.31 171.291 469.216 169.753 468.486L128.89 449.065C126.173 447.774 124.228 445.271 123.647 442.319L114.91 397.928C114.582 396.257 113.852 394.692 112.783 393.367L84.3935 358.14C82.5055 355.797 81.8389 352.699 82.5962 349.787L93.9855 306.001C94.4141 304.353 94.4356 302.626 94.0482 300.969L83.7541 256.912C83.0696 253.982 83.8133 250.902 85.759 248.607L115.018 214.099C116.119 212.8 116.888 211.254 117.258 209.592L127.099 165.432C127.753 162.495 129.76 160.042 132.509 158.819L173.843 140.423C175.399 139.731 176.762 138.671 177.817 137.335L205.843 101.818Z" stroke="#E58E8E"/>
<g clip-path="url(#clip0_229_1513)">
<path fill-rule="evenodd" clip-rule="evenodd" d="M265.794 113.688C225.409 122.376 159.294 161.936 159.294 177.411C159.294 179.253 164.823 175.345 171.58 168.73C178.337 162.115 183.865 158.45 183.865 160.587C183.865 162.725 185.401 163.522 187.281 162.358C192.149 159.34 196.483 167.695 192.527 172.475C190.727 174.649 190.131 176.429 191.203 176.429C192.275 176.429 186.937 184.079 179.341 193.428C171.746 202.778 163.333 214.687 160.649 219.891C157.968 225.095 154.985 228.566 154.024 227.602C153.063 226.639 153.843 223.959 155.759 221.643C159.162 217.529 157.645 213.384 152.737 213.384C151.383 213.384 151.18 215.807 152.289 218.773C154.07 223.547 153.692 223.664 148.975 219.814C146.045 217.424 144.748 214.653 146.097 213.655C148.827 211.635 151.177 201.066 148.895 201.066C143.784 201.066 133.75 229.361 137.924 232.006C144.149 235.954 150.08 235.634 150.08 231.347C150.08 229.373 150.774 228.452 151.625 229.302C152.473 230.156 150.252 239.046 146.686 249.064C142.433 261.022 139.653 278.095 138.6 298.778C137.718 316.101 135.78 329.524 134.296 328.604C129.772 325.802 119.846 330.378 118.384 335.942C117.545 339.136 116.87 338.009 116.651 333.06C116.446 328.354 117.911 324.994 120.134 325.077C132.924 325.552 134.723 324.12 134.723 313.47C134.723 304.746 133.553 302.692 128.581 302.692C125.202 302.692 122.438 301.436 122.438 299.902C122.438 298.365 125.202 297.835 128.581 298.719C133.753 300.077 134.723 298.815 134.723 290.734C134.723 279.693 121.108 276.179 118.411 286.525C117.64 289.487 116.956 287.063 116.894 281.135C116.833 275.207 117.478 272.09 118.328 274.206C121.486 282.053 137.795 278.829 137.795 270.357C137.795 265.565 136.053 262.658 133.188 262.658C130.654 262.658 128.602 265.085 128.627 268.047C128.667 272.654 129.109 272.765 131.652 268.816C134.195 264.869 134.637 264.979 134.677 269.586C134.705 273.029 132.386 274.976 128.252 274.976C123.614 274.976 122.309 273.596 123.645 270.103C124.671 267.424 125.509 263.96 125.509 262.404C125.509 260.85 128.829 259.578 132.887 259.578C141.803 259.578 150.077 241.876 143.207 237.504C139.214 234.96 134.911 233.94 130.884 234.578C126.323 235.298 138.255 209.186 148.308 196.446L153.167 190.287L151.171 196.446C149.543 201.469 149.933 201.903 153.271 198.799C156.549 195.753 158.573 196.061 163.385 200.339C167.793 204.253 169.031 204.505 168.008 201.284C167.237 198.867 163.926 195.402 160.646 193.585C157.369 191.771 154.036 189.865 153.241 189.351C152.445 188.833 153.787 187.177 156.223 185.668C158.659 184.159 159.641 181.91 158.407 180.669C154.214 176.466 131.345 213.408 122.475 238.719C60.1566 416.492 258.095 571.518 414.378 467.342C589.931 350.324 471.887 69.3576 265.794 113.688ZM285.715 123.306C284.293 130.293 283.767 130.697 282.714 125.616C282.014 122.228 279.871 118.437 277.953 117.193C275.868 115.838 277.07 114.911 280.954 114.883C286.407 114.843 287.165 116.186 285.715 123.306ZM306.168 121.766C304.97 130.21 288.292 133.992 288.292 125.819C288.292 123.167 290.712 121.018 293.667 121.042C298.262 121.082 298.372 121.526 294.435 124.076C290.746 126.466 291.277 127.069 297.098 127.109C302.863 127.146 304.033 125.88 302.758 120.996C301.876 117.609 302.5 114.837 304.15 114.837C305.799 114.837 306.705 117.954 306.168 121.766ZM332.624 125.616C330.8 135.372 331.273 136.394 337.603 136.394C341.452 136.394 343.743 137.253 342.695 138.303C336.918 144.096 325.376 136.197 328.309 128.458C332.151 118.329 332.21 118.609 325.916 116.959C321.948 115.921 322.388 115.459 327.59 115.194C334.025 114.868 334.464 115.779 332.624 125.616ZM264.596 123.149C263.494 126.028 262.09 126.869 261.475 125.018C260.858 123.164 257.311 122.225 253.592 122.927C247.206 124.131 247.173 124.039 252.971 121.276C262.673 116.654 266.827 117.322 264.596 123.149ZM351.958 119.777C350.939 120.799 348.289 120.91 346.074 120.02C343.623 119.038 344.351 118.308 347.929 118.16C351.166 118.027 352.979 118.754 351.958 119.777ZM325.149 125.616C325.149 128.156 322.731 130.213 319.774 130.189C315.178 130.149 315.068 129.705 319.006 127.155C322.943 124.605 322.833 124.162 318.238 124.122C315.28 124.097 312.863 126.053 312.863 128.47C312.863 130.885 315.28 133.496 318.238 134.272C321.195 135.045 313.938 135.59 302.113 135.483C286.615 135.338 284.687 134.962 295.203 134.131C307.212 133.182 309.792 131.919 309.792 126.986C309.792 122.65 311.911 120.996 317.471 120.996C322.249 120.996 325.149 122.742 325.149 125.616ZM368.147 124.251C371.959 126.866 371.71 127.257 366.723 126.515C362.976 125.954 360.273 127.654 359.588 131.005C358.894 134.389 360.35 136.394 363.498 136.394C366.253 136.394 367.656 135.008 366.612 133.315C365.568 131.621 366.179 130.235 367.967 130.235C369.754 130.235 371.22 132.409 371.22 135.07C371.22 144.441 357.435 138.975 357.088 129.465C356.765 120.611 360.369 118.914 368.147 124.251ZM241.454 127.402C236.524 130.281 236.466 131.294 240.766 139.628C243.342 144.623 244.334 148.713 242.974 148.713C241.61 148.713 238.828 144.281 236.788 138.864C233.056 128.945 235.366 124.088 243.757 124.217C245.446 124.242 244.411 125.674 241.454 127.402ZM279.077 128.695C279.077 131.784 276.277 133.176 270.632 132.896C262.683 132.502 262.622 132.394 269.594 131.076C275.327 129.992 276.022 129.052 272.665 126.924C269.157 124.695 269.354 124.162 273.703 124.122C276.657 124.097 279.077 126.154 279.077 128.695ZM352.549 129.465C352.404 132.683 351.683 133.305 350.758 131.005C349.904 128.889 346.212 127.177 342.554 127.202C337.13 127.242 336.752 127.802 340.505 130.235C343.272 132.027 343.654 133.238 341.454 133.268C336.967 133.324 333.813 128.732 336.494 126.044C340.926 121.603 352.788 124.128 352.549 129.465ZM261.025 135.781C262.514 139.819 262.324 142.553 260.551 142.553C258.914 142.553 257.579 139.634 257.579 136.065C257.579 131.414 256.202 130.106 252.719 131.445C250.048 132.474 246.939 133.413 245.809 133.53C244.681 133.65 246.522 135.024 249.9 136.585C255.656 139.243 255.671 139.375 250.155 138.679C242.335 137.691 240.419 131.128 247.427 129.33C255.797 127.183 258.287 128.369 261.025 135.781ZM383.505 130.235C386.398 132.11 386.724 133.238 384.38 133.268C376.837 133.364 373.289 145.731 379.423 150.554C384.469 154.524 384.202 154.613 376.788 151.438C368.977 148.09 368.787 147.521 373.212 140.742C375.786 136.807 377 132.138 375.909 130.37C373.434 126.355 377.409 126.284 383.505 130.235ZM222.258 135.384C210.451 141.666 210.54 141.571 212.847 145.316C214.048 147.262 217.135 146.15 220.832 142.442C224.149 139.116 228.1 136.394 229.607 136.394C234.364 136.394 235.889 145.048 231.434 146.76C228.643 147.835 227.77 146.849 228.898 143.902C230.123 140.699 229.159 139.966 225.541 141.358C218.345 144.127 221.502 150.311 229.936 149.96C236.588 149.682 236.669 149.901 231.343 153.809C223.95 159.226 220.722 159.044 220.722 153.212C220.722 149.427 219.361 149.744 213.949 154.798C210.227 158.278 205.82 160.67 204.161 160.116C199.078 158.416 198.697 152.654 203.544 150.788C206.861 149.513 207.586 150.468 206.17 154.259C204.447 158.872 204.846 158.977 209.527 155.155C213.212 152.149 213.86 149.84 211.637 147.61C205.921 141.879 217.073 130.481 228.401 130.481C230.09 130.481 227.325 132.686 222.258 135.384ZM408.076 144.355C408.076 145.257 406.484 145.011 404.537 143.804C402.593 142.6 399.101 144.219 396.776 147.404C393.459 151.952 391.417 152.479 387.261 149.849C380.166 145.362 380.44 137.672 387.651 138.91C391.3 139.535 392.553 138.618 391.152 136.345C389.955 134.399 393.268 135.036 398.524 137.758C403.776 140.484 408.076 143.449 408.076 144.355ZM278.055 138.448C276.929 139.575 275.085 139.575 273.958 138.448C272.834 137.318 273.755 136.394 276.006 136.394C278.258 136.394 279.179 137.318 278.055 138.448ZM363.787 144.872C361.869 146.794 346.648 141.937 346.648 139.406C346.648 138.045 350.743 138.479 355.746 140.373C360.749 142.267 364.367 144.29 363.787 144.872ZM338.97 144.127C451.37 167.895 505.675 296.742 444.333 394.129C380.071 496.155 225.096 493.192 164.058 388.769C92.3139 266.029 200.417 114.831 338.97 144.127ZM388.336 142.402C383.133 144.296 383.029 144.792 387.47 146.498C390.25 147.57 393.395 147.025 394.464 145.294C397.206 140.847 395.203 139.902 388.336 142.402ZM200.113 147.628C189.406 155.121 199.351 169.829 210.273 162.657C223.032 154.274 222.018 157.68 208.925 167.19C195.202 177.156 190.162 179.043 195.951 172.05C200.792 166.205 194.059 154.779 187.158 157.132C184.501 158.037 187.09 155.127 192.908 150.665C198.728 146.203 204.256 142.627 205.193 142.713C206.133 142.803 203.845 145.014 200.113 147.628ZM251.435 144.093C251.435 144.94 250.744 145.633 249.9 145.633C249.055 145.633 248.364 144.94 248.364 144.093C248.364 143.246 249.055 142.553 249.9 142.553C250.744 142.553 251.435 143.246 251.435 144.093ZM443.931 172.998C467.979 197.817 489.623 238.021 478.935 238.021C475.68 238.021 470.99 240.05 468.517 242.529C464.568 246.49 463.839 246.348 462.543 241.381C461.487 237.334 462.488 236.062 466.054 236.912C476.973 239.518 480.48 233.173 474.764 221.156C470.287 211.742 468.631 210.557 463.683 213.211C456.604 217.012 449.339 210.043 452.304 202.297C453.854 198.241 455.086 198.014 458.79 201.096C462.098 203.85 463.361 203.917 463.361 201.346C463.361 195.418 453.974 193.758 448.947 198.799C441.772 205.996 452.411 223.771 461.103 219.106C467.632 215.601 467.357 215.463 472.102 224.625C475.477 231.141 470.016 237.509 465.197 232.674C462.138 229.611 463.143 225.203 466.432 227.242C468.122 228.289 469.503 227.76 469.503 226.065C469.503 221.465 464.067 218.983 461.856 222.573C458.32 228.305 454.868 225.828 445.082 210.541C435.74 195.938 418.719 178.471 401.309 165.619C391.18 158.142 396.915 144.032 407.391 150.656C414.486 155.143 414.213 162.832 407.001 161.594C403.588 161.009 402.126 161.933 403.343 163.904C406.334 168.761 411.485 167.901 415.948 161.801C419.228 157.32 419.025 155.404 414.753 150.44C405.004 139.116 429.299 157.899 443.931 172.998ZM400.189 155.21C399.12 156.944 399.077 159.192 400.091 160.209C401.103 161.225 401.933 160.483 401.933 158.561C401.933 156.639 404.006 155.863 406.541 156.836C409.074 157.813 411.147 157.917 411.147 157.07C411.147 153.782 402.025 152.232 400.189 155.21ZM389.647 156.411C389.647 157.258 388.956 157.951 388.112 157.951C387.267 157.951 386.576 157.258 386.576 156.411C386.576 155.565 387.267 154.872 388.112 154.872C388.956 154.872 389.647 155.565 389.647 156.411ZM417.76 164.502C414.029 170.491 414.938 172.33 428.439 186.074L443.197 201.096L449.339 194.937L455.483 188.778L440.341 173.365C422.981 155.694 423.193 155.777 417.76 164.502ZM177.723 166.86C177.723 170.71 186.393 173.645 188.356 170.457C189.246 169.016 187.794 166.996 185.131 165.974C178.693 163.495 177.723 163.611 177.723 166.86ZM431.175 168.397C436.161 172.053 436.415 173.417 432.896 177.67C429.106 182.249 428.429 182.212 424.662 177.233C416.251 166.121 420.401 160.495 431.175 168.397ZM423.433 169.906C423.433 171.6 424.815 173.842 426.504 174.889C428.193 175.936 429.575 175.406 429.575 173.713C429.575 172.019 428.193 169.777 426.504 168.73C424.815 167.683 423.433 168.212 423.433 169.906ZM165.612 178.443C156.303 190.312 165.474 202.399 175.874 191.968C180.475 187.355 181.193 184.836 178.638 182.274C174.94 178.566 168.509 180.953 168.509 186.031C168.509 187.725 170.106 188.122 172.056 186.915C174.341 185.498 174.762 186.074 173.245 188.541C171.537 191.309 169.958 191.433 167.526 188.993C162.028 183.481 172.916 174.23 178.97 179.268C181.516 181.387 185.143 182.16 187.032 180.99C189.16 179.669 187.33 177.23 182.207 174.566C171.819 169.161 173.137 168.853 165.612 178.443ZM439.77 182.24C438.937 185.437 439.99 189.129 442.116 190.444C444.933 192.19 445.371 191.245 443.738 186.943C442.027 182.446 442.349 181.898 445.098 184.63C451.379 190.878 445.098 196.012 438.495 190.019C434.059 185.994 433.488 183.743 436.106 180.58C440.743 174.978 441.566 175.351 439.77 182.24ZM301.481 200.582C299.752 201.694 297.384 205.663 296.219 209.399C293.737 217.384 277.505 231.861 271.041 231.861C265.011 231.861 242.222 243.662 242.222 246.785C242.222 256.282 257.093 263.116 265.598 257.53C277.226 249.892 331.07 249.381 345.364 256.775C354.323 261.407 355.278 261.314 363.129 255.036C373.609 246.656 369.361 241.821 342.763 231.858C328.533 226.528 323.711 222.866 318.192 213.199C310.943 200.502 306.647 197.256 301.481 200.582ZM154.902 203.794C153.557 205.977 153.877 209.183 155.609 210.92C159.064 214.385 165.437 211.752 165.437 206.861C165.437 205.168 164.172 204.564 162.627 205.522C161.082 206.479 159.264 205.589 158.582 203.545C157.648 200.733 156.751 200.795 154.902 203.794ZM456.284 209.229C457.076 211.302 459.684 212.241 462.079 211.321C468.306 208.925 467.452 205.466 460.639 205.466C457.334 205.466 455.464 207.083 456.284 209.229ZM147.27 223.999C150.369 222.08 151.168 226.666 148.244 229.595C144.641 233.207 138.2 228.231 140.089 223.294C141.327 220.057 142.426 219.614 143.228 222.028C143.907 224.07 145.725 224.957 147.27 223.999ZM460.289 230.322C460.289 231.169 459.598 231.861 458.754 231.861C457.908 231.861 457.217 231.169 457.217 230.322C457.217 229.474 457.908 228.782 458.754 228.782C459.598 228.782 460.289 229.474 460.289 230.322ZM131.836 240.805C135.811 234.353 141.975 241.984 139.389 250.158C137.782 255.223 135.752 256.28 130.635 254.705C121.673 251.947 121.827 252.254 124.45 242.234C126.259 235.329 127.03 234.676 127.982 239.237C128.949 243.866 129.748 244.189 131.836 240.805ZM134.723 243.995C134.723 246.219 132.724 247.148 130.116 246.144C127.582 245.172 125.509 245.568 125.509 247.025C125.509 248.485 127.635 250.499 130.233 251.497C135.027 253.341 140.243 245.609 136.64 241.993C135.586 240.937 134.723 241.84 134.723 243.995ZM484.86 254.296C484.86 255.824 482.096 257.801 478.717 258.685C475.151 259.621 472.442 263.054 472.262 266.867C472.068 270.886 470.965 269.257 469.423 262.679C468.038 256.763 467.488 251.334 468.204 250.616C468.916 249.899 469.503 250.931 469.503 252.904C469.503 254.882 471.576 256.498 474.111 256.498C476.644 256.498 478.696 254.071 478.671 251.109C478.634 246.982 478.014 246.68 476.027 249.827C473.92 253.159 473.09 253.053 471.638 249.255C469.147 242.745 476.347 240.755 481.021 246.662C483.134 249.332 484.86 252.765 484.86 254.296ZM486.939 263.153C484.105 264.742 481.81 268.401 481.835 271.281C481.874 275.785 482.299 275.872 484.86 271.896C487.403 267.949 487.846 268.059 487.886 272.666C487.944 279.386 480.035 279.78 477.51 273.183C474.515 265.355 475.262 263.477 482.08 261.691C487.465 260.277 488.233 258.337 486.798 249.781L485.084 239.56L488.585 249.911C491.571 258.737 491.328 260.69 486.939 263.153ZM121.464 263.237C120.485 265.691 119.757 264.961 119.609 261.373C119.477 258.128 120.202 256.311 121.222 257.333C122.241 258.356 122.352 261.013 121.464 263.237ZM276.006 268.893C251.709 272.272 220.688 289.718 228.624 295.538C231.781 297.854 236.481 298.864 239.061 297.786C257.713 289.989 336.279 287.383 360.47 293.758C381.152 299.209 394.32 296.493 382.356 289.243C379.189 287.325 371.846 282.619 366.035 278.785C349.33 267.764 312.909 263.763 276.006 268.893ZM493.1 272.475C492.121 274.93 491.393 274.2 491.246 270.612C491.113 267.366 491.838 265.549 492.858 266.571C493.878 267.594 493.988 270.252 493.1 272.475ZM476.291 292.471C474.166 303.625 472.553 300.888 472.79 286.525C472.943 277.264 473.687 275.176 475.33 279.383C476.607 282.653 477.04 288.544 476.291 292.471ZM496.922 304.232C496.793 322.667 492.029 353.628 491.356 340.417C491.163 336.608 489.276 333.444 487.164 333.396C485.033 333.343 485.717 331.905 488.699 330.162C496.927 325.358 496.147 305.772 487.729 305.772C482.652 305.772 481.577 304.12 482.354 297.54C483.41 288.59 491.003 283.587 491.003 291.84C491.003 294.62 489.621 296.04 487.932 294.993C486.243 293.946 484.86 295.252 484.86 297.891C484.86 300.53 486.934 302.692 489.467 302.692C497.751 302.692 495.478 284.257 487.164 283.999C480.616 283.793 480.573 283.654 486.396 281.338C494.944 277.941 497.075 282.576 496.922 304.232ZM130.777 289.284C131.351 291.012 129.711 292.428 127.131 292.428C124.551 292.428 122.438 290.463 122.438 288.064C122.438 283.275 129.103 284.248 130.777 289.284ZM123.393 306.354C132.051 307.589 134.963 321.296 126.492 320.926C123.264 320.785 122.527 320.027 124.741 319.131C126.851 318.274 128.581 315.614 128.581 313.215C128.581 307.832 117.392 307.401 115.257 312.7C114.406 314.819 113.761 311.699 113.823 305.772C113.884 299.844 114.551 297.333 115.303 300.195C116.056 303.052 119.698 305.824 123.393 306.354ZM243.757 307.478C237 311.605 229.009 314.985 226.002 314.995C222.992 315.004 219.727 317.107 218.747 319.669C216.321 326.008 223.673 334.24 230.224 332.521C233.742 331.597 236.124 333.328 237.24 337.611C239.252 345.322 228.609 358.125 220.187 358.125C211.388 358.125 213.624 366.711 223.793 371.983C229.165 374.77 233.007 379.22 233.007 382.66C233.007 392.062 238.981 393.236 247.243 385.449C253.896 379.183 254.79 375.949 254.157 360.413C253.69 348.923 254.851 341.231 257.421 338.8C260.678 335.721 261.049 337.947 259.427 350.903C255.383 383.266 289.124 404.851 310.402 383.516L317.022 376.879L308.13 354.734C295.457 323.171 290.068 318.533 289.026 338.298C287.878 360.04 285.743 367.363 280.555 367.363C275.183 367.363 274.542 355.504 279.063 339.697C282.901 326.278 280.448 318.09 272.594 318.09C268.693 318.09 266.844 316.322 267.425 313.147C269.406 302.307 257.072 299.35 243.757 307.478ZM349.885 307.699C342.26 311.756 335.444 313.683 334.449 312.069C331.613 307.469 324.433 313.646 325.615 319.669C327.861 331.126 336.528 332.431 346.538 322.818C356.369 313.372 358.2 314.114 352.305 325.157C346.19 336.617 319.006 354.26 319.006 346.77C319.006 345.563 317.28 346.33 315.166 348.476C307.592 356.178 320.499 361.49 334.633 356.49L346.648 352.24V361.339C346.648 371.45 345.893 371.902 336.97 367.114C326.067 361.263 330.551 381.178 342.041 389.645C351.891 396.9 365.924 379.503 364.521 361.78L363.457 348.399L372.715 350.281C391.835 354.161 394.218 353.77 395.234 346.582C396.475 337.83 383.544 332.216 368.611 335.028L358.258 336.974L369.345 327.212C382.857 315.318 377.967 289.937 364.109 300.025C363.796 300.253 357.395 303.709 349.885 307.699ZM491.003 316.55C491.003 321.342 489.261 324.249 486.396 324.249C483.862 324.249 481.81 321.825 481.835 318.86C481.874 314.253 482.317 314.142 484.86 318.09C487.403 322.038 487.846 321.927 487.886 317.32C487.913 313.97 485.61 311.931 481.788 311.931C474.893 311.931 472.769 325.853 479.329 328.047C481.635 328.816 481.058 330.03 477.793 331.286C472.449 333.343 469.722 315.82 474.623 310.906C480.222 305.288 491.003 309.005 491.003 316.55ZM257.579 328.493C257.579 329.13 255.158 331.557 252.203 333.882C247.333 337.71 247.225 337.602 251.043 332.718C255.056 327.588 257.579 325.958 257.579 328.493ZM134.723 341.186C134.723 346.721 133.068 348.886 128.836 348.886C125.598 348.886 122.254 350.62 121.4 352.735C120.475 355.035 119.754 354.414 119.609 351.196C119.456 347.777 121.615 345.807 125.509 345.807C129.103 345.807 131.652 343.752 131.652 340.857C131.652 337.722 129.963 336.558 127.045 337.683C124.511 338.655 122.438 338.11 122.438 336.473C122.438 334.831 125.202 333.487 128.581 333.487C133.086 333.487 134.723 335.542 134.723 341.186ZM139.893 340.226C138.913 342.681 138.185 341.951 138.037 338.363C137.905 335.117 138.63 333.3 139.65 334.322C140.67 335.345 140.78 338.003 139.893 340.226ZM487.886 340.417C487.8 347.49 482.467 352.886 477.464 350.961C473.957 349.61 471.181 351.938 467.897 358.981C465.351 364.438 464.079 366.131 465.065 362.744C466.054 359.356 467.632 352.75 468.576 348.066C470.1 340.503 470.71 340.124 474.037 344.688C476.101 347.516 479.377 348.839 481.322 347.636C486.77 344.261 485.511 339.592 479.75 341.806C476.313 343.13 475.366 342.595 476.859 340.17C479.817 335.373 487.944 335.554 487.886 340.417ZM143.938 352.147C143.938 353.94 142.835 354.725 141.487 353.89C137.368 351.338 130.709 357.186 133.179 361.188C134.957 364.074 136.099 363.975 138.133 360.763C140.227 357.45 140.783 357.632 140.82 361.644C140.881 368.373 132.644 371.318 130.371 365.377C127.242 357.198 128.424 352.459 133.956 351.007C142.952 348.652 143.938 348.762 143.938 352.147ZM486.629 367.724C471.555 412.163 422.935 467.413 390.658 476.788C387.568 477.684 388.238 476.741 392.144 474.687C398.644 471.272 399.691 459.557 394.005 453.853C390.738 450.58 389.494 456.786 392.344 462.128C394.995 467.093 394.267 468.698 388.097 471.515C379.604 475.396 374.254 470.856 380.267 464.872C383.013 462.141 383.379 462.579 381.81 466.715C380.243 470.837 380.937 471.682 384.699 470.234C389.697 468.312 391.266 462.403 387.722 458.849C386.662 457.787 381.699 459.043 376.687 461.642C371.677 464.238 367.101 465.885 366.516 465.304C365.934 464.718 374.611 459.483 385.792 453.668C411.353 440.38 437.727 414.638 451.33 389.706C458.874 375.878 463.121 370.997 466.432 372.346C478.423 377.227 481.264 376.956 483.226 370.751C486.638 359.973 478.352 352.773 474.405 363.086C473.066 366.582 473.831 367.539 476.991 366.323C479.93 365.192 480.913 366.066 479.841 368.867C478.944 371.213 476.172 372.349 473.68 371.391C471.189 370.433 469.921 367.634 470.864 365.173C471.803 362.713 472.575 359.277 472.575 357.539C472.575 355.704 475.797 355.189 480.253 356.31C485.21 357.558 487.932 356.948 487.932 354.589C487.932 352.581 488.669 351.679 489.568 352.581C490.472 353.484 489.147 360.299 486.629 367.724ZM124.487 363.259C123.359 364.385 122.438 363.461 122.438 361.204C122.438 358.947 123.359 358.023 124.487 359.15C125.611 360.28 125.611 362.128 124.487 363.259ZM145.986 363.259C144.859 364.385 143.938 363.461 143.938 361.204C143.938 358.947 144.859 358.023 145.986 359.15C147.11 360.28 147.11 362.128 145.986 363.259ZM139.254 371.037C149.03 366.572 150.08 366.513 150.08 370.443C150.08 372.137 149.045 373.359 147.777 373.159C135.341 371.189 130.439 377.634 136.066 388.545C140.147 396.463 142.396 397.891 148.388 396.383C153.8 395.022 156.592 396.173 159.052 400.783C163.02 408.221 157.811 413.317 152.117 407.564C149.392 404.808 150 404.497 154.687 406.253C160.065 408.264 160.323 407.924 156.767 403.54C151.032 396.465 143.028 399.942 147.172 407.706C154.374 421.194 146.705 412.214 138.363 397.389C129.453 381.551 121.633 360.763 128.16 370.267C130.648 373.889 132.702 374.031 139.254 371.037ZM239.15 368.903C239.15 369.75 238.459 370.443 237.614 370.443C236.77 370.443 236.079 369.75 236.079 368.903C236.079 368.056 236.77 367.363 237.614 367.363C238.459 367.363 239.15 368.056 239.15 368.903ZM458.566 383.125C454.149 391.686 454.143 393.054 458.505 397.886C464.884 404.953 457.329 417.835 450.666 411.248C447.528 408.14 447.574 406.656 450.912 403.549C454.291 400.407 454.703 400.688 453.16 405.088C450.918 411.479 455.801 412.464 458.231 406.114C460.79 399.425 450.884 397.248 446.311 403.496C442.279 409.009 447.794 419.716 454.669 419.716C461.244 419.716 469.39 400.294 464.358 396.607C459.398 392.97 461.048 379.682 466.456 379.682C471.284 379.682 473.348 386.296 469.669 389.959C466.92 392.69 466.582 392.08 468.238 387.381C470.019 382.321 469.669 381.908 466.269 385.071C463.059 388.058 462.955 389.746 465.805 392.603C469.199 396.007 478.279 388.838 478.619 382.487C479.076 373.969 463.026 374.48 458.566 383.125ZM147.009 379.863C147.009 381.656 145.627 382.268 143.938 381.221C142.248 380.175 140.866 380.705 140.866 382.398C140.866 387.535 147.021 389.662 151.386 386.035C154.604 383.356 157.587 385.89 165.198 397.783C174.737 412.692 194.889 433.257 213.043 446.617C218.111 450.346 220.531 453.441 218.418 453.493C216.308 453.548 214.579 454.978 214.579 456.671C214.579 458.366 215.614 459.477 216.883 459.141C228.188 456.148 236.966 467.721 226.373 471.651C220.737 473.739 220.498 474.404 224.788 476.054C231.29 478.555 238.004 467.33 233.364 461.719C231.417 459.369 237.636 460.327 249.679 464.226C260.379 467.693 267.917 470.991 266.427 471.555C261.298 473.502 263.567 484.388 269.096 484.341C273.691 484.302 273.801 483.858 269.864 481.308C265.926 478.759 266.037 478.315 270.632 478.275C273.586 478.25 276.006 480.308 276.006 482.848C276.006 487.612 270.684 488.77 262.775 485.728C260.1 484.699 258.887 481.582 259.796 478.084C261.42 471.86 248.051 464.189 240.582 467.065C235.811 468.897 232.587 481.308 236.877 481.308C238.69 481.308 239.39 482.094 238.432 483.054C237.473 484.015 229.641 481.222 221.026 476.843C206.317 469.368 200.991 464.937 208.82 466.68C210.721 467.105 212.908 465.716 213.685 463.597C214.518 461.319 213.378 460.407 210.887 461.365C208.578 462.255 203.771 460.26 200.208 456.933C196.648 453.605 192.954 451.664 192.001 452.619C191.049 453.577 193.319 457.035 197.051 460.308L203.829 466.259L196.504 462.673C181.273 455.221 148.76 418.801 155.206 416.412C167.074 412.009 168.76 406.277 161.045 396.573C154.994 388.963 153.136 388.178 149.122 391.52C143.885 395.877 135.59 385.754 139.37 379.617C141.846 375.598 147.009 375.765 147.009 379.863ZM153.152 378.142C153.152 378.989 152.461 379.682 151.616 379.682C150.771 379.682 150.08 378.989 150.08 378.142C150.08 377.296 150.771 376.602 151.616 376.602C152.461 376.602 153.152 377.296 153.152 378.142ZM161.146 416.285C156.165 421.804 156.294 422.405 163.742 428.278C168.054 431.678 171.58 435.9 171.58 437.658C171.58 439.417 175.57 443.703 180.444 447.183L189.311 453.515L194.204 446.622C197.478 442.013 198.494 441.526 197.281 445.157C195.957 449.111 196.725 450.1 200.107 448.797C202.656 447.815 205.789 448.708 207.064 450.777C208.55 453.185 208.108 453.752 205.841 452.345C203.891 451.138 202.294 451.534 202.294 453.229C202.294 458.568 209.005 460.728 211.83 456.296C213.768 453.262 211.262 449.423 203.04 442.829C196.719 437.757 186.47 428.401 180.266 422.042C167.13 408.569 167.903 408.802 161.146 416.285ZM434.492 419.375C429.415 424.999 434.585 435.222 439.84 429.956C443.384 426.402 442.008 422.349 438.022 424.607C435.08 426.272 435.018 425.873 437.754 422.901C439.717 420.767 442.917 420.009 444.864 421.213C451.544 425.355 439.063 435.478 431.971 431.671C423.331 427.037 409.937 439.41 414.446 447.858C418.169 454.83 424.394 455.233 429.683 448.843C434.951 442.478 428.58 434.88 422.818 440.658C419.953 443.53 419.992 444.353 423 444.353C425.125 444.353 425.939 445.859 424.803 447.7C423.344 450.066 421.78 450.088 419.473 447.774C413.457 441.742 426.274 430.871 432.613 436.623C437.994 441.504 451.075 432.189 451.075 423.477C451.075 416.172 439.88 413.404 434.492 419.375ZM174.759 421.386C177.867 425.143 177.901 426.913 174.915 429.854C172.839 431.903 171.405 432.189 171.724 430.495C172.879 424.397 171.525 419.716 168.604 419.716C166.97 419.716 166.408 422.14 167.36 425.105C168.77 429.5 168.505 429.669 165.929 426.024C159.853 417.422 167.956 413.166 174.759 421.386ZM182.793 433.476C181.841 435.961 182.385 438.817 184.001 439.817C185.616 440.818 186.937 439.891 186.937 437.759C186.937 434.745 187.757 434.705 190.622 437.578C193.448 440.411 193.463 442.121 190.696 444.895C185.321 450.285 173.251 438.976 178.11 433.106C182.637 427.637 184.956 427.822 182.793 433.476ZM400.271 448.893C394.426 453.38 394.464 453.49 401.595 452.782C410.232 451.923 413.727 458.1 406.236 460.983C401.708 462.723 401.595 462.326 405.339 457.78C409.024 453.303 408.979 452.801 405.004 454.119C399.756 455.859 398.781 463.318 403.592 464.925C412.477 467.894 419.117 457.324 412.557 450.651C406.881 444.877 405.72 444.711 400.271 448.893ZM226.864 455.132C226.864 455.979 226.173 456.671 225.329 456.671C224.484 456.671 223.793 455.979 223.793 455.132C223.793 454.285 224.484 453.592 225.329 453.592C226.173 453.592 226.864 454.285 226.864 455.132ZM215.989 466.117C213.172 470.684 215.82 472.58 221.8 470.28C224.567 469.215 226.067 467.105 225.129 465.587C222.832 461.858 218.458 462.11 215.989 466.117ZM358.934 467.45C358.934 468.297 358.243 468.99 357.398 468.99C356.553 468.99 355.863 468.297 355.863 467.45C355.863 466.603 356.553 465.911 357.398 465.911C358.243 465.911 358.934 466.603 358.934 467.45ZM255.886 482.337C256.276 491.233 255.972 491.406 246.829 487.467C241.577 485.204 241.466 484.788 246.061 484.603C252.63 484.338 253.198 476.486 246.829 474.035C244.294 473.061 242.222 473.489 242.222 474.988C242.222 476.489 243.951 478.414 246.061 479.27C248.828 480.387 248.88 480.889 246.242 481.066C241.601 481.373 238.223 476.064 240.603 472.205C244.205 466.36 255.517 473.859 255.886 482.337ZM354.278 474.992C355.481 478.802 357.896 480.332 360.884 479.184C364.698 477.715 364.815 476.877 361.495 474.767C358.356 472.775 358.657 472.153 362.773 472.116C365.731 472.091 368.147 474.148 368.147 476.689C368.147 479.23 366.879 481.308 365.329 481.308C363.777 481.308 360.322 482.149 357.65 483.177C354.502 484.388 352.791 483.359 352.791 480.252C352.791 477.612 350.374 474.044 347.416 472.316C342.514 469.452 342.495 469.169 347.21 469.082C350.052 469.034 353.233 471.691 354.278 474.992ZM376.001 483.51C372.528 485.567 367.611 487.212 365.076 487.162C362.543 487.116 363.676 485.789 367.592 484.213C373.05 482.02 374.235 479.83 372.666 474.866C370.667 468.547 370.761 468.525 376.465 474.074C382.218 479.673 382.212 479.833 376.001 483.51ZM285.989 474.109C275.269 478.447 281.839 493.627 294.435 493.627C304.672 493.627 306.721 492.601 306.721 487.467C306.721 482.95 308.769 481.308 314.399 481.308C319.178 481.308 322.077 483.054 322.077 485.928C322.077 488.468 319.66 490.525 316.702 490.501C312.107 490.46 311.997 490.018 315.934 487.467C319.872 484.917 319.762 484.475 315.166 484.434C312.209 484.41 309.792 486.617 309.792 489.343C309.792 493.195 312.191 494.021 320.542 493.041C326.454 492.349 331.292 492.891 331.292 494.246C331.292 496.999 288.2 497.661 281.32 495.012C278.472 493.916 277.448 490.537 278.417 485.447C279.33 480.671 278.242 476.51 275.659 474.868C272.686 472.981 274.186 472.223 280.614 472.359C285.682 472.467 288.102 473.255 285.989 474.109ZM333.595 474.191C330.637 474.967 328.109 478.617 327.977 482.303C327.846 485.99 327.023 487.231 326.153 485.056C323.632 478.762 327.542 472.039 333.5 472.427C338.625 472.762 338.632 472.873 333.595 474.191ZM304.401 482.848C302.7 491.776 285.221 494.582 285.221 485.928C285.221 483.387 287.641 481.33 290.595 481.354C295.191 481.395 295.301 481.839 291.363 484.388C287.675 486.778 288.206 487.382 294.026 487.421C299.791 487.459 300.962 486.192 299.687 481.308C298.704 477.542 299.595 475.149 301.976 475.149C304.473 475.149 305.341 477.912 304.401 482.848ZM349.72 483.03C349.72 485.472 352.137 487.594 355.094 487.745C358.052 487.899 355.825 489.361 350.15 491C344.477 492.638 339.062 493.204 338.122 492.263C337.18 491.32 338.715 490.547 341.528 490.547C344.345 490.547 346.648 488.468 346.648 485.928C346.648 483.126 343.93 481.395 339.737 481.524C333.143 481.731 333.11 481.863 338.97 484.388C344.829 486.914 344.796 487.046 338.202 487.252C334.157 487.378 331.292 485.642 331.292 483.064C331.292 480.641 334.403 478.142 338.202 477.514C346.909 476.076 349.72 477.422 349.72 483.03ZM268.841 492.601C267.714 493.728 265.871 493.728 264.744 492.601C263.62 491.471 264.541 490.547 266.793 490.547C269.044 490.547 269.965 491.471 268.841 492.601Z" fill="url(#paint0_linear_229_1513)"/>
</g>
<defs>
<linearGradient id="paint0_linear_229_1513" x1="305.202" y1="108.989" x2="305.202" y2="500.989" gradientUnits="userSpaceOnUse">
<stop stop-color="#E58E8E"/>
<stop offset="1" stop-color="#FFC4C4"/>
</linearGradient>
<clipPath id="clip0_229_1513">
<rect width="389" height="463.528" fill="white" transform="translate(110.702 80.8828)"/>
</clipPath>
</defs>
</svg>
