<svg width="570" height="567" viewBox="0 0 570 567" fill="none" xmlns="http://www.w3.org/2000/svg">
<path fill-rule="evenodd" clip-rule="evenodd" d="M74.6201 105.823C68.37 116.072 77.8622 130.723 87.3772 125.513C93.9844 121.896 92.7959 112.116 86.0219 114.361C83.1936 115.298 81.9742 114.243 82.138 110.999C82.6385 101.081 93.6648 100.468 99.7419 110.02C102.191 113.87 103.147 117.919 103.672 126.664C104.333 137.665 106.232 143.42 110.422 147.11L111.562 148.114L114.664 147.058C119.209 145.509 119.317 145.421 118.508 143.933C109.554 127.453 125.188 104.3 140.127 111.918C147.817 115.84 156.394 117.152 164.776 115.691L167.513 115.214L163.754 111.17C157.627 104.58 156.957 101.625 160.73 97.8514C163.565 95.0167 165.486 95.466 171.506 100.371C177.677 105.4 178.79 105.787 183.694 104.608C192.853 102.406 202.468 104.754 206.871 110.267C207.942 111.609 208.194 110.958 207.676 108.183C205.929 98.8148 196.495 89.8648 184.183 85.895C177.821 83.844 166.064 81.5694 165.377 82.2566C164.917 82.7166 168.916 88.7444 172.084 92.3654L174.352 94.958L172.758 94.1435C169.366 92.4107 164.313 87.0599 162.434 83.2105L161.638 81.5819L160.096 81.6625C147.34 82.3295 135.502 85.4602 129.05 89.8729L128.053 90.5547L130.362 92.5604C134.514 96.167 139.718 99.1754 144.437 100.696C147.498 101.683 147.345 101.784 143.43 101.359C137.644 100.731 133.152 98.5748 128.723 94.3022C125.638 91.3257 126.193 91.4207 123.182 93.3523C117.735 96.8468 111.429 103.224 109.412 107.276C108.391 109.33 108.39 109.331 108.045 108.759C103.822 101.754 99.4814 96.9802 96.346 95.8915C89.7287 93.5941 79.1196 98.4438 74.6201 105.823ZM50.2925 138.711C48.4746 144.885 48.706 151.263 50.9204 156.017L51.7189 157.73L49.2438 157.73C40.2695 157.73 30.1905 166.168 29.0533 174.632L28.8686 176.007L30.3182 175.148C32.8093 173.673 35.1726 173.667 39.0151 175.129C48.7118 178.819 53.1146 178.85 58.9517 175.272L59.6978 174.815L57.2341 172.344C54.1066 169.207 50.9757 164.252 51.6773 163.551C51.7217 163.506 53.5596 165.376 55.7615 167.706L59.7647 171.942L66.2649 171.646C73.3684 171.322 76.2905 171.438 79.7248 172.181L81.9776 172.668L82.2616 170.393C83.007 164.427 83.3031 162.605 83.7421 161.28C84.3062 159.577 84.2355 159.44 85.1552 164.021C85.5585 166.032 87.2275 171.851 88.864 176.953C93.4964 191.396 93.8642 193.396 93.83 203.945C93.7956 214.41 94.511 215.987 99.3227 216.059L102.122 216.101L101.293 213.655C99.2103 207.506 100.816 202.317 108.399 190.689C116.487 178.287 118.583 172.41 116.173 168.888C114.606 166.597 113.57 166.925 112.991 169.895C112.288 173.495 110.638 175.981 104.35 182.92L101.644 185.904L101.817 183.451C101.912 182.102 101.952 178.301 101.906 175.005C101.796 167.076 102.287 166.319 108.856 164.297C115.015 162.401 116.875 162.814 121.68 167.141C125.5 170.581 126.842 171.552 133.229 175.494C143.706 181.959 147.016 186.997 143.664 191.375C142.475 192.927 142.589 193.031 144.969 192.573C151.669 191.284 156.753 183.565 155.415 176.715L155.061 174.905L157.12 175.285C161.527 176.098 167.02 174.958 170.891 172.428C172.599 171.31 178.255 166.004 178.004 165.754C177.945 165.694 176.559 165.447 174.925 165.204C167.89 164.158 159.97 160.413 155.644 156.087C154.997 155.44 154.395 154.985 154.304 155.075C154.214 155.166 154.94 156.065 155.918 157.074C157.189 158.387 158.084 159.644 159.059 161.488C160.136 163.525 162.022 166.931 162.57 167.83C162.838 168.269 161.031 167.184 159.728 166.123C157.066 163.955 154.92 160.329 154.807 157.806C154.695 155.289 136.722 149.448 134.85 151.32C134.555 151.615 135.756 154.696 138.226 159.986L139.899 163.568L136.836 160.281C133.408 156.602 131.795 154.281 130.738 151.504L130.021 149.62L127.748 149.441C118.975 148.749 108.465 152.76 101.91 159.302L100.68 160.529L98.8242 159.822C94.9878 158.362 92.1749 155.586 91.7169 152.808C90.8395 147.486 90.7551 147.222 89.5447 146.012C86.7217 143.189 80.3208 145.528 77.5749 150.387C76.7559 151.836 76.7666 151.843 74.76 148.707C71.3186 143.33 69.4892 142.036 64.1254 141.185C59.8941 140.514 55.3036 138.878 53.0516 137.238C52.0685 136.522 51.2136 135.991 51.1519 136.056C51.0899 136.121 50.7032 137.316 50.2925 138.711ZM124.758 64.6474C122.309 68.1654 121.357 72.0555 122.102 75.4933C122.493 77.2975 122.478 77.7885 122.022 78.0393C117.873 80.324 117.486 80.6054 115.425 82.8357C111.24 87.3656 110.721 92.3262 114.079 95.697L115.183 96.805L119.228 93.3001C123.718 89.4096 127.219 86.938 130.459 85.3709L132.61 84.3301L132.714 83.1229C133.129 78.284 137.288 71.6268 141.614 68.8748L143.032 67.9731L140.97 70.5691C135.498 77.4578 134.934 81.6426 139.61 80.6535C147.632 78.9569 158.797 77.7795 162.931 78.194C166.528 78.5546 167.659 78.2561 170.027 76.3225C173.32 73.6327 177.513 72.708 181.506 73.7906C183.8 74.4124 183.863 74.5508 182.015 74.8953C178.845 75.4858 173.42 77.8824 173.42 78.6919C173.42 78.8095 174.992 79.2645 176.913 79.7032C186.992 82.005 194.733 85.9616 201.613 92.3294C203.521 94.0947 205.147 95.4742 205.227 95.3945C210.056 90.5649 199.625 75.5697 190.588 74.3511L189.398 74.1904L188.171 71.7099C184.546 64.3817 180.96 63.4369 170.435 67.0366C163.943 69.257 161.092 69.6779 158.545 68.7918C156.232 67.9874 156.234 67.9504 158.713 65.6458C163.163 61.5093 166.072 54.0285 164.026 51.983C163.906 51.8626 164.757 51.8148 165.918 51.8766C174.824 52.3522 180.925 42.5357 176.319 35.1413C175.279 33.4708 175.26 33.4706 175.037 35.1329C174.564 38.6518 172.673 41.1658 169.679 42.2576C167.784 42.9482 166.582 43.1241 161.087 43.5147C150.624 44.2591 144.945 47.9429 142.893 55.3164C142.42 57.0169 142.329 57.1561 141.786 57.0028C136.676 55.5589 128.541 59.2109 124.758 64.6474ZM18.2557 200.812C16.3397 204.152 15.6419 208.685 15.934 215.886C16.1373 220.889 16.2841 220.601 13.9524 219.773C11.8884 219.04 8.64943 218.477 8.04424 218.747C6.56332 219.406 5.03984 234.146 6.14649 237.108C7.69869 241.262 12.6497 244.277 17.7546 244.176L20.2249 244.128L20.1202 247.17C19.8375 255.384 26.8734 261.961 35.9459 261.964C39.5503 261.965 39.584 261.835 36.8569 258.474C32.2954 252.852 28.5349 247.115 26.8797 243.251L26.0331 241.275L24.2277 240.578C21.0614 239.356 18.49 237.826 16.345 235.887L14.2748 234.016L15.8172 234.882C23.8623 239.4 25.2808 238.945 24.0903 232.229C23.674 229.88 23.26 226.21 23.1705 224.075C22.9677 219.234 22.7393 218.288 20.9093 214.715C19.4735 211.911 18.9502 209.853 19.5266 209.277C19.7479 209.055 20.0205 209.387 20.731 210.739C21.5481 212.294 22.7873 213.898 23.0039 213.682C23.0477 213.638 23.8159 211.501 24.711 208.933C26.5733 203.59 28.7831 198.967 30.784 196.228C33.335 192.736 33.3729 192.838 29.8037 193.585C24.0496 194.789 20.4009 197.073 18.2557 200.812ZM196.864 22.0515C195.206 24.6884 193.023 33.0978 194.21 32.2706C194.423 32.1225 195.726 31.1606 197.106 30.133C200.476 27.6228 203.307 26.2674 209.463 24.2168L214.635 22.4943L213.919 21.784C213.526 21.3932 212.516 20.6771 211.676 20.1925C209.4 18.8796 209.3 18.6405 211.051 18.7044C212.174 18.7457 213.301 19.1339 215.122 20.1073C218.696 22.0177 219.641 22.2585 224.424 22.4782C226.766 22.5859 230.062 22.9731 231.749 23.3387C239.581 25.0365 240.302 23.3271 235.364 14.7753C234.21 12.7782 234.765 13.1728 236.867 15.8439C238.943 18.4833 240.466 21.1644 241.258 23.5762L241.775 25.1515L244.563 26.4208C247.737 27.8657 250.692 29.7715 256.989 34.4357C263.001 38.8886 262.629 38.7484 262.822 36.6324C263.642 27.6412 256.007 18.8544 247.866 19.4192C244.882 19.6262 244.61 19.3785 244.823 16.6513C245.601 6.7187 235.991 2.7086 220.988 6.70515L219.291 7.1574L219.406 8.54854C219.469 9.31361 219.839 11.0485 220.229 12.4038C221.142 15.5787 221.203 15.4818 218.379 15.3576C205.548 14.793 200.425 16.3871 196.864 22.0515ZM31.5033 200.675C27.5036 205.931 25.1559 212.739 25.2181 218.9L25.2448 221.553L26.2049 221.422C28.6543 221.086 32.3389 217.842 34.1192 214.452L35.099 212.587L34.991 213.923C34.7461 216.951 31.3306 221.148 27.559 223.055L25.6156 224.037L25.7048 227.774C25.8312 233.067 28.7045 240.775 30.5511 240.776C31.9648 240.776 36.7956 236.035 37.7953 233.666C38.2854 232.505 38.4821 234.676 38.0171 236.11C37.5752 237.473 33.6514 241.75 31.7206 242.974L30.8775 243.509L32.185 246.013C32.904 247.39 33.8731 248.999 34.3386 249.588L35.1849 250.659L35.7441 247.775C36.7613 242.53 38.3008 240.437 44.17 236.32C50.2451 232.058 52.066 229.632 52.6875 224.967C53.5016 218.859 56.5579 214.79 60.1946 214.972C61.4156 215.034 61.382 214.578 60.0683 213.267C57.4774 210.681 54.121 210.182 49.3726 211.677C46.5 212.581 46.9863 213.021 43.7127 206.548C41.1384 201.457 40.0977 198.637 39.8554 196.094C39.6609 194.056 39.2415 193.323 38.4665 193.668C37.9515 193.897 32.4416 199.441 31.5033 200.675ZM194.279 37.8962C193.9 38.4567 193.939 38.4814 195.907 38.9138C203.623 40.6114 213.766 45.6365 212.975 47.3704C210.771 52.2082 211.029 56.5583 213.674 59.1398C215.211 60.6401 215.93 60.941 215.847 60.0492C215.47 55.9992 218.082 53.8324 225.728 51.8537C231.454 50.3721 233.331 48.9675 237.288 43.2033C241.031 37.7519 242.787 36.4368 248.043 35.1497C252.014 34.1772 252.046 34.4038 247.605 32.0495C245.814 31.1001 244.322 30.2972 244.29 30.2653C244.258 30.2335 243.911 30.7229 243.518 31.3532C241.593 34.4403 237.584 37.6216 235.62 37.6211C234.033 37.6207 234.038 37.3095 235.642 36.3894C237.294 35.4416 240.557 32.0096 241.264 30.4764L241.693 29.5464L240.363 28.6251C236.876 26.2102 232.608 24.9885 227.732 25.0098L224.727 25.023L223.692 27.0038C221.749 30.7242 217.652 34.1006 214.841 34.2995C213.955 34.3623 213.777 34.3053 214.198 34.0946C218.466 31.9608 221.73 28.3651 222.112 25.3761C222.374 23.3227 212.433 24.7872 206.577 27.6649C202.748 29.546 196.285 34.9229 194.279 37.8962ZM44.4824 190.735C43.0402 192.792 42.9942 198.499 44.426 197.774C49.1508 195.381 54.1059 195.635 57.4203 198.442C58.9011 199.696 58.8085 199.821 59.1714 196.061C60.0977 186.457 50.0396 182.81 44.4824 190.735ZM188.753 46.6309C184.273 52.9522 188.723 59.329 197.055 58.5274C200.464 58.1992 200.36 58.2918 199.079 56.7154C196.667 53.7482 196.24 50.4419 197.646 45.6113L198.407 42.9967L197.464 42.7855C194.258 42.0682 190.953 43.5267 188.753 46.6309ZM79.976 181.962C69.8421 195.887 74.6173 211.693 89.9834 215.086C93.8948 215.95 93.7958 216.013 93.2119 213.027C92.6309 210.055 92.3898 209.75 89.5358 208.373C80.5828 204.054 78.8639 192.775 85.935 184.746L87.3198 183.173L86.3639 180.253C85.8384 178.647 85.2857 177.21 85.136 177.058C84.8719 176.791 81.1975 180.284 79.976 181.962ZM129.331 141.068C126.768 145.223 127.003 145.375 138.472 147.008L142.741 147.616L145.682 145.387C148.995 142.875 151.546 141.593 153.44 141.486L154.725 141.415L152.901 142.638C151.898 143.31 149.917 144.891 148.499 146.151L145.921 148.441L151.14 151.278C168.39 160.656 172.973 162.416 179.638 162.222C192.723 161.843 206.793 145.476 203.174 134.847C201.033 128.557 193.342 124.885 190.395 128.745C188.256 131.548 189.294 133.332 194.234 135.346C198.604 137.128 198.328 140.55 193.417 145.495C188.716 150.229 185.872 150.378 178.28 146.285C173.859 143.903 172.201 143.267 170.273 143.217L168.945 143.182L170.041 141.351C172.594 137.083 172.698 128.817 170.166 131.326C168.42 133.057 164.361 133.311 158.493 132.056C146.854 129.567 133.97 133.549 129.331 141.068ZM2.77379 274.146C-0.383802 280.298 2.82348 288.627 9.49414 291.599C9.89215 291.777 9.58644 292.147 7.17955 294.405C-0.478146 301.588 -1.41719 311.097 4.90694 317.422L5.66694 318.182L6.09455 316.862C9.27462 307.051 16.407 296.817 22.6826 293.06C24.6625 291.875 20.3662 288.922 15.0191 287.792L13.7538 287.524L15.3167 287.341C18.5368 286.963 21.3768 287.523 24.0618 289.064C25.4675 289.871 25.9855 290.017 26.4094 289.726C26.7086 289.521 28.0868 288.622 29.472 287.729C32.4735 285.793 32.4173 286.098 30.1769 283.895C27.618 281.378 24.4599 279.642 20.8537 278.77C14.1114 277.14 11.9747 275.204 10.2057 269.122L9.59991 267.039L8.66471 267.708C6.76851 269.066 3.60826 272.519 2.77379 274.146ZM268.034 8.38044C267.281 9.3469 267.371 9.45245 269.549 10.1662C275.335 12.0616 277.452 14.3328 278.197 19.445C278.748 23.2314 279.566 24.748 283.382 29.063C284.794 30.6609 285.992 31.9744 286.041 31.9819C286.092 31.9896 287.065 30.5466 288.204 28.7749L290.276 25.5543L289.647 24.6356C287.718 21.8172 286.874 17.4537 287.687 14.5101L288.005 13.3605L288.073 14.5621C288.25 17.6736 289.335 20.1612 291.425 22.2514L292.618 23.4447L293.293 22.4787C298.172 15.502 303.578 11.6151 315.58 6.45582C318.442 5.22545 318.297 5.35482 317.597 4.6546C311.666 -1.2765 301.68 -0.183268 294.291 7.20622L291.843 9.65378L291.166 8.68826C284.34 -1.05062 275.474 -1.1687 268.034 8.38044ZM42.7702 253.895C41.0941 257.154 42.1035 260.769 46.4593 267.103C47.6319 268.808 48.5985 270.237 48.6073 270.277C48.616 270.318 48.0312 270.638 47.3078 270.989C39.2686 274.884 42.9352 285.059 51.8945 283.716C60.3713 282.446 63.5109 284.017 71.1891 293.367C77.1967 300.684 82.798 303.33 89.5268 302.03L91.3609 301.675L91.2693 300.489C91.219 299.837 91.284 298.012 91.4139 296.434C91.9553 289.845 81.4687 279.276 69.3084 274.154C66.5617 272.997 66.4074 272.874 68.2964 273.348C74.4867 274.9 81.5198 279.311 87.827 285.597C89.7271 287.491 91.35 288.971 91.434 288.887C91.5181 288.803 91.8728 287.467 92.2226 285.917C92.5722 284.368 93.0679 282.683 93.3238 282.175C93.773 281.283 93.7414 281.193 92.4344 279.647C91.605 278.666 90.1053 276.137 88.5681 273.126C83.941 264.065 80.9276 261.299 71.2776 257.25C67.8035 255.793 67.847 255.594 71.4561 256.436C75.9968 257.495 80.2952 259.762 85.4987 263.841L86.6652 264.756L87.4173 263.674C88.3563 262.324 91.7858 258.877 93.0742 257.988C96.6246 255.538 84.288 246.395 76.7934 245.922L74.7532 245.793L74.2641 244.311C71.0792 234.666 63.7384 235.776 60.0179 246.466C58.94 249.564 59.0851 249.463 56.1675 249.131C49.5569 248.377 44.7247 250.095 42.7702 253.895ZM250.267 46.6051C249.095 48.845 248.819 52.2066 249.397 57.2174L249.587 58.8609L247.788 59.5285C235.68 64.0245 234.344 70.7492 244.84 74.3677L246.451 74.9228L246.322 76.5847C245.93 81.6451 249.85 88.7328 254.923 92.1389C257.616 93.9464 257.911 93.9881 258.46 92.6402C258.879 91.6115 261.435 89.0571 264.509 86.594C264.958 86.2347 264.837 86.0258 262.94 83.8808C259.505 79.9961 257.233 75.3693 256.443 70.6511C255.858 67.1534 256.062 67.2132 257.38 70.9259C260.565 79.8994 263.964 83.6641 273.112 88.3509C275.586 89.6183 278.533 91.3609 279.662 92.2232C281.084 93.3099 281.804 93.7002 282.009 93.4952C282.391 93.1129 284.985 92.2937 287.093 91.8891C288.002 91.7146 288.806 91.5122 288.88 91.4393C288.954 91.366 287.171 89.3562 284.919 86.9729C279.111 80.8299 275.686 75.4916 273.961 69.8959C273.201 67.4291 273.415 67.428 274.462 69.8929C276.601 74.928 281.746 81.5867 287.927 87.3195C292.346 91.4187 291.65 91.1313 297.563 91.2977L301.822 91.4176L302.219 89.2773C303.477 82.4874 301.411 78.539 291.54 68.8567C283.13 60.6094 282.681 59.6785 283.814 52.8745C285.473 42.9156 274.827 38.7351 270.796 47.7627C270.31 48.8507 269.857 48.811 268.598 47.5693C261.85 40.9167 253.475 40.4763 250.267 46.6051ZM72.0424 231.209C70.8613 233.531 70.289 236.414 70.9009 236.956C71.1536 237.179 72.1358 237.912 73.0838 238.585C75.1338 240.039 76.2247 241.451 76.5342 243.051L76.761 244.223L79.1972 244.195C80.5373 244.18 82.313 244.245 83.1438 244.34L84.6542 244.513L84.6385 241.275C84.623 238.112 85.1808 235.672 86.4203 233.482L86.9715 232.508L86.8737 233.723C86.5283 238.022 86.4757 241.259 86.7229 243.026L87.0073 245.059L92.6496 250.802L98.2918 256.545L99.1522 254.703C100.352 252.135 100.839 248.73 100.706 243.842C100.63 241.029 100.719 239.892 100.979 240.368C101.618 241.542 102.636 244.367 102.826 245.494L103.005 246.553L104.769 245.731C107.322 244.543 109.786 244.155 111.946 244.602L113.838 244.993L114.228 243.634C115.819 238.087 113.105 231.907 108.745 231.152L107.076 230.862L107.039 228.314C106.884 217.346 94.9061 215.866 89.2193 226.111C88.9033 226.68 88.7915 226.668 88.1149 225.992C83.7506 221.628 75.5627 224.285 72.0424 231.209ZM225.423 77.5206C223.433 81.086 223.556 84.9321 225.761 88.1328C226.292 88.9021 226.334 89.1687 225.95 89.3394C215.689 93.9072 218.618 107.971 229.684 107.269L231.44 107.157L231.39 108.035C231.148 112.255 236.567 115.178 243.198 114.404C245.47 114.139 245.604 114.047 245.053 113.128C244.27 111.821 244.427 108.756 245.433 105.719L246.389 102.832L244.856 102.587C243.422 102.358 239.534 100.661 239.534 100.264C239.534 100.166 240.348 100.202 241.344 100.344C250.772 101.69 258.59 99.1296 254.456 96.0497C253.124 95.057 251.122 93.16 248.879 90.7635L245.38 87.0256L243.884 86.752C242.404 86.481 239.082 86.489 234.707 86.7733C232.979 86.8858 232.61 86.8262 233.14 86.5194C235.114 85.3777 238.193 84.653 241.377 84.5812C244.511 84.5106 244.756 84.4535 244.576 83.838C244.469 83.4713 244.357 81.6924 244.328 79.8848L244.275 76.5982L242.845 76.3318C241.386 76.06 239.41 74.219 237.395 71.2535C235.832 68.9551 227.88 73.1178 225.423 77.5206ZM17.3458 300.802C15.5541 303.38 15.5541 303.389 17.3479 305.483C21.1592 309.931 22.9631 315.562 22.1555 320.491C21.8096 322.604 21.7439 322.504 21.167 318.983C20.3267 313.85 18.2082 308.863 15.866 306.503L15.0289 305.659L14.2403 306.731C4.46893 320.007 3.30125 333.357 10.4542 350.013C12.6771 355.19 12.7873 355.322 14.1501 354.458C17.8106 352.136 19.8107 348.707 20.9746 342.759C21.4936 340.105 22.5691 336.732 23.049 336.252C23.0915 336.21 24.1869 336.554 25.4838 337.015C28.4749 338.081 30.5856 338.218 32.6188 337.477C34.9017 336.645 34.9071 336.621 33.2349 334.715C30.5763 331.685 30.3704 329.652 32.0869 323.367C34.1455 315.829 34.1502 313.801 32.12 308.915C27.6578 298.176 29.5399 293.296 38.8042 291.587C45.2552 290.396 48.2364 285.336 43.1895 284.143C41.8625 283.829 33.5822 287.365 28.928 290.233C25.7695 292.179 19.1235 298.244 17.3458 300.802ZM293.448 24.7124C288.19 31.4615 283.161 42.4372 284.645 43.9217C284.999 44.2751 285.528 44.9242 285.822 45.365C286.322 46.1155 286.423 46.1273 287.435 45.5556C289.876 44.1758 290.666 42.8653 291.672 38.5271C293.819 29.2684 298.586 27.4548 308.998 31.9362C314.249 34.1963 316.016 34.2145 323.295 32.0832C329.358 30.3081 331.735 30.5333 334.723 33.1662L336.611 34.8294L337.358 33.463C338.351 31.6482 338.324 29.1078 337.278 25.8571C336.21 22.5385 336.436 22.356 343.571 20.7782C349.03 19.5711 352.353 17.523 354.793 13.8619C355.481 12.8306 355.461 12.8166 350.039 10.4791C333.435 3.32074 320.641 4.44283 306.755 14.2749L305.922 14.8646L306.966 15.9079C309.33 18.2718 313.266 19.9695 318.808 21.0155C322.763 21.7621 322.824 21.8232 319.998 22.2174C315.199 22.886 310.132 21.1551 305.296 17.1966L303.504 15.7286L301.924 16.7754C299.734 18.2273 295.173 22.4975 293.448 24.7124ZM45.6734 290.026C41.5558 295.649 44.5571 305.02 51.461 308.096C51.8712 308.279 51.8474 308.354 51.3291 308.519C49.1374 309.215 47.389 311.604 47.19 314.174C46.5979 321.831 56.6034 326.197 63.7878 321.417L65.1778 320.492L66.0572 321.762C69.0871 326.136 75.0486 326.894 80.5805 323.607C81.5978 323.002 82.6161 322.408 82.8433 322.286C83.0801 322.16 82.9987 322.769 82.6528 323.713C81.8653 325.861 81.7608 328.871 82.4051 330.837C83.0934 332.939 83.3522 333.124 83.682 331.747C84.5446 328.144 89.0128 323.083 92.6805 321.553C93.0986 321.379 92.9398 321.069 91.6442 319.535C88.6822 316.026 87.2853 313.037 86.3279 308.161L85.742 305.178L84.0964 304.918C78.3954 304.017 72.2057 305.419 65.8154 309.056L63.3684 310.449L65.433 308.355C67.9 305.853 70.0836 304.236 72.8503 302.861C75.3229 301.631 75.3088 301.79 73.0894 300.199C68.8336 297.149 64.7436 297.171 59.5132 300.273L57.4687 301.485L58.156 300.474C59.0801 299.115 61.7352 296.925 64.5159 295.228C67.1548 293.617 67.0822 293.792 65.8305 292.057C60.7329 284.992 50.1407 283.925 45.6734 290.026ZM287.224 50.0907C284.946 54.9707 286.048 59.49 290.648 64.1275C293.862 67.3672 293.617 67.3551 295.427 64.3693C297.422 61.0756 299.127 59.0729 300.676 58.2014L301.936 57.4925L300.613 59.3723C297.216 64.1977 297.222 68.8789 300.63 73.2317C301.928 74.8894 301.768 74.9738 303.55 71.6965C305.018 68.9982 308.514 64.8501 310.333 63.6477C311.346 62.9784 311.343 62.9895 310.025 64.8713C306.049 70.5468 304.191 77.2197 304.997 82.9304C305.44 86.0682 305.356 85.966 307.712 86.2424C311.998 86.7452 315.891 88.5077 319.449 91.5566C320.997 92.8831 321.379 93.0962 321.544 92.7254C323.377 88.6077 328.177 84.3528 331.363 84.022C334.72 83.6733 331.293 81.7949 327.652 81.9875C326.505 82.048 324.715 82.3543 323.675 82.6679L321.783 83.2376L323.079 81.4058C326.916 75.9792 326.749 70.8956 322.6 66.8081L320.449 64.6892L321.448 63.6862C325.825 59.2903 323.087 49.2734 316.965 47.2862C314.16 46.3755 311.926 47.1487 309.548 49.8535C308.23 51.3524 308.005 51.5145 307.791 51.1168C302.766 41.7544 291.381 41.1863 287.224 50.0907ZM273.418 67.272C273.478 67.3322 273.478 67.4307 273.418 67.4909C273.358 67.5511 273.26 67.551 273.199 67.4908C273.139 67.4306 273.139 67.3321 273.199 67.2719C273.259 67.2117 273.358 67.2118 273.418 67.272ZM117.013 227.209C116.31 229.31 116.423 232.545 117.381 237.747C117.825 240.159 118.012 242.359 117.849 243.249C117.323 246.116 117.336 246.165 118.982 247.491C119.799 248.149 121.149 249.248 121.981 249.934L123.495 251.181L125.13 250.647L126.765 250.112L127.466 246.693C128.277 242.736 128.418 239.378 127.878 236.861C127.441 234.825 127.918 235.479 129.013 238.417C129.852 240.669 129.977 244.105 129.34 247.411C129.097 248.672 128.928 249.735 128.965 249.772C129.003 249.81 129.518 250.002 130.112 250.201C130.705 250.4 131.974 251.132 132.932 251.83L134.673 253.097L135.644 251.868C137.992 248.894 139.81 244.815 141.249 239.296L141.656 237.734L141.582 240.205C141.542 241.564 141.253 243.491 140.941 244.486C140.232 246.749 140.201 246.725 143.207 246.211C144.58 245.977 146.485 245.743 147.442 245.69L149.18 245.595L149.787 244.283C150.628 242.465 154.071 238.678 155.732 237.744L157.037 237.009L156.971 235.497C156.834 232.371 154.145 229.114 150.835 228.065L149.201 227.547L148.898 225.906C146.864 214.917 135.967 213.868 131.718 224.252C131.111 225.734 131.265 225.738 128.926 224.176C123.513 220.562 118.839 221.753 117.013 227.209ZM222.248 122.401C222.119 123.901 223.071 126.833 224.487 129.301C225.347 130.797 225.457 131.198 225.056 131.357C214.205 135.663 215.03 146.81 226.355 148.906L228.02 149.214L228.33 150.737C228.954 153.797 232.568 156.799 235.673 156.835C237.27 156.853 237.141 156.947 238.347 154.885C239.335 153.197 239.977 152.62 243.675 150.1L245.838 148.626L245.878 147.051C245.901 146.184 246.064 144.733 246.239 143.825C246.654 141.685 246.606 139.846 246.146 140.306C245.382 141.07 238.231 141.999 238.231 141.333C238.231 141.235 239.051 141.02 240.054 140.856C244.423 140.141 248.149 138.452 251.476 135.678L253.248 134.201L252.24 133.194C251.686 132.64 250.93 131.49 250.559 130.638C249.668 128.588 249.829 128.658 247.367 129.24C243.282 130.206 238.736 129.656 236.134 127.882C235.368 127.36 235.504 127.345 237.496 127.73C246.454 129.465 253.899 125.667 249.73 121.489C248.802 120.559 247.596 119.229 247.049 118.533C246.08 117.299 246.029 117.276 244.999 117.604C243.367 118.123 240.646 117.969 236.741 117.137C229.086 115.506 222.639 117.848 222.248 122.401ZM260.993 94.2231C260.669 95.1894 260.367 97.2862 260.321 98.8829L260.237 101.786L258.282 101.757C249.084 101.624 245.043 111.343 251.415 118.273C253.23 120.247 253.518 120.682 253.295 121.113C250.129 127.225 260.945 137.957 266.528 134.242C266.926 133.978 267.267 133.777 267.286 133.796C267.305 133.815 267.685 134.589 268.13 135.515C271.549 142.638 276.721 142.511 284.161 135.121C288.806 130.508 292.177 128.503 299.224 126.164L303.793 124.647L304.183 123.443C304.398 122.782 304.869 121.807 305.232 121.277C306.041 120.094 305.956 120.006 303.256 119.221C296.784 117.339 290.352 117.533 280.187 119.92C275.204 121.09 274.908 120.905 278.92 119.129C286.877 115.608 296.044 115.043 306.299 117.443C307.773 117.787 307.984 117.752 308.271 117.112C308.448 116.718 309.124 115.865 309.773 115.216L310.953 114.035L306.964 109.918L302.974 105.801L301.292 106.088C298.657 106.537 294.213 106.551 288.205 106.13C277.898 105.408 273.542 105.933 268.476 108.506L266.444 109.537L267.439 108.523C270.63 105.269 276.257 103.294 282.284 103.314C286.707 103.328 286.515 102.755 280.134 96.9036C270.659 88.2157 263.346 87.1911 260.993 94.2231ZM90.2096 265.579C88.9635 270.181 92.9962 277.251 100.599 283.794C103.315 286.132 103.109 286.253 103.367 282.168C103.766 275.854 104.726 272.453 106.982 269.368C108.732 266.975 109.416 266.625 108.284 268.702C106.092 272.727 105.564 276.986 106.119 286.196C106.403 290.905 106.379 294.269 106.041 297.201C105.387 302.871 105.449 303.072 108.742 305.912C110.177 307.15 111.945 308.714 112.67 309.388C114.269 310.871 113.893 310.92 116.2 308.93L118.121 307.273L117.57 305.322C114.79 295.487 115.752 285.208 120.22 277.027C121.293 275.062 121.325 275.223 120.455 278.21C117.406 288.686 117.596 308.736 120.714 305.584C120.937 305.358 121.958 304.771 122.982 304.28L124.843 303.387L126.291 299.054C128.697 291.856 129.421 290.657 134.814 284.946C142.527 276.776 142.621 270.403 135.071 267.55L133.616 267L134.307 265.804C137.856 259.662 130.356 252.169 121.667 253.177L120.176 253.349L118.061 251.309C111.248 244.736 102.027 248.379 102.243 257.559L102.308 260.278L99.4202 260.211C94.326 260.091 91.203 261.911 90.2096 265.579ZM189.404 172.712C192.738 173.96 191.565 181.666 187.313 186.441C183.334 190.911 182.794 193.595 183.998 202.902C184.789 209.02 184.338 211.031 181.066 215.976C178.724 219.514 178.664 219.389 182.285 218.508C188.079 217.098 187.966 217.187 187.509 214.432C186.792 210.104 187.421 207.361 189.631 205.174L190.951 203.868L190.251 205.878C189.135 209.082 189.269 215.376 190.46 215.657C192.988 216.255 201.937 211.667 205.811 207.786L207.123 206.472L206.638 204.235C205.544 199.197 206.185 194.943 208.456 192.191L209.509 190.913L208.78 192.809C206.97 197.518 207.02 201.118 208.934 203.917L209.595 204.883L211.753 202.724C218.551 195.92 222.323 186.859 222.575 176.73C222.679 172.563 222.436 172.125 220.74 173.424C216.997 176.29 211.602 178.704 205.38 180.298L201.135 181.385L200.479 179.336C199.565 176.481 195.965 172.744 193.308 171.892C191.02 171.159 187.326 171.934 189.404 172.712ZM204.142 161.217C203.396 162.229 203.385 162.324 204.018 162.262C207.299 161.947 212.77 166.248 214.617 170.595C215.605 172.923 215.746 172.944 217.887 171.089C224.857 165.05 218.265 152.044 210.191 155.905C208.712 156.612 205.384 159.535 204.142 161.217ZM48.9622 329.425C48.2094 333.445 48.4164 338.259 49.5257 342.519C49.5891 342.761 49.9273 342.001 50.2777 340.83C50.9609 338.544 52.1995 336.014 55.1872 330.802C56.3976 328.69 56.9441 327.46 56.7175 327.359C56.047 327.061 51.556 326.354 50.5421 326.387L49.5249 326.421L48.9622 329.425ZM326.851 53.4783C327.435 57.2307 327.577 57.5597 328.306 56.8349C329.599 55.5499 336.949 51.7015 341.521 49.9162C343.1 49.2998 342.969 49.2415 339.021 48.8053C333.501 48.1953 327.725 48.6549 326.585 49.7948C326.439 49.9408 326.559 51.5984 326.851 53.4783ZM95.3447 286.53C94.4845 290.016 94.0812 293.361 94.13 296.605C94.1973 301.076 94.1022 300.968 98.0024 301.041C99.8337 301.076 101.828 301.17 102.435 301.251L103.538 301.399L103.427 300.114C103.366 299.407 103.449 297.341 103.612 295.522C103.936 291.898 103.51 289.972 102.063 288.521C100.83 287.284 96.2157 283.662 96.0859 283.829C96.0259 283.906 95.6924 285.122 95.3447 286.53ZM284.13 96.5016C284.168 96.6545 285.482 98.2059 287.051 99.9496L289.903 103.12L293.099 103.316C300.745 103.785 302.208 103.549 301.548 101.955C301.332 101.433 301.147 99.5369 301.138 97.7406L301.121 94.4746L299.276 94.266C296.248 93.9235 294.769 93.9327 291.923 94.3116C288.873 94.7175 284.026 96.0798 284.13 96.5016ZM138.993 252.282C137.122 255.148 136.359 259.869 137.414 262.051L137.865 262.984L139.239 261.874C144.67 257.487 149.407 255.419 154.523 255.197L156.411 255.115L154.437 255.719C150.71 256.859 146.397 259.611 141.49 263.978L138.632 266.521L139.99 267.577C141.189 268.511 143.629 271.47 144.135 272.607C144.266 272.899 144.924 272.702 146.404 271.924C149.107 270.503 152.408 269.571 155.677 269.307C158.568 269.072 159.028 269.221 156.9 269.702C148.67 271.56 145.035 274.129 140.777 281.098C137.91 285.791 136.992 286.915 132.73 290.959C129.812 293.728 126.902 299.693 127.371 301.942C127.594 303.015 129.244 303.026 132.453 301.977L134.367 301.35L140.495 295.223L146.622 289.095L148.99 288.094C153.078 286.367 157.092 285.782 164.509 285.834L171.261 285.881L172.467 284.601C176.22 280.619 176.649 275.905 173.594 272.22L172.292 270.651L173.325 269.618C180.735 262.208 179.359 251.513 170.857 250.436L168.938 250.193L168.589 247.669C167.722 241.4 163.985 238.881 157.612 240.271C153.391 241.191 151.825 243.188 151.922 247.527L151.985 250.336L150.386 249.262C146.589 246.713 141.798 247.983 138.993 252.282ZM249.068 142.356C247.657 144.855 247.836 148.102 249.512 150.416C250.599 151.916 250.454 152.074 248.177 151.872C243.292 151.438 240.471 153.881 240.212 158.769C239.908 164.518 242.634 167.951 247.891 168.441C250.995 168.73 250.815 168.61 250.935 170.464C251.52 179.43 262.217 180.726 270.152 172.791L270.869 172.074L272.516 173.501C275.802 176.349 279.383 176.117 283.856 172.766L285.938 171.206L285.891 164.323C285.8 150.937 286.711 148.703 295.973 139.596C302.504 133.176 303.545 131.455 302.742 128.406L302.457 127.322L301.166 127.366C298.069 127.47 295.934 128.806 289.428 134.711C285.586 138.198 284.701 138.87 281.965 140.378C275.282 144.062 271.874 148.482 270.04 155.847C269.493 158.046 269.307 158.485 269.279 157.648C269.171 154.474 270.464 149.269 272.175 145.991C272.94 144.526 272.975 144.277 272.456 143.967C270.653 142.887 268.251 140.837 267.493 139.731L266.651 138.502L264.234 141.184C260.44 145.391 257.591 149.956 256.113 154.191C255.338 156.412 255.195 156.329 255.454 153.808C255.896 149.501 258.216 143.853 261.316 139.535C262.943 137.27 262.953 137.314 260.772 137.02C256.396 136.431 251.031 138.876 249.068 142.356ZM169.566 227.238C177.235 234.31 184.791 234.432 192.815 227.613L194.821 225.908L195.842 227.201C201.329 234.149 209.8 232.825 218.218 223.705C224.926 216.438 225.023 215.807 219.921 212.685C216.421 210.544 216.404 211.101 220.066 208.071C231.51 198.598 234.414 187.972 227.91 179.359C226.286 177.208 226.35 177.198 226.009 179.665C225.439 183.793 222.616 190.84 218.919 197.363C216.608 201.44 216.533 201.28 220.344 200.357C225.253 199.168 222.703 201.64 217.407 203.205C214.18 204.158 212.579 205.105 208.344 208.568C206.357 210.192 203.519 212.334 202.037 213.328C200.556 214.322 198.854 215.625 198.257 216.222L197.17 217.309L198.242 218.38C199.663 219.802 202.479 221.249 205.055 221.88C207.505 222.481 206.838 222.626 203.419 222.237C200.625 221.918 196.691 220.781 194.509 219.661L193.003 218.888L189.701 220.044C184.799 221.76 177.091 223.169 169.837 223.677C168.824 223.748 167.69 223.97 167.316 224.171L166.636 224.536L169.566 227.238ZM373.053 19.3422C369.482 25.5431 373.729 28.6183 380.783 24.9397C387.5 21.4366 389.812 23.077 388.322 30.2894C387.231 35.5723 387.902 37.6909 391.67 40.8548L393.505 42.3957L392.563 42.9175C388.402 45.223 386.294 49.9128 387.143 54.9758C388.867 65.2494 388.423 67.3252 383.983 69.7602C379.692 72.1127 378.123 71.7789 373.416 67.5139C368.498 63.0572 366.633 62.2682 363.358 63.2603C359.518 64.4233 354.059 73.1474 357.637 72.4032C368.023 70.2422 371.403 75.3823 367.448 87.3218C364.478 96.2898 364.527 96.6416 369.419 101.55C373.906 106.051 374.149 107.25 371.447 111.552C368.778 115.802 366.535 117.015 362.649 116.307C355.976 115.091 347.958 125.463 350.448 132.091C351.364 134.532 351.736 134.658 354.198 133.363C360.357 130.123 363.82 131.5 370.07 139.674C375.065 146.208 378.159 147.522 384.003 145.59C385.129 145.218 386.088 144.876 386.135 144.829C386.181 144.782 386.037 143.845 385.815 142.745C385.593 141.645 385.372 138.726 385.325 136.258L385.24 131.77L384.212 131.442C381.641 130.624 378.768 127.155 377.504 123.343C376.641 120.738 376.816 120.323 377.984 122.209C379.211 124.191 380.505 125.482 382.504 126.72C385.073 128.311 385.307 128.15 385.09 124.948C384.726 119.59 385.327 113.946 387.331 103.892L388.429 98.3832L386.411 96.093C382.868 92.0722 380.938 87.8957 381.18 84.7723C381.353 82.5264 381.576 82.4203 382.19 84.2908C383.137 87.1748 384.689 89.7589 387.038 92.3616L389.272 94.8361L390.26 92.1483C392.434 86.2357 397.132 76.7281 401.48 69.4394L403.629 65.8384L402.793 64.2498C400.327 59.5588 399.591 53.6433 400.861 48.7208C401.704 45.4558 401.753 45.4641 402.204 48.9498C402.909 54.3982 405.097 62.2348 405.914 62.2348C406.042 62.2348 406.866 61.3102 407.744 60.1798C408.623 59.0494 412.116 55.3497 415.508 51.9581L421.674 45.7917L422.002 43.4726C422.413 40.5736 422.267 37.6895 421.533 34.1473L420.962 31.3958L415.375 36.7536C408.762 43.0964 409.115 42.9678 408.134 39.3896C402.52 18.9185 380.533 6.35368 373.053 19.3422ZM16.3622 376.258C10.4419 385.832 24.3686 403.675 40.9487 407.759L43.1748 408.307L37.9706 413.802C35.1084 416.824 32.6782 419.495 32.5703 419.737C32.1376 420.71 39.2768 421.635 43.7602 421.187L46.4693 420.917L54.1249 413.472C58.3355 409.378 62.1229 405.828 62.5414 405.585C64.3823 404.513 59.0995 402.819 48.3872 401.044L46.4017 400.715L48.1241 400.249C54.0382 398.649 58.971 399.079 64.642 401.689L66.714 402.643L72.9834 399.065C81.0864 394.442 87.8338 391.118 91.7509 389.822C93.4689 389.253 94.9871 388.677 95.1243 388.541C96.0848 387.594 90.2541 383.263 85.4072 381.323C83.5087 380.564 83.5905 380.276 85.7125 380.249C89.0542 380.207 94.3842 382.846 97.7721 386.22L99.1404 387.582L105.625 386.298C114.527 384.536 118.662 384.047 124.211 384.1L128.955 384.145L128.568 383.283C127.461 380.815 125.227 378.319 122.906 376.953C121.159 375.926 121.654 375.875 124.497 376.791C128.012 377.922 130.653 380.032 131.988 382.772L132.777 384.392L136.004 384.449C137.779 384.481 140.708 384.651 142.513 384.829L145.795 385.151L146.306 383.589C148.378 377.254 146.937 373.914 139.958 368.876C132.182 363.264 130.682 358.782 134.585 352.826C135.548 351.357 135.591 351.169 135.062 350.747C128.566 345.571 115.738 354.047 117.156 362.578C117.848 366.746 112.292 372.262 107.51 372.155L106.226 372.127L102.683 368.584C97.5318 363.433 96.7845 363.335 86.9414 366.522C76.1899 370.002 72.4103 367.46 72.9921 357.138L73.0906 355.395L71.9358 355.668C63.2805 357.713 61.5145 367.96 68.8602 373.512C72.8798 376.55 72.9045 381.424 68.9206 385.408C66.5858 387.743 65.0969 387.896 58.9154 386.436C52.6317 384.952 49.6973 385.801 45.0504 390.448L43.0742 392.424L41.8215 390.871C38.8087 387.136 36.4218 386.334 31.304 387.335C24.6887 388.629 22.2226 386.18 25.0133 381.089C27.3044 376.909 27.603 376.185 27.6044 374.806C27.6106 369.032 20.242 369.984 16.3622 376.258ZM88.8567 307.559C91.0684 318.593 99.4656 326.132 106.655 323.541C117.931 319.475 110.599 304.005 97.6406 304.518C90.3762 304.806 88.4394 305.477 88.8567 307.559ZM305.331 91.088C302.081 106.972 316.27 120.364 323.064 107.825C327.023 100.52 317.629 89.4665 306.737 88.6139L305.852 88.5447L305.331 91.088ZM275.402 120.903C275.462 120.963 275.462 121.062 275.402 121.122C275.342 121.182 275.243 121.182 275.183 121.122C275.123 121.062 275.123 120.963 275.183 120.903C275.243 120.843 275.342 120.843 275.402 120.903ZM116.883 312.645C112.808 321.576 123.646 328.611 131.617 322.21C139.691 315.726 143.908 306.608 139.366 305.453C129.496 302.944 119.91 306.01 116.883 312.645ZM307.475 121.9C304.429 126.228 303.759 132.845 305.659 139.827C306.455 142.751 306.309 142.707 309.712 141.07C323.732 134.326 328.577 125.288 321.807 118.509C317.14 113.835 312.353 114.968 307.475 121.9ZM106.286 330.606C103.118 345.214 104.66 353.69 112.132 362.726C113.832 364.783 113.641 365.02 114.284 360.064C114.771 356.319 115.292 354.422 116.476 352.086C117.189 350.679 117.189 350.518 116.477 349.114C113.245 342.742 113.136 335.777 116.159 328.67C117.319 325.944 117.378 326.203 114.889 323.123C114.057 322.095 113.894 322.009 113.382 322.327C111.798 323.311 107.59 326.16 107.382 326.389C107.251 326.532 106.758 328.43 106.286 330.606ZM325.747 108.44C325.485 108.9 324.68 110.097 323.958 111.098C322.081 113.703 322.089 113.808 324.338 115.668L326.205 117.214L328.732 116.154C335.774 113.201 342.191 113.2 348.527 116.152L350.815 117.218L352.417 116.373C355.116 114.95 360.02 113.822 362.315 114.097C365.4 114.466 363.604 112.121 358.268 108.814C351.009 104.316 342.779 103.585 330.429 106.342C328.288 106.82 326.466 107.299 326.379 107.407C326.293 107.515 326.009 107.979 325.747 108.44ZM138.204 301.27C138.614 303.003 146.792 303.617 151.137 302.243C156.432 300.567 166.024 293.174 167.461 289.659C168.39 287.389 154.172 289.758 148.191 292.87C144.34 294.873 137.961 300.239 138.204 301.27ZM296.004 143.474C291.467 149.426 288.755 158.339 288.977 166.566C289.022 168.249 289.268 168.126 293.292 164.398C300.141 158.054 303.42 151.422 303.174 144.412C303.083 141.841 302.107 138.021 301.54 138.02C301.066 138.02 297.431 141.601 296.004 143.474ZM224.869 226.86C224.217 228.048 224.324 229.973 225.126 231.448L225.8 232.689L220.244 238.245C213.1 245.388 212.426 247.132 215.774 249.801C218.483 251.962 220.051 251.166 226.955 244.124L232.434 238.536L234.616 240.842L236.798 243.149L231.567 248.423C224.587 255.463 223.692 257.193 225.717 259.732C228.471 263.185 231.248 262.024 237.699 254.725C239.71 252.449 241.773 250.302 242.283 249.953L243.211 249.318L245.916 252.146L248.621 254.973L238.518 265.076C232.961 270.633 228.283 275.18 228.121 275.179C227.96 275.179 226.57 274.205 225.033 273.013C219.76 268.927 217.322 268.047 212.939 268.647C207.265 269.423 205.504 268.936 207.616 267.175C212.452 263.144 207.406 256.708 201.795 259.749C198.874 261.332 196.06 264.908 195.197 268.133L194.816 269.559L192.554 270.305C184.908 272.825 181.647 280.162 186.138 284.738C190.66 289.346 195.839 286.823 193.699 281.055C189.581 269.956 204.85 271.531 223.516 284.129L227.242 286.643L240.566 273.319L253.891 259.994L256.292 262.52L258.693 265.045L245.891 277.847L233.089 290.65L232.429 292.475C231.229 295.793 233.39 298.735 236.545 298.079C239.023 297.563 240.046 296.666 250.906 285.488C256.54 279.688 262.088 274.151 263.234 273.182L265.316 271.421L267.698 273.926L270.079 276.431L256.841 289.782C249.56 297.125 243.635 303.166 243.676 303.207C244.821 304.351 252.415 316.751 253.678 319.537C257.981 329.031 256.211 339.623 250.854 336.435C246.278 333.711 241.208 337.488 243.679 341.779C247.667 348.703 258.234 345.25 260.31 336.344L260.722 334.578L262.059 334.333C268.806 333.1 273.42 325.489 269.728 321.684C267.646 319.538 265.113 319.833 262.908 322.477C262.261 323.253 261.661 323.818 261.576 323.733C261.034 323.19 261.048 320.301 261.611 316.413C262.132 312.823 261.466 311.019 257.719 305.869C256.401 304.056 255.203 302.347 255.057 302.072C254.781 301.55 270.757 285.17 274.114 282.533L275.408 281.518L278.546 284.776L281.684 288.035L276.213 293.506C268.972 300.747 268.153 302.743 271.363 305.327C274.16 307.578 275.553 306.9 282.284 300.016C288.158 294.01 288.049 294.076 289.437 295.652L290.442 296.794L284.861 302.374C277.749 309.487 277.115 310.923 279.874 313.682C282.651 316.46 284.195 315.759 291.306 308.491L296.772 302.905L297.825 303.958C302.263 308.396 308.614 302.126 304.606 297.265L303.571 296.011L308.002 291.846C315.638 284.669 316.842 282.218 314.114 279.406C311.509 276.722 309.836 277.406 303.454 283.763C300.74 286.466 298.18 288.977 297.764 289.343L297.007 290.009L295.768 288.77L294.529 287.531L299.231 283.103C307.005 275.782 308.142 273.424 305.276 270.558C302.726 268.008 301.011 268.717 294.799 274.89C292.143 277.529 289.583 280.041 289.11 280.47L288.249 281.251L284.965 277.967L281.68 274.682L290.928 265.438C296.015 260.354 300.748 255.745 301.447 255.196L302.718 254.197L304.314 255.5C309.362 259.621 312.184 260.941 315.71 260.836C317.139 260.793 319.392 260.724 320.717 260.683C324.253 260.573 324.734 260.954 322.943 262.448C318.495 266.156 322.469 272.088 328.001 269.999C331.106 268.826 334.35 264.951 335.098 261.52L335.464 259.838L336.803 259.582C343.299 258.34 348.247 250.926 345.646 246.328C342.059 239.985 334.366 241.632 336.829 248.216C338.24 251.988 337.391 253.941 333.766 255.262C328.456 257.197 322.191 255.085 310.808 247.525C308.347 245.891 305.748 244.204 305.032 243.777L303.729 242.999L290.296 256.432L276.863 269.865L274.37 267.372L271.877 264.879L277.482 258.995C280.565 255.759 286.413 249.839 290.478 245.839C299.736 236.732 300.346 235.574 297.426 232.654C294.307 229.534 293.006 230.421 277.703 246.099L265.534 258.566L263.097 256.005L260.66 253.444L274.004 239.987L287.349 226.53L286.971 225.926C286.763 225.593 285.061 223.002 283.189 220.167C275.127 207.959 272.926 201.348 275.002 195.584C276.2 192.259 278.029 191.538 281.764 192.921C287.485 195.039 290.017 190.229 285.538 185.75C280.919 181.131 273.512 184.227 270.931 191.857L270.09 194.344L268.657 194.635C265.873 195.201 262.148 198.022 260.625 200.718C257.231 206.724 263.571 211.991 267.972 206.822L269.246 205.326L269.509 206.436C269.654 207.047 269.671 208.497 269.547 209.659C268.748 217.142 268.889 217.691 273.134 223.635L275.977 227.617L265.687 238.021L255.397 248.425L252.664 245.57L249.932 242.715L255.155 237.434C261.805 230.71 262.646 229.282 261.408 226.824C259.316 222.673 256.464 223.702 248.787 231.379L243.567 236.599L241.385 234.292L239.203 231.986L244.564 226.624C251.568 219.62 252.373 218.023 250.241 215.35C247.579 212.012 245.747 212.742 238.44 220.049L232.866 225.623L231.735 224.823C229.379 223.155 226.422 224.033 224.869 226.86ZM143.448 310.653C142.671 313.798 142.735 314.012 144.924 315.667C150.508 319.889 156.015 319.753 157.977 315.345C158.106 315.057 158.53 315.228 159.478 315.95C167.502 322.058 175.35 317.306 174.153 307.066L173.825 304.253L175.332 302.97C180.452 298.611 179.72 292.081 173.785 289.162C172.07 288.319 171.794 288.384 171.641 289.667C171.355 292.068 168.295 296.087 164.39 299.192C161.492 301.497 161.474 301.268 164.83 304.894C168.356 308.703 167.649 309.172 163.41 305.838C159.862 303.048 158.361 303.043 152.18 305.799C148.638 307.379 145.86 308.33 145.018 308.251C144.16 308.172 144.001 308.414 143.448 310.653ZM308.249 145.467C308.302 146.997 307.577 149.048 305.781 152.446C302.996 157.712 303.028 159.703 305.953 163.222C307.242 164.773 307.782 165.648 307.811 166.233C307.881 167.626 307.544 167.503 305.797 165.501C304.706 164.249 303.629 163.287 302.733 162.763L301.351 161.955L300.477 163.048C296.963 167.441 292.884 170.682 288.983 172.179C288.564 172.34 288.661 172.709 289.514 174.194C292.686 179.72 298.775 180.198 303.055 175.257L304.405 173.699L306.199 174.261C315.1 177.046 322.014 166.692 316.053 159.504C314.957 158.182 314.828 157.898 315.249 157.73C319.986 155.844 320.023 150.09 315.333 144.418L313.969 142.768L311.279 143.378C308.135 144.091 308.199 144.046 308.249 145.467ZM139.455 318.644C139.027 319.633 138.677 320.5 138.677 320.569C138.677 320.639 139.468 321.086 140.434 321.562C143.992 323.316 146.8 327.224 149.108 333.634C149.706 335.296 150.238 336.698 150.29 336.75C150.63 337.09 151.159 333.594 151.088 331.478C150.892 325.663 147.505 320.169 142.611 317.726C140.278 316.561 140.366 316.535 139.455 318.644ZM317.692 142.439C320.989 148.494 328.327 152.082 334.795 150.8C337.062 150.351 336.969 150.043 334.323 149.236C328.332 147.41 322.792 143.45 321.161 139.827C320.719 138.844 320.49 138.572 320.214 138.701C316.47 140.458 316.55 140.34 317.692 142.439ZM55.0777 416.613C49.8676 422.9 47.2355 427.959 46.7964 432.53C46.6023 434.552 46.7409 434.576 48.7296 432.867C51.3103 430.649 53.1546 430.052 57.8678 429.908C65.4266 429.678 68.6285 428.484 74.2174 423.816L76.0707 422.268L76.2838 424.683C76.9352 432.068 76.7455 431.778 80.4419 431.035C86.7387 429.768 92.0197 426.442 94.7581 422.018C95.6465 420.582 95.7483 420.491 95.9338 420.958C96.9046 423.406 103.379 428.794 105.922 429.27C109.652 429.968 113.122 425.16 116.519 414.589C119.679 404.753 129.035 399.289 139.241 401.32C140.765 401.623 143.562 402.094 145.457 402.366C158.714 404.272 170.144 411.492 175.026 421.046L175.496 421.967L171.46 421.956C154.751 421.912 134.7 433.97 121.282 452.132C118.344 456.109 118.435 455.703 120.247 456.784C126.615 460.583 132.025 469.965 130.558 474.666L130.278 475.561L129.505 473.506C126.91 466.611 119.376 457.935 117.746 459.967C115.184 463.162 113.051 472.801 112.886 481.925L112.796 486.976L114.489 487.204C119.156 487.831 123.57 492.242 123.357 496.065C123.301 497.071 123.259 497.143 123.033 496.609C120.448 490.496 112.694 486.429 113.625 491.674C115.583 502.704 125.5 516.205 137.456 524.115C138.422 524.755 138.568 524.538 138.901 521.96C139.814 514.907 138.395 509.714 133.771 503.189C127.123 493.807 129.363 488.401 138.657 491.402C144.302 493.225 148.656 493.819 151.781 493.195C153.106 492.93 153.126 492.767 151.945 491.87C147.979 488.86 146.457 484.619 146.339 476.252C146.24 469.213 145.859 467.136 143.817 462.488C134.203 440.607 151.702 426.786 184.581 430.29L188.185 430.674L189.786 428.233C190.666 426.891 191.377 425.764 191.366 425.73C191.355 425.696 190.485 424.395 189.432 422.84C184.233 415.159 184.264 408.065 189.522 402.025L191.152 400.153L193.496 399.871C199.152 399.191 203.163 396.756 205.683 392.473C208.448 387.773 213.594 387.131 218.597 390.863C219.252 391.351 219.814 391.726 219.845 391.695C223.186 388.354 221.63 381.621 216.803 378.534C212.199 375.59 211.009 373.559 213.691 373.227C216.628 372.862 217.721 371.587 218.947 367.088C220.387 361.806 221.022 361.181 225.805 360.34C228.422 359.88 228.331 359.988 227.653 358.159C224.142 348.674 213.38 349.787 201.306 360.882C196.558 365.246 198.308 366.483 206.493 364.548C209.259 363.894 209.256 364.165 206.485 365.295C203.412 366.55 199.732 367.204 196.839 367.01C192.506 366.72 187.978 371.183 183.276 380.376C180.868 385.084 185.66 386.889 195.618 385.024C198.863 384.416 198.952 384.48 196.63 385.747C192.873 387.797 187.944 388.356 182.951 387.298C181.617 387.016 180.455 386.855 180.369 386.942C179.374 387.937 177.921 398.21 177.946 404.066L177.966 408.511L174.39 405.24C157.762 390.03 140.927 384.002 121.23 386.206L119.306 386.421L118.481 388.928C116.306 395.543 110.134 403.721 104.53 407.416L102.816 408.546L105.807 405.502C112.098 399.102 115.815 393.237 116.258 389.013L116.355 388.094L112.324 388.159C104.411 388.288 96.6117 390.085 89.3722 393.445L87.5146 394.308L87.3817 396.051C86.9975 401.099 84.3578 406.017 79.2808 411.141C75.2996 415.16 73.4513 416.299 75.9969 413.164C81.0885 406.895 84.3582 400.863 84.7324 397.048L84.8479 395.871L83.8627 396.184C76.1495 398.637 61.1567 409.278 55.0777 416.613ZM410.596 61.2855C405.207 67.5692 400.03 75.9244 397.687 82.1184L396.906 84.1825L397.882 84.0645C400.967 83.6914 405.144 81.5409 411.824 76.8875C416.504 73.6262 416.897 73.5663 414.398 76.4959C409.897 81.7713 403.059 85.7589 397.087 86.5909L395.089 86.8695L394.083 89.1374C388.899 100.819 387.135 116.213 391.091 115.243C395.337 114.202 399.058 111.756 405.287 105.914L409.918 101.571L408.591 103.527C404.626 109.371 397.038 115.153 389.921 117.753L387.103 118.783L386.825 121.561C384.939 140.462 392.6 160.155 407.74 175.328L409.814 177.407L407.589 177.23C402.521 176.828 396.976 177.33 391.049 178.725C387.168 179.639 387.554 179.186 388.177 182.089C389.305 187.344 388.417 193.601 386.09 196.794L385.352 197.807L385.819 195.315C386.68 190.724 386.291 182.334 385.166 181.209C383.913 179.955 373.233 186.924 369.5 191.432L367.982 193.264L367.815 196.751C367.619 200.848 367.042 203.837 366.011 206.103C364.898 208.546 364.676 208.519 365.342 206.019C365.928 203.821 366.168 197.226 365.681 196.738C365.341 196.398 359.991 202.236 357.832 205.303C350.796 215.299 350.882 222.636 358.077 226.332C360.689 227.673 360.63 227.709 361.231 224.411C361.861 220.955 362.879 219.66 365.643 218.804C366.562 218.519 368.368 217.961 369.657 217.565C372.699 216.629 373.768 215.476 374.103 212.77C374.427 210.157 376.612 211.445 379.29 215.828C382.395 220.908 384.455 221.669 390.011 219.787C393.218 218.701 393.063 218.868 391.922 217.727C387.68 213.485 388.474 207.981 393.847 204.384C397.963 201.629 400.043 198.406 400.511 194.061C401.597 183.969 414.167 181.486 425.129 189.198C426.3 190.022 426.959 190.307 427.287 190.132C428.773 189.333 431.688 187.239 431.664 186.987C431.649 186.824 431.428 184.732 431.174 182.336C427.837 150.886 442.89 132.481 463.361 142.984C467.384 145.048 469.684 145.504 476.404 145.565C485.218 145.646 488.425 146.589 492.12 150.184C493.066 151.104 493.928 151.769 494.036 151.661C494.964 150.733 493.959 142.86 492.267 137.798C489.046 128.162 494.423 126.296 504.806 133.446C511.509 138.061 517.483 139.358 524.736 137.77L525.678 137.564L524.228 135.606C514.416 122.359 501.509 113.511 490.902 112.762L489.885 112.691L489.969 113.805C490.131 115.94 493.481 119.967 496.644 121.828L498.096 122.682L497.054 122.718C492.913 122.86 488.057 117.692 487.952 113.03L487.927 111.914L483.099 112.031C473.419 112.266 460.174 115.499 460.175 117.625C460.177 119.609 468.557 126.218 474.042 128.562C477.043 129.843 477.045 130 474.068 130.038C468.836 130.106 462.522 126.195 458.406 120.337C456.369 117.438 457.155 117.402 452.785 120.596C435.421 133.288 423.375 153.562 422.962 170.789C422.85 175.427 422.987 175.35 419.433 172.788C410.452 166.312 404.713 156.476 403.074 144.749C402.75 142.424 402.301 139.425 402.077 138.083C400.983 131.524 403.2 124.63 407.972 119.755L410.139 117.541L416.002 115.511C422.08 113.408 425.394 111.723 428.637 109.089L430.229 107.796L430.136 106.365C429.95 103.515 428.912 101.78 425.103 97.9527L421.705 94.5376L423.327 93.5341C427.725 90.8146 431.615 84.0198 432.051 78.2948C432.236 75.8808 432.418 76.0146 428.614 75.7612C425.381 75.5456 423.715 75.3197 423.457 75.0616C423.379 74.9836 424.275 73.8614 425.449 72.5673C428.793 68.8793 429.711 66.2339 430.264 58.6889C430.653 53.3833 431.9 50.0546 434.474 47.4534C435.746 46.1683 435.58 45.9689 433.376 46.1364C426.791 46.6378 418.335 52.2612 410.596 61.2855ZM177.34 306.9C177.699 307.26 177.622 309.457 177.181 311.447C176.777 313.267 176.757 313.238 178.351 313.101C179.714 312.984 181.882 313.657 182.688 314.447C183.98 315.714 183.57 313.103 182.078 310.561C180.961 308.658 179.976 307.614 178.52 306.791C177.52 306.225 176.737 306.298 177.34 306.9ZM306.434 177.933C307.172 179.588 311.36 182.78 313.279 183.149C314.91 183.462 315.164 183.226 314.287 182.213C313.41 181.201 313.187 180.339 313.249 178.2L313.294 176.645L311.631 177.079C310.716 177.317 309.125 177.5 308.095 177.485C306.625 177.464 306.268 177.56 306.434 177.933ZM47.0086 440.242C48.0215 453.252 66.0205 462.361 74.4095 454.109C82.1702 446.476 77.0116 439.817 68.8493 446.931C64.3467 450.856 59.7914 445.766 59.6682 436.672C59.5957 431.335 57.7911 431.312 49.9731 436.546C48.777 437.347 47.5903 438.118 47.3364 438.26C47.0416 438.424 46.9229 439.142 47.0086 440.242ZM436.583 50.7655C432.609 57.7045 432.507 58.9653 435.93 58.8123C442.058 58.5385 448.438 60.9726 449.385 63.945C449.778 65.1771 449.33 66.1229 447.128 68.7149C442.379 74.304 445.081 78.5258 451.858 76.1078C464.94 71.4407 456.626 47.9923 441.324 46.3959C439.268 46.1815 439.14 46.3001 436.583 50.7655ZM170.831 332.78C174.306 336.256 173.989 339.396 169.385 347.091C163.327 357.215 162.427 363.38 166.037 370.014L166.672 371.182L165.271 372.87C159.297 380.069 164.484 391.217 174.767 393.279L176.292 393.585L176.822 391.063C177.378 388.416 179.619 381.571 180.085 381.099C180.263 380.918 180.001 380.465 179.32 379.779C174.469 374.892 173.112 368.455 175.062 359.583C175.329 358.369 175.233 358.065 176.334 363.607C177.308 368.51 177.997 370.657 179.676 374.027C181.483 377.653 181.708 377.837 182.722 376.514C184.154 374.647 188.907 369.231 192.797 365.034L196.586 360.947L196.786 358.257C197.296 351.434 199.039 346.82 202.355 343.515L203.671 342.204L202.588 344.404C200.698 348.241 199.952 352.258 200.462 355.845C200.819 358.352 200.891 358.429 202.086 357.58C202.614 357.205 205.098 355.603 207.607 354.018C217.756 347.608 220.41 344.877 222.749 338.433C224.667 333.149 225.422 326.267 224.645 321.161C224.212 318.317 224.266 318.371 222.6 319.116C220.899 319.876 221.05 320.17 220.865 315.739C220.486 306.655 216.793 302.499 209.393 302.83C200.602 303.223 194.609 311.258 199.477 316.126C203.016 319.665 206.403 318.68 206.938 313.958C207.584 308.258 210.205 307.596 214.626 312.016C219.24 316.631 217.639 321.45 210.643 324.009L207.279 325.241L204.992 327.55C202.205 330.364 201.493 331.792 199.619 338.326C195.26 353.528 181.839 354.427 180.872 339.582C180.372 331.905 177.749 329.49 171.756 331.189L169.795 331.745L170.831 332.78ZM331.87 172.004C330.867 177.245 333.289 179.576 340.165 179.987C346.471 180.363 350.215 183.553 350.68 188.949C351.077 193.535 347.511 196.535 338.494 199.201C332.234 201.053 331.59 201.391 328.518 204.438L325.881 207.053L324.698 210.353C322.996 215.099 321.719 216.208 318.031 216.143C314.732 216.085 311.608 213.737 310.524 210.501C309.542 207.571 310.408 206.632 314.578 206.109C321.2 205.278 320.256 197.829 313.494 197.552C305.438 197.222 300.315 209.23 305.69 215.841C308.01 218.694 311.018 219.795 317.224 220.059L320.555 220.201L320.06 221.631C319.473 223.328 319.5 223.35 322.91 224.013C328.24 225.05 338.477 223.109 343.523 220.105C346.165 218.533 350.603 213.671 353.029 209.691C354.032 208.046 355.787 205.272 356.929 203.528C359.321 199.877 359.231 200.127 358.242 199.828C355.005 198.847 349.096 199.847 344.353 202.179L342.199 203.238L343.292 202.142C346.758 198.665 352.622 196.299 358.376 196.057C362.314 195.891 362.052 196.038 366.585 191.461C368.912 189.112 372.194 186.116 374.426 184.305C378.91 180.666 378.752 181.038 376.419 179.623C373.471 177.835 370.23 176.803 361.591 174.904L359.484 174.44L360.59 174.153C368.236 172.164 375.991 173.784 380.524 178.317C381.25 179.043 381.787 179.392 381.942 179.238C382.391 178.789 388.019 176.917 391.347 176.11L394.612 175.318L394.338 174.173C391.799 163.592 380.551 158.362 373.558 164.511L371.877 165.99L370.061 164.982C364.065 161.655 358.1 162.623 347.901 168.579C340.074 173.149 337.171 173.469 333.821 170.128C332.559 168.869 332.449 168.975 331.87 172.004ZM93.3393 455.75C92.2495 457.746 91.7912 459.034 90.4264 463.942C87.0573 476.053 81.3263 480.578 73.372 477.407C71.7003 476.741 71.7417 476.67 72.2493 479.322C74.276 489.912 79.4619 493.974 89.0568 492.486C93.3909 491.814 93.0795 491.649 92.2762 494.19C88.8982 504.878 93.3675 510.769 106.521 512.965C111.208 513.747 110.649 513.406 111.11 515.759C112.688 523.824 121.659 530.186 131.926 530.521C135.28 530.63 135.011 529.823 130.034 524.837C121.76 516.55 113.814 505.095 111.506 498.128C111.095 496.888 110.676 495.874 110.574 495.874C110.004 495.873 107.209 498.63 106.182 500.206C104.858 502.236 104.608 502.029 105.294 499.473C105.938 497.077 107.009 495.264 108.887 493.394L110.645 491.643L110.282 488.005C109.808 483.245 109.755 474.909 110.178 471.586C110.504 469.025 110.491 468.952 109.733 469.085C107.087 469.551 103.372 472.152 98.6113 476.873C96.5909 478.876 94.9382 480.438 94.9382 480.343C94.9371 476.98 104.797 467.369 109.626 466.025L111.423 465.525L112.812 461.549C116.126 452.067 120.551 445.27 128.777 437.024C131.452 434.342 133.606 432.114 133.564 432.072C130.829 429.338 122.267 430.125 118.611 433.447C114.717 436.986 113.952 438.719 111.874 448.707C111.716 449.467 111.589 449.485 109.035 449.105C101.823 448.032 96.2708 450.382 93.3393 455.75ZM451.247 97.8189C449.777 100.759 449.448 103.524 449.92 108.983L450.104 111.12L447.456 111.536C434.362 113.591 427.738 122.922 432.746 132.255L433.086 132.889L436.412 129.295C444.02 121.073 454.488 114.311 464.86 110.917L466.545 110.366L467.086 108.562C468.619 103.45 474.951 96.8333 480.333 94.7208L481.644 94.206L477.19 98.6598C470.472 105.378 468.193 110.168 472.028 109.508C475.025 108.993 479.998 108.832 482.81 109.159C492.305 110.263 491.705 110.34 494.749 107.63C496.601 105.983 497.432 105.438 498.854 104.94C500.655 104.309 503.679 103.873 502.488 104.415C501.725 104.762 496.505 109.593 496.691 109.779C496.767 109.856 497.678 110.198 498.714 110.539C506.592 113.137 517.12 120.597 527.412 130.875C529.25 132.711 530.832 134.133 530.929 134.036C535.775 129.19 526.367 113.355 516.874 110.38L514.336 109.584L513.818 105.992C511.814 92.0732 506.979 88.6232 493.819 91.7188L492.827 91.9518L493.476 90.0057C496.266 81.634 488.527 71.3275 479.353 71.199C477.761 71.1765 477.247 71.5148 477.893 72.1605C479.184 73.4519 479.516 77.9793 478.512 80.6048C476.91 84.7932 473.471 87.0833 465.081 89.5493C456.93 91.9448 453.014 94.2854 451.247 97.8189ZM232.415 378.413C231.33 381.389 232.114 384.7 234.541 387.397C235.14 388.062 235.579 388.655 235.518 388.714C235.457 388.774 234.777 389.159 234.007 389.57C228.508 392.509 227.686 399.509 232.201 404.953C234.378 407.578 238.836 409.155 240.964 408.053C241.514 407.769 241.514 407.936 240.965 409.352C238.141 416.642 245.602 421.471 254.361 418.023C258 416.591 259.354 416.382 261.182 416.976C261.886 417.205 262.498 417.356 262.541 417.313C262.584 417.27 262.83 416.722 263.087 416.095C263.701 414.599 266.324 411.573 268.01 410.415L269.348 409.496L268.827 408.715C266.468 405.176 263.54 404.33 256.844 405.253C252.57 405.843 251.798 405.808 253.511 405.105C257.151 403.61 264.101 402.858 266.919 403.654C266.977 403.67 266.994 402.643 266.959 401.37C266.923 400.098 267.168 398.155 267.504 397.053C268.204 394.752 268.056 394.49 264.976 392.585C262.069 390.786 259.646 390.244 254.297 390.196C251.612 390.172 249.456 390.11 249.507 390.059C249.93 389.636 257.186 388.57 259.062 388.654C262.727 388.82 266.981 390.588 269.576 393.025C269.725 393.165 270.603 392.587 271.763 391.585C274.582 389.151 276.475 388.23 278.629 388.246L280.429 388.258L280.326 385.606L280.224 382.954L277.976 381.655C272.635 378.568 266.083 376.904 259.14 376.871L254.948 376.851L257.143 376.419C263.965 375.079 272.121 376.622 279.034 380.561L281.2 381.795L283.941 379.053L286.683 376.312L285.253 375.152C282.402 372.841 279.502 372.272 274.331 373.009C265.35 374.289 262.882 373.247 261.013 367.387C260.076 364.45 259.821 363.957 258.811 363.112C254.745 359.71 245.686 364.554 245.499 370.231C245.416 372.717 245.4 372.733 243.225 372.366C238.625 371.589 233.947 374.206 232.415 378.413ZM263.003 347.57C261.336 351.139 261.772 354.596 264.21 357.156C265.526 358.539 265.542 358.58 264.86 358.887C259.288 361.397 261.475 370.592 267.889 371.618C268.713 371.75 271.067 371.572 273.121 371.223C278.87 370.246 283.05 371.065 287.069 373.955C287.916 374.564 288.719 374.797 290.144 374.849C291.205 374.887 293.357 375.264 294.927 375.685C297.358 376.338 297.831 376.365 298.119 375.865C298.306 375.542 299.112 374.621 299.912 373.818L301.365 372.359L300.867 370.558C300.593 369.567 300.239 367.707 300.079 366.424C299.743 363.718 299.744 363.719 295.754 362.295C292.689 361.201 288.207 360.303 283.154 359.769C279.097 359.34 279.519 359.021 284.073 359.075C287.894 359.12 291.049 359.727 296.252 361.416C300.01 362.637 300.183 362.658 300.605 361.959C301.267 360.863 301.189 360.699 299.404 359.418C297.362 357.952 295.48 355.699 293.452 352.294L291.895 349.679L290.564 349.408C289.833 349.259 287.505 349.016 285.393 348.868C281.693 348.609 280.232 348.387 280.495 348.124C281.108 347.51 284.697 346.888 287.922 346.835L291.862 346.771L292.236 345.694C295.459 336.412 281.553 332.666 276.378 341.422C275.89 342.248 275.825 342.254 274.331 341.637C270.733 340.151 265.085 343.108 263.003 347.57ZM342.138 268.554C341.093 270.613 340.843 274.044 341.64 275.375C342.014 276 341.975 276.174 341.374 276.549C332.628 282.006 336.056 295.453 345.42 292.418L346.713 291.999L346.682 288.361C346.652 284.906 347.042 282.505 347.888 280.932L348.269 280.224L348.39 281.434C348.457 282.1 348.644 284.259 348.807 286.233C348.969 288.207 349.234 290.377 349.394 291.055L349.686 292.288L352.118 293.579C354.437 294.81 359.103 298.942 360.334 300.854C360.576 301.23 360.921 301.227 361.729 300.841L362.802 300.328L361.725 297.615C359.794 292.749 358.923 288.654 358.921 284.423C358.919 280.758 359.447 278.712 359.51 282.144C359.592 286.649 362.381 298.483 363.662 299.765C363.805 299.908 365.322 300.193 367.033 300.4C368.744 300.607 370.534 300.897 371.009 301.045C371.757 301.278 372.074 301.149 373.342 300.096C374.15 299.425 375.169 298.64 375.607 298.351C376.332 297.874 376.361 297.735 375.927 296.809C375.665 296.249 375.261 294.226 375.03 292.311C374.655 289.202 374.424 288.458 372.853 285.318C370.329 280.273 369.75 275.876 371.077 271.821C373.551 264.26 362.38 257.665 358.874 264.616L358.233 265.886L356.893 264.55C352.551 260.222 345.376 262.169 342.138 268.554ZM373.091 237.315C372.173 239.123 371.992 240.182 372.116 243.049L372.226 245.613L369.862 245.948C366.48 246.426 364.298 248.242 362.623 251.972C360.458 256.793 362.071 259.848 367.696 261.58C373.155 263.26 374.28 265.929 372.993 274.145C372.178 279.345 372.52 281.998 374.347 284.654C375.992 287.044 375.944 287.05 378.987 284.007L381.622 281.372L380.971 280.272C376.633 272.941 374.986 265.733 376.011 258.562C376.457 255.444 376.756 255.158 376.686 257.919C376.501 265.229 378.077 271.97 381.354 277.883L382.808 280.505L385.402 280.505L387.995 280.506L388.04 278.71C388.093 276.562 389.005 274.716 391.361 271.987C393.004 270.084 393.024 270.038 392.456 269.471C388.729 265.743 387.489 258.318 389.442 251.422L390.007 249.427L390.014 254.413C390.023 260.802 390.728 263.097 393.942 267.188L394.856 268.352L396.571 267.777C397.514 267.461 399.468 267.191 400.913 267.176L403.539 267.15L403.337 264.74C402.982 260.508 403.464 257.055 404.798 254.265C405.634 252.515 405.845 252.635 405.34 254.572C404.771 256.754 404.668 261.674 405.132 264.45L405.515 266.735L406.894 267.476C407.652 267.884 408.479 268.423 408.731 268.675C409.17 269.114 409.299 269.023 411.881 266.464C413.839 264.522 414.926 263.64 415.866 263.226L417.16 262.657L416.749 261.657C416.09 260.053 416.421 258.06 418.027 253.949C419.854 249.272 419.99 247.478 418.694 245.12C416.754 241.591 412.806 239.956 409.167 241.173C408.225 241.489 407.574 241.627 407.72 241.48C409.121 240.079 407.643 235.068 405.077 232.519C399.876 227.352 393.247 228.432 389.078 235.126L388.448 236.137L387.165 234.855C382.816 230.505 375.939 231.707 373.091 237.315ZM186.779 438.171C186.78 439.847 187.549 440.97 191.209 444.635C198.266 451.703 197.137 454.645 187.052 455.47C178.627 456.159 170.885 462.188 165.842 471.988C164.043 475.484 164.005 475.436 167.642 474.329C173.633 472.504 184.02 470.21 193.784 468.555C194.759 468.39 195.556 468.136 195.556 467.99C195.556 467.096 190.578 462.524 188.569 461.573C188.234 461.415 188.44 461.324 189.216 461.289C191.644 461.178 197.115 463.702 199.443 466.008C199.88 466.441 200.749 467.183 201.373 467.657L202.509 468.519L207.899 466.194C218.451 461.643 233.203 451.965 233.202 449.595C233.202 448.417 220.387 444.609 214.681 444.092C212.241 443.871 212.18 443.73 214.255 443.118C219.188 441.663 226.419 442.678 234.059 445.897C235.805 446.633 235.834 446.631 236.505 445.757C243.702 436.38 246.388 431.503 247.682 425.463L248.24 422.859L247.278 422.552C246.749 422.384 245.724 422.246 245.002 422.246L243.688 422.245L242.892 424.197C240.604 429.807 237.313 431.483 228.749 431.404C219.823 431.321 217.504 431.982 213.762 435.682L211.668 437.752L211.296 436.608C210.275 433.464 208.436 433.349 202.453 436.053C198.208 437.971 193.147 438.381 189.158 437.129C187.017 436.457 186.779 436.562 186.779 438.171ZM436.256 188.092C438.208 190.046 438.246 195.53 436.345 200.874C434.289 206.653 434.254 206.772 434.158 208.164C434.036 209.929 434.728 210.953 436.431 211.529L437.771 211.982L436.497 212.988C432.474 216.164 431.173 219.923 431.068 228.67C430.952 238.322 429.742 240.756 423.948 242.995C421.993 243.751 421.823 244.143 422.311 246.781L422.608 248.383L424.547 247.992C430.967 246.698 436.967 243.589 443.424 238.212C445.037 236.869 446.352 235.707 446.347 235.629C446.341 235.552 445.814 234.256 445.176 232.75C442.184 225.693 441.507 219.259 443.167 213.643L443.675 211.924L443.806 213.959C444.076 218.179 447.066 229.51 448.76 232.737L449.099 233.383L451.876 230.606C457.778 224.704 462.121 217.682 466.627 206.754L468.384 202.493L466.216 200.063C462.87 196.31 461.197 192.81 461.259 189.694L461.29 188.132L461.784 189.388C462.339 190.798 466.327 195.026 467.57 195.522C468.254 195.795 468.269 195.765 468.516 193.648C469.07 188.914 470.995 179.624 473.505 169.582L474.72 164.717L473.807 165.002C465.011 167.748 455.429 179.715 454.965 188.534C454.503 197.299 451.231 198.242 444.517 191.546C441.458 188.497 440.696 187.863 439.588 187.447C437.828 186.786 435.418 187.253 436.256 188.092ZM304.043 325.276C303.735 325.931 303.235 327.981 302.931 329.83L302.378 333.193L300.818 333.272C296.167 333.507 293.282 339.441 294.663 345.935C295.831 351.429 301.312 360.132 302.97 359.124C303.387 358.871 304.774 358.394 306.051 358.065C308.926 357.324 308.922 357.329 308.113 355.867C306.645 353.217 305.389 348.696 305.306 345.767L305.224 342.881L305.894 345.277C306.851 348.705 310.958 356.458 311.786 356.401C311.881 356.394 313.251 355.219 314.83 353.789L317.701 351.189L317.242 349.417C316.645 347.113 316.81 344.712 317.77 341.738L318.544 339.34L318.501 341.719C318.435 345.328 319.876 350.794 320.809 350.475C320.856 350.458 321.418 350.249 322.056 350.009C322.694 349.77 324.041 349.648 325.051 349.738C327.874 349.991 329.001 347.382 329 340.596C328.998 333.291 326.658 329.712 321.968 329.842L319.923 329.899L316.338 326.495C310.338 320.798 306.333 320.402 304.043 325.276ZM322.397 306.864C321.034 309.742 321.931 311.888 326.555 316.811L329.986 320.463L329.826 321.938C329.142 328.234 337.934 331.26 347.606 328.058C349.692 327.367 349.996 327.072 349.631 326.095C349.472 325.67 349.476 324.362 349.639 323.188C349.962 320.875 349.824 320.6 347.873 319.665C345.998 318.766 344.004 318.484 341.283 318.732C339.692 318.877 339.127 318.825 339.597 318.578C342.006 317.309 345.827 316.811 348.958 317.358L351.234 317.756L352.064 316.665C352.521 316.065 353.682 314.786 354.645 313.824L356.395 312.073L354.993 310.966C353.074 309.45 347.971 306.949 344.949 306.042C342.075 305.18 342.59 305.019 346.722 305.488C350.368 305.902 353.097 306.819 356.843 308.888C357.075 309.016 357.358 308.323 357.671 306.866C357.933 305.647 358.427 304.239 358.769 303.739L359.391 302.829L356.855 300.497C347.534 291.927 334.557 292.81 333.134 302.111C333.056 302.619 332.618 302.767 330.561 302.984C325.85 303.48 323.464 304.614 322.397 306.864ZM164.543 480.826C165.994 481.799 168.528 482.496 171.823 482.827C173.561 483.002 174.983 483.202 174.984 483.273C174.983 483.344 174.284 484.577 173.429 486.013C170.617 490.738 170.156 493.613 171.926 495.383C174.37 497.827 177.812 496.757 186.285 490.921C190.304 488.153 190.145 488.169 189.628 490.597C188.775 494.607 189.928 500.254 192.029 502.356C192.128 502.454 193.134 501.609 194.265 500.479C197.485 497.258 200.27 495.963 207.1 494.511C218.146 492.162 225.06 485.81 227.572 475.704C228.434 472.239 229.332 471.309 233.546 469.518C238.936 467.226 240.411 464.772 240.906 457.269C241.061 454.917 240.816 447.856 240.571 447.604C240.511 447.543 238.866 449.156 236.914 451.189C233.042 455.223 230.557 457.321 224.326 461.822L220.233 464.778L219.944 466.194C219.136 470.145 213.533 477.484 208.973 480.564L207.928 481.27L209.093 479.809C213.701 474.034 214.946 471.871 215.593 468.521C216.181 465.476 216.168 465.468 212.849 466.82C207.192 469.125 201.654 470.424 188.473 472.538C178.816 474.086 172.687 475.765 166.72 478.498C163.641 479.908 163.461 480.1 164.543 480.826ZM478.02 167.267C475.39 173.304 473.969 178.971 471.912 191.618C470.11 202.701 468.075 210.35 465.828 214.49C465.042 215.938 465.108 216.03 466.928 216.031C469.938 216.032 473.461 214.192 479.078 209.686L481.992 207.348L480.656 209.076C476.39 214.594 469.474 219.782 465.491 220.451L464.441 220.627L461.203 225.171C457.161 230.84 452.829 235.971 449.866 238.6L447.592 240.617L449.051 240.783C461.794 242.238 466.806 240.462 469.596 233.505C471.34 229.159 472.28 228.274 476.141 227.345C480.434 226.312 484.303 224.016 488.034 220.284C491.778 216.541 492.612 214.799 494.358 207.069C495.925 200.135 497.114 197.63 500.387 194.356C502.556 192.188 502.571 192.334 500.039 191.077C496.903 189.52 493.341 189.227 488.724 190.148C487.903 190.312 487.919 190.257 489.229 188.465C496.2 178.924 497.611 175.039 495.039 172.467C493.095 170.524 490.422 170.855 486.096 173.576C484.687 174.463 483.366 175.282 483.161 175.398C482.928 175.529 482.733 174.47 482.643 172.578C482.469 168.949 481.782 166.651 480.48 165.35C479.358 164.227 479.338 164.242 478.02 167.267ZM270.818 395.345C268.94 399.344 269.388 405.149 271.9 409.35L272.648 410.601L271.297 411.291C259.722 417.208 263.048 433.086 276.162 434.516L278.88 434.812L278.796 437.725C278.513 447.531 284.949 450.298 296.334 445.265C301.15 443.136 300.942 443.361 299.639 441.686C299.029 440.902 298.106 439.338 297.588 438.209L296.646 436.158L295.127 435.992C292.035 435.655 289.169 434.257 288.041 432.537C287.525 431.749 287.528 431.748 289.397 432.334C293.962 433.767 297.49 433.272 298.246 431.094C298.755 429.631 301.59 425.86 302.646 425.242C303.363 424.822 303.086 424.527 301.612 424.139C297.957 423.177 291.467 419.563 288.164 416.651L286.186 414.907L289.354 416.556C308.349 426.438 320.95 426.626 331.695 417.187C334.668 414.575 334.621 414.515 330.243 415.379C319.814 417.437 313.143 415.597 304.608 408.309C299.697 404.114 295.536 402.013 289.386 400.62C286.585 399.986 287.249 399.686 291.163 399.818C297.723 400.038 304.544 403.246 312.47 409.838C318.38 414.753 319.749 415.12 327.692 413.921C333.692 413.016 336.902 411.292 337.588 408.608L337.878 407.475L335.995 405.592L334.112 403.709L333.059 404.079C323.45 407.454 311.093 401.502 309.938 392.942C309.713 391.27 309.881 391.358 307.825 391.837C301.538 393.303 295.12 387.438 295.429 380.51L295.529 378.284L293.934 378.099C287.559 377.358 283.9 380.51 282.253 388.16C281.935 389.637 281.544 390.781 281.385 390.701C277.822 388.919 272.8 391.126 270.818 395.345ZM390.629 275.741C389.995 277.057 389.799 278.957 390.13 280.581L390.424 282.022L389.105 282.056C382.796 282.218 376.54 288.891 377.639 294.285L377.936 295.739L381.53 296.001C389.617 296.591 392.159 299.668 391.424 307.976L391.252 309.919L393.473 310.397C401.62 312.149 407.01 323.315 404.119 332.452L403.515 334.363L405.324 336.173C409.495 340.347 413.123 335.642 414.116 324.772C414.6 319.465 414.124 318.138 409.861 312.909C401.811 303.034 398.135 293.984 399.874 288.325C400.153 287.418 400.078 287.229 400.86 290.818C402.313 297.48 403.845 300.404 408.836 306.034C415.641 313.711 416.863 318.2 415.303 329.802L414.725 334.101L416.567 332.388C426.103 323.518 426.285 310.733 417.155 290.871C415.515 287.303 415.3 286.664 416.072 287.649C419.308 291.779 422.457 297.295 423.667 300.953C424.537 303.58 424.535 303.576 425.014 302.775C425.624 301.756 429.303 299.057 431.007 298.379L432.583 297.752L432.792 296.497C433.058 294.899 432.83 292.382 432.176 289.705C431.535 287.084 431.624 287 433.106 288.828C434.479 290.521 435.289 292.428 435.792 295.149L436.145 297.056L438.079 297.898C439.143 298.362 440.657 299.248 441.445 299.869L442.876 300.997L443.529 300.045C450.6 289.729 447.182 278.009 437.368 278.916C436.149 279.028 434.985 279.135 434.781 279.154C434.572 279.173 434.335 278.112 434.238 276.734C433.336 263.822 417.008 260.035 411.063 271.357L410.162 273.073L408.938 272.036C404.078 267.92 393.351 270.091 390.629 275.741ZM302.982 363.706C301.79 365.69 301.811 367.248 303.081 370.925L303.997 373.575L302.179 375.378C295.503 382 302.151 392.341 311.241 389.473L312.163 389.182L312.479 390.886C313.84 398.241 322.649 403.604 330.524 401.872C332.987 401.331 333.522 400.895 334.22 398.857C334.899 396.877 336.243 394.422 337.15 393.507C337.905 392.746 338.096 392.85 334.71 392.177C329.515 391.145 323.385 388.351 318.389 384.74C315.637 382.75 314.957 381.933 317.283 383.41C323.265 387.21 331.138 389.87 337.941 390.389C341.898 390.691 342.059 390.639 344.922 388.142L347.431 385.953L346.583 385.106C345.476 384.002 343.938 383.653 340.349 383.695C334.032 383.768 326.873 379.53 322.515 373.135C320.395 370.023 320.57 369.597 322.98 372.004C328.664 377.686 335.011 381.153 340.066 381.341L342.014 381.413L341.916 380.196C341.71 377.604 341.205 376.599 339.769 375.918C335.25 373.777 332.651 369.558 331.647 362.732C329.889 350.793 318.381 347.696 314.783 358.195L314.153 360.031L311.575 359.97C307.706 359.877 304.426 361.304 302.982 363.706ZM338.101 340.698C337.865 343.435 341.082 344.465 343.212 342.335C344.188 341.359 344.343 340.549 343.771 339.415C342.322 336.539 338.381 337.43 338.101 340.698ZM160.327 520.645C153.097 532.505 166.837 550.078 185.499 552.84C192.311 553.848 209.588 551.964 209.587 550.213C209.586 548.003 200.126 541.736 195.097 540.614C192.142 539.955 192.248 540.012 193.332 539.667C198.665 537.971 207.094 542.01 210.837 548.055C212.001 549.934 211.74 549.908 215.017 548.468C224.745 544.193 234.737 535.889 240.614 527.196C242.357 524.617 238.724 522.165 230.686 520.498C227.102 519.754 226.833 519.582 228.446 519.07C231.454 518.113 236.379 519.248 240.721 521.899C241.842 522.584 242.921 523.16 243.119 523.178C243.706 523.234 247.219 518.587 250.334 513.636C254.992 506.232 258.527 502.092 261.96 500.019L262.672 499.589L260.489 496.864C257.87 493.595 257.99 493.626 254.905 495.427C252.47 496.849 247.767 501.207 245.002 504.603L243.507 506.438L242.257 505.453C238.122 502.192 234.196 502.462 225.815 506.58C220.061 509.407 218.916 509.736 214.15 509.922C207.608 510.178 207.967 512.806 215.343 518.659C220.62 522.846 221.545 525.865 218.724 529.683C215.841 533.584 212.278 533.004 204.857 527.425C199.764 523.595 197.934 522.545 195.512 522.063C189.978 520.959 185.637 523.79 186.32 528.058L186.561 529.565L185.553 529.092C184.226 528.47 182.151 528.665 178.095 529.794C171.092 531.745 168.025 530.932 166.65 526.763L166.165 525.294L167.582 523.599C170.09 520.598 170.389 518.086 168.42 516.546C166.098 514.729 162.967 516.315 160.327 520.645ZM330.491 350.526C329.517 353.394 333.507 354.667 335.916 352.258C337.048 351.127 336.966 350.102 335.639 348.775C333.787 346.922 331.443 347.719 330.491 350.526ZM518.064 162.849C515.869 167.659 521.172 170.108 525.315 166.197C526.874 164.724 527.594 164.771 529.661 166.476C532.16 168.537 532.698 170.852 531.712 175.31C530.334 181.543 530.144 182.789 530.362 184.152L530.596 185.612L529.4 185.303C526.015 184.43 523.482 187.165 523.24 191.958C523.069 195.337 524.006 197.346 528.716 203.696C534.206 211.098 534.647 213.953 530.882 217.721C528.122 220.482 525.513 219.565 519.729 213.799C516.654 210.733 514.206 208.944 512.644 208.618L511.671 208.415L511.501 210.952C511.156 216.115 510.441 218.827 508.336 222.969C503.929 231.639 503.602 236.589 507.076 242.014C507.512 242.694 507.492 242.73 506.176 243.67C502.67 246.175 497.527 251.936 495.824 255.266L495.101 256.678L497.136 258.422C500.541 261.339 500.82 261.488 501.331 260.66C503.526 257.104 507.67 253.602 515.237 248.909C519.098 246.514 524.506 242.484 524.506 242.002C524.505 241.877 523.806 240.601 522.952 239.166C520.279 234.678 519.47 231.128 520.277 227.429C520.814 224.963 520.943 225.12 521.764 229.25C522.898 234.96 525.708 240.529 527.268 240.162C529.4 239.659 540.165 229.374 543.501 224.652C548.383 217.743 551.658 210.867 550.347 210.278C544.071 207.458 539.375 198.323 540.994 192.087L541.294 190.932L541.513 192.006C542.767 198.152 544.155 200.793 548.319 204.958C552.074 208.713 551.877 208.697 552.675 205.29C557.073 186.494 553.531 172.175 542.144 162.714C533.011 155.126 521.559 155.19 518.064 162.849ZM350.058 335.871C349.231 338.107 350.381 339.731 352.85 339.813C354.539 339.869 355.448 338.858 355.33 337.056C355.067 333.021 351.414 332.2 350.058 335.871ZM251.652 437.241C249.844 439.83 249.744 443.423 251.411 445.872C252.631 447.664 252.6 447.821 250.619 449.811C243.341 457.125 245.134 464.268 255.129 467.783C263.074 470.576 263.933 472.239 262.796 482.61C261.421 495.143 267.165 501.086 276.005 496.276C277.554 495.434 278.438 496.221 280.551 500.324C285.375 509.692 295.766 508.862 300.049 498.768C300.509 497.685 300.919 496.807 300.961 496.817C301.002 496.828 301.89 497.333 302.933 497.941C315.403 505.206 326.535 477.878 315.131 467.996C312.146 465.41 308.094 470.308 305.111 480.109C303.984 483.81 303.533 483.947 303.784 480.511C303.972 477.941 305.05 474.986 307.56 470.154C308.792 467.782 309.805 465.784 309.811 465.713C309.817 465.643 309.103 465.348 308.225 465.057C306.149 464.372 304.204 463.09 302.2 461.086L300.584 459.47L299.065 460.467C293.745 463.957 289.042 471.409 287.083 479.452L286.483 481.916L286.445 479.47C286.356 473.826 289.498 468.046 297.969 458.277C299.003 457.085 299.775 456.034 299.683 455.943C298.952 455.212 299.85 448.688 301.017 446.249C301.674 444.878 301.244 444.738 300.041 445.932C297.587 448.369 294.567 449.642 290.66 449.887C286.187 450.167 282.084 454.313 276.048 464.646L274.857 466.686L274.833 465.189C274.783 462.009 276.915 458.15 281.398 453.305C282.989 451.586 284.246 450.135 284.191 450.08C284.136 450.025 283.61 449.899 283.022 449.8C280.753 449.418 278.345 448.285 276.533 446.747L274.736 445.221L273.805 445.821C273.293 446.152 271.049 448.134 268.818 450.226C264.228 454.531 264.112 454.605 265.237 452.506C267.022 449.174 270.023 445.959 273.627 443.518C274.98 442.601 275.026 442.529 275.067 441.238C275.091 440.505 275.265 439.113 275.454 438.146C275.688 436.947 275.654 436.37 275.346 436.33C268.422 435.43 267.423 435.097 264.691 432.773C261.035 429.664 255.656 431.508 251.652 437.241ZM433.607 255.473C430.682 259.425 430.327 261.979 432.355 264.469C434.084 266.593 434.98 268.721 435.79 272.621C436.209 274.64 436.619 275.893 436.827 275.789C437.016 275.694 438.179 275.55 439.411 275.468C442.229 275.281 442.857 274.852 445.446 271.347C447.904 268.019 449.928 266.354 452.741 265.347L454.463 264.73L450.671 268.597C448.585 270.724 446.451 273.022 445.929 273.704L444.98 274.943L446.721 276.971C448.538 279.089 449.335 280.813 449.253 282.452C449.155 284.422 449.681 284.27 453.207 281.309C458.473 276.887 461.929 275.002 464.639 275.076L466.163 275.117L465.376 275.643C464.943 275.932 463.16 277.104 461.414 278.246C455.09 282.382 449.646 287.287 450.017 288.513C450.648 290.595 449.048 295.609 446.522 299.464C445.499 301.028 445.229 301.624 445.638 301.424C447.969 300.282 449.72 299.891 452.809 299.822L456.253 299.746L459.616 296.853C468.601 289.127 473.5 286.608 479.441 286.661C482.186 286.685 482.079 286.783 478.371 287.629C471.986 289.087 466.855 292.03 462.569 296.69C458.846 300.739 458.918 300.48 460.947 302.508C462.75 304.312 464.28 306.67 465.023 308.792C465.595 310.425 465.682 310.513 466.205 309.99C468.404 307.791 477.297 304.107 480.505 304.065C483.482 304.027 483.444 304.35 480.37 305.19C475.591 306.495 471.643 308.527 467.962 311.573L466.483 312.798L467.012 313.849C469.871 319.52 479.73 321.581 488.669 318.374C497.973 315.036 501.381 308.309 497.114 301.703C496.733 301.113 496.744 300.902 497.165 300.739C508.274 296.441 509.869 286.636 500.362 281.088C499.221 280.423 497.583 279.298 496.721 278.588L495.154 277.297L496.211 275.69C501.106 268.245 494.359 261.811 482.941 263.035C472.149 264.192 470.402 263.384 468.042 256.146C464.502 245.294 456.871 243.565 448.676 251.76L447.164 253.273L446.451 252.562C443.499 249.621 437.078 250.384 434.717 253.957C434.67 254.03 434.17 254.712 433.607 255.473ZM343.417 350.716C342.642 353.001 344.449 354.446 347.141 353.692C349.709 352.972 350.184 351.064 348.271 349.151C346.508 347.388 344.305 348.098 343.417 350.716ZM351.17 344.878C350.338 346.841 351.654 348.941 353.718 348.942C356.505 348.942 357.648 345.836 355.61 343.797C354.092 342.279 352.063 342.773 351.17 344.878ZM285.985 414.67C286.045 414.73 286.045 414.829 285.985 414.889C285.925 414.949 285.826 414.949 285.766 414.889C285.706 414.829 285.706 414.73 285.766 414.67C285.826 414.61 285.925 414.61 285.985 414.67ZM339.131 361.74C338.749 362.639 339.03 363.983 339.75 364.704C341.849 366.802 344.713 365.371 344.712 362.224C344.712 358.753 340.553 358.392 339.131 361.74ZM360.876 342.22C360.712 343.59 362.353 345.364 363.72 345.297C365.085 345.229 367.031 343.161 366.9 341.918C366.525 338.356 361.305 338.618 360.876 342.22ZM353.76 358.872C352.339 361.796 352.508 365.307 354.179 367.567L354.998 368.676L352.823 368.629C344.266 368.447 342.098 376.332 348.612 383.94L350.196 385.79L349.179 386.565C338.959 394.345 335.23 401.955 340.208 404.87C340.631 405.118 340.569 405.508 339.872 407.004C336.436 414.376 343.078 418.561 351.041 414.042C356.466 410.964 359.135 407.059 357.15 405.104C355.761 403.736 355.128 403.39 351.205 401.85C350.389 401.53 353.367 400.834 355.162 400.925C356.616 400.999 360.629 402.209 362.559 403.155C363.581 403.656 369.635 399.565 369.392 398.537C368.956 396.692 364.548 393.234 360.368 391.459C359.04 390.895 357.751 390.341 357.505 390.226C357.258 390.112 357.738 389.999 358.572 389.975C361.732 389.884 365.1 391.813 369.563 396.271L372.158 398.862L375.753 398.839C382.653 398.797 387.322 396.601 383.553 395.169C380.794 394.122 378.647 392.169 376.382 388.647C372.075 381.951 371.313 381.126 366.205 377.629C363.192 375.566 363.104 375.46 364.453 375.507C368.448 375.646 372.598 378.739 376.847 384.744C383.563 394.234 389.248 396.872 393.01 392.243C396.533 387.909 393.72 381.838 385.194 375.369C379.257 370.864 377.125 368.265 377.125 365.528C377.124 363.997 377.293 364.078 378.289 366.09C379.485 368.503 382.55 371.475 387.995 375.501C393.614 379.656 395.446 381.621 396.557 384.687L397.328 386.811L397.647 385.498C400.37 374.324 400.287 373.18 396.44 368.82C393 364.921 391.185 361.569 390.897 358.581C390.807 357.648 390.875 357.729 391.998 359.893C393.237 362.283 397.228 367.044 398.761 367.962C399.899 368.644 402.323 366.019 404.04 362.246C404.529 361.17 404.49 360.77 403.676 358.48C403.072 356.782 402.743 355.014 402.702 353.241L402.64 350.565L403.294 352.539C404.824 357.156 406.476 358.44 408.735 356.77C417.748 350.108 418.478 338.019 409.771 339.595C406.39 340.206 405.954 340.175 404.777 339.237C400.85 336.104 394.688 339.388 388.727 347.79C386.802 350.504 387.291 350.385 384.997 348.702C376.021 342.118 367.965 343.537 368.926 351.532L369.232 354.084L367.805 353.358C363.065 350.948 356.327 353.593 353.76 358.872ZM302.276 430.742C299.7 435.711 301.194 441.785 305.836 445.216L306.877 445.986L305.699 447.465C300.179 454.395 302.336 460.237 311.556 463.321C317.349 465.259 318.103 466.024 320.256 472.142C323.85 482.359 329.814 484.196 337.559 477.473L339.522 475.769L341.136 476.613C350.2 481.35 357.136 478.201 359.682 468.193L360.269 465.885L358.49 463.814C357.512 462.675 356.314 461.057 355.828 460.218C354.383 457.722 354.383 457.722 352.813 459.286C349.9 462.186 344.758 464.928 342.448 464.812C341.828 464.781 341.998 464.653 343.513 464.01C348.832 461.753 353.798 455.966 354.426 451.293L354.597 450.018L352.585 448.001C351.479 446.892 350.177 445.297 349.693 444.457C349.208 443.617 348.777 442.893 348.735 442.848C348.693 442.803 348.383 443.169 348.047 443.661C344.501 448.845 333.688 455.26 328.114 455.487C326.842 455.539 326.289 455.477 326.885 455.351C332.297 454.204 338.368 450.5 344.312 444.718L347.409 441.705L348.678 437.737C350.066 433.402 350.699 432.123 352.353 430.318L353.447 429.125L352.74 427.128C352.215 425.647 352.04 424.011 352.062 420.796C352.078 418.411 351.956 416.468 351.792 416.478C351.628 416.488 350.674 416.908 349.673 417.412L347.852 418.328L347.072 420.402C343.699 429.377 334.13 437.569 327.023 437.568C324.56 437.567 324.422 437.273 326.65 436.775C333.181 435.314 341.977 427.523 344.138 421.285C344.813 419.334 344.732 419.166 343.053 419.021C341.438 418.882 338.999 418.068 337.49 417.165L336.274 416.439L333.89 418.293C325.434 424.872 315.579 427.772 308.463 425.775L307.031 425.373L304.952 427.481C303.809 428.641 302.604 430.108 302.276 430.742ZM557.559 199.754C557.539 206.555 546.422 225.832 537.205 235.049C536.156 236.098 535.681 236.745 535.842 236.906C536.699 237.763 544.017 239.062 548.577 239.166L551.519 239.233L549.384 239.943C546.566 240.88 541.356 240.85 536.296 239.866L532.417 239.112L531.017 240.915C528.026 244.768 519.88 251.719 516.85 253.004C516.442 253.177 517.31 253.723 521.059 255.65C530.18 260.338 533.226 260.737 539.191 258.026C548.851 253.636 554.514 255.303 560.334 264.25C562.145 267.034 561.906 266.998 563.781 264.764C569.299 258.19 569.122 252.425 563.223 246.649L560.879 244.353L561.732 242.73C565.063 236.395 564.215 228.994 559.629 224.371C558.839 223.575 558.841 223.536 559.727 221.946C563.883 214.491 564.57 208.914 561.922 204.133C560.943 202.365 557.562 198.972 557.559 199.754ZM201.734 558.018C206.867 563.15 213.594 563.415 223.126 558.86L225.036 557.947L227.253 559.607C232.106 563.239 236.743 563.595 243.237 560.834L245.728 559.775L248.211 562.235C253.939 567.91 259.575 568.032 265.593 562.612L267.873 560.557L267.202 560.182C258.269 555.183 254.972 548.271 258.037 540.967C261.892 531.783 261.8 529.448 257.231 520.501C254.464 515.082 254.391 514.987 253.882 516.122C252.576 519.032 244.151 528.562 240.971 530.725C240.063 531.343 240.062 531.356 240.729 533.985C242.109 539.42 242.241 544.597 241.099 548.47L240.586 550.208L240.378 546.73C240.11 542.265 239.943 541.102 239.061 537.564C238.058 533.543 238.236 533.58 235.067 536.749C226.264 545.55 210.947 554.537 202.877 555.634C200.62 555.942 200.308 556.592 201.734 558.018ZM357.975 411.228C354.912 415.63 353.997 424.032 356.327 426.362C357.768 427.803 365.776 419.56 367.465 414.894C368.851 411.068 368.265 404.701 366.555 405.002C364.191 405.418 359.802 408.602 357.975 411.228ZM407.405 361.814C406.615 362.993 405.506 365.775 405.355 366.958C405.156 368.528 411.204 368.678 415.164 367.203C420.46 365.229 428.376 357.163 426.183 355.974C420.792 353.051 411.305 356.002 407.405 361.814ZM370.177 404.994C371.026 408.472 370.794 412.863 369.581 416.286C366.428 425.184 366.857 433.214 370.96 442.14L372.232 444.908L370.728 443.127C367.096 438.826 364.807 433.299 364.591 428.31C364.395 423.771 364.42 423.802 362.116 425.252C351.556 431.897 348.842 443.984 357.079 447.686C357.953 448.079 358.682 448.414 358.699 448.431C358.716 448.448 358.525 448.798 358.274 449.208C353.821 456.485 365.247 467.563 373.308 463.785L374.412 463.267L377.052 465.904C386.784 475.624 392.456 473.718 395.478 459.714C395.766 458.378 396.196 456.685 396.434 455.952L396.866 454.619L398.91 454.597C410.82 454.473 411.38 441.788 399.82 433.96C391.086 428.045 387.788 421.902 388.751 413.341C389.129 409.975 389.008 407.949 388.123 402.864L387.686 400.356L386.664 400.77C386.101 400.998 384.633 401.279 383.4 401.394C380.624 401.655 380.631 401.647 381.367 403.627C382.192 405.851 382.118 409.387 381.136 414.633C379.607 422.795 380.114 424.915 386.018 435.064L388.272 438.94L386.81 437.811C378.834 431.651 376.669 425.183 378.014 411.527C378.25 409.129 378.293 406.056 378.11 404.697L377.776 402.227L374.657 402.216C372.942 402.21 371.106 402.316 370.578 402.452L369.617 402.699L370.177 404.994ZM402.355 373.847L402.243 377.83L403.898 378.015C404.807 378.118 408.322 378.017 411.707 377.791C426.562 376.803 431.974 378.645 438.163 386.799C439.483 388.538 439.092 388.427 435.226 385.965C426.008 380.096 422.96 379.406 413.982 381.161C409.809 381.976 407.46 382.028 404.608 381.365C401.733 380.697 401.621 380.753 401.534 382.895C401.493 383.913 401.26 385.362 401.015 386.116L400.571 387.486L404.159 388.149C409.167 389.074 411.687 389.232 414.093 388.773C421.544 387.351 428.846 391.516 434.838 400.607C441.812 411.187 455.17 409.53 455.507 398.042C455.553 396.448 455.366 396.549 460.677 395.239C473.983 391.958 475.586 387.097 466.561 377.401C463.911 374.554 463.298 373.767 463.542 373.523C469.379 367.687 456.853 353.842 449.379 357.868C448.739 358.213 448.195 358.474 448.169 358.448C448.143 358.422 447.855 357.706 447.53 356.857C444.718 349.529 435.618 350.448 428.005 358.83C423.528 363.76 423.556 364.018 428.626 364.429C434.201 364.879 438.615 366.695 442.751 370.239C445.035 372.197 444.898 372.619 442.425 371.246C433.48 366.283 424.022 365.824 415.234 369.926C413.382 370.791 410.524 370.901 406.565 370.261C402.166 369.549 402.484 369.279 402.355 373.847ZM390.218 401.205C391.249 404.99 391.409 407.045 390.97 410.847C390.265 416.953 391.037 418.669 397.539 425.449L402.116 430.221L402.701 429.34C408.249 420.985 405.594 409.125 395.599 397.61L394.043 395.817L392.092 397.03C391.019 397.697 389.998 398.32 389.823 398.414C389.648 398.509 389.826 399.764 390.218 401.205ZM397.161 392.023C396.318 393.611 396.227 393.479 400.789 397.26C409.455 404.442 417.929 406.605 426.263 403.763C431.247 402.064 431.25 402.082 424.648 395.873C419.184 390.735 417.145 389.915 411.486 390.583C408.139 390.978 406.325 390.846 402.163 389.907C398.86 389.161 398.63 389.258 397.161 392.023ZM284.39 516.112C284.302 518.432 286.043 521.918 289.7 526.746C290.902 528.334 291.887 529.666 291.887 529.706C291.888 529.746 290.306 529.87 288.372 529.982C270.314 531.027 268.949 536.345 283.707 548.147L285.314 549.432L283.507 549.829C276.851 551.294 271.068 556.775 270.734 561.934C270.608 563.891 270.626 563.901 272.722 563.024C275.641 561.802 279.272 562.023 284.903 563.768C287.478 564.565 290.417 565.436 291.435 565.704C298.457 567.551 307.552 565.153 313.038 560.009L314.676 558.474L316.338 560.135C322.582 566.379 329.074 565.596 336.885 557.657L339.947 554.545L342.368 554.916C356.198 557.039 374.231 538.948 375.082 522.096C375.207 519.603 374.587 519.394 369.939 520.363L368.43 520.678L367.703 523.604C362.565 544.293 345.836 552.935 322.733 546.834L318.867 545.813L317.921 546.746C313.284 551.319 306.967 552.728 301.755 550.354C299.246 549.21 299.455 548.99 302.752 549.302C307.46 549.749 311.175 548.661 313.756 546.081C314.74 545.097 314.882 545.268 311.117 542.891C306.258 539.824 303.695 537.861 300.905 535.065C297.367 531.52 297.413 531.04 301.033 533.729C310.933 541.083 320.262 545.343 326.046 545.149C327.642 545.096 326.507 542.521 321.163 534.076L319.805 531.931L320.878 532.609C323.953 534.553 328.077 540.145 329.394 544.159L329.916 545.749L332.678 546.026C337.921 546.552 344.134 545.986 346.333 544.783C346.913 544.465 346.881 544.44 345.205 543.873C343.085 543.156 339.913 540.113 336.7 535.713C327.393 522.972 316.919 519.509 311.85 527.498L311.308 528.351L310.09 525.397C307.796 519.834 305.773 517.276 302.153 515.362C294.172 511.142 284.562 511.548 284.39 516.112ZM500.443 302.151C500.54 302.572 501.13 303.891 501.752 305.083L502.885 307.249L504.571 307.072C519.475 305.511 525.341 311.426 525.66 328.335C525.876 339.788 527.908 344.789 534.028 348.927C535.543 349.952 535.429 350.021 537.129 347.047C539.271 343.301 539.135 343.309 540.246 346.851C542.433 353.826 549.351 364.191 550.447 362.137C554.645 354.268 553.818 339.576 548.589 329.107C546.136 324.197 538.834 313.996 538.215 314.615C537.776 315.054 537.474 319.876 537.616 324.19C537.804 329.934 537.646 330.157 536.276 326.077C535.135 322.681 534.824 318.784 535.283 313.625L535.558 310.521L533.877 309.119C520.445 297.916 511.669 295.029 503.79 299.223C500.679 300.879 500.238 301.264 500.443 302.151ZM322.169 486.292C319.553 493.739 316.409 498.404 312.25 501.01L311.239 501.642L311.922 503.527C313.912 509.022 320.793 512.794 325.469 510.954C326.207 510.664 326.859 510.415 326.918 510.402C326.976 510.388 327.193 511.334 327.4 512.504C328.462 518.531 334.004 523.768 338.977 523.447C340.916 523.321 341.447 523.076 345.249 520.548C350.256 517.218 351.503 516.979 358.726 517.971C370.083 519.53 377.344 514.503 378.279 504.433L378.586 501.131L380.763 501.091C392.05 500.886 397.064 487.006 389.415 477.142C388.439 475.882 388.405 475.868 385.884 475.637C380.662 475.158 376.503 472.893 374.757 469.577C373.87 467.891 373.022 467.497 370.901 467.782L369.569 467.961L369.45 469.844C369.191 473.917 370.662 480.449 372.975 485.496C374.178 488.122 373.977 488.063 372.125 485.248C369.165 480.747 367.167 475.525 366.869 471.51C366.595 467.808 366.557 467.753 364.304 467.785L362.367 467.812L361.872 469.636C361.032 472.737 359.734 475.122 357.865 477.001L356.188 478.687L356.363 480.373C356.878 485.327 358.866 492.001 361.317 497.002L362.608 499.637L360.741 497.563C357.332 493.775 354.439 487.951 353.446 482.881L353.082 481.02L350.803 481.49C348.032 482.062 345.307 481.925 342.994 481.097C339.988 480.021 340.905 487.593 345.081 498.333C346.026 500.761 346.804 502.815 346.812 502.898C346.839 503.201 345.331 501.058 344.097 499.041C341.712 495.144 340.026 490.153 339.427 485.221C338.76 479.729 338.951 479.981 336.682 481.606C334.491 483.175 333.356 483.579 331.008 483.62L329.216 483.653L329.034 484.735C328.71 486.666 329.021 494.592 329.6 499.161C330.18 503.741 330.021 503.854 328.55 499.906C327.207 496.299 326.592 492.769 326.522 488.275L326.458 484.113L325.081 483.191C324.324 482.684 323.652 482.338 323.589 482.423C323.525 482.508 322.886 484.249 322.169 486.292ZM482.399 324.56C483.497 326.462 484.153 326.735 487.589 326.716C493.094 326.685 497.523 327.592 501.608 329.587C504.028 330.769 504.048 330.958 501.691 330.374C497.468 329.327 491.843 328.913 486.319 329.244L483.502 329.413L483.535 331.101C483.57 332.841 482.644 335.329 481.243 337.263C480.165 338.753 480.176 338.759 485.897 339.862C493.649 341.357 497.634 342.952 501.163 345.974L502.697 347.287L500.415 346.27C494.573 343.667 487.117 341.686 482.245 341.443L480.208 341.341L480.805 342.884C481.638 345.037 481.796 347.283 481.352 350.64L480.971 353.522L483.575 354.003C488.562 354.922 493.445 357.436 497.548 361.194L500.062 363.497L497.595 362.122C492.839 359.47 488.149 357.943 481.532 356.892L478.557 356.419L476.971 358.025C475.14 359.88 472.696 361.218 469.578 362.072L467.563 362.624L467.636 364.397C467.731 366.708 467.897 366.833 471.417 367.236C476.696 367.842 482.792 370.382 486.678 373.596L488.236 374.885L486.259 373.806C481.672 371.304 476.468 369.956 471.046 369.865L467.721 369.809L467.609 371.057C467.399 373.39 467.752 374.272 469.051 374.665C471.983 375.552 474.06 379.105 474.912 384.694C476.972 398.192 499.642 395.493 500.5 381.647C500.711 378.244 500.649 378.306 503.641 378.515C512.11 379.107 517.862 372.495 517.611 362.455C517.29 349.64 517.268 349.774 520.537 344.987C525.937 337.08 522.418 329.982 511.986 327.738C510.056 327.323 509.808 327.199 510.039 326.761C512.792 321.54 509.505 314.392 503.323 312.153L501.457 311.478L500.805 312.481C497.969 316.843 492.857 320.278 485.821 322.55C481.728 323.872 481.932 323.752 482.399 324.56ZM518.56 290.311C516.375 293.997 516.353 293.908 519.841 295.385C521.427 296.056 523.645 297.048 524.771 297.589C527.024 298.672 526.322 298.719 533.514 297.004C539.966 295.465 545.164 295.931 548.719 298.368C551.594 300.34 551.732 300.988 549.009 299.73C544.421 297.611 538.468 297.74 532.175 300.094C530.071 300.882 529.971 300.622 533.57 303.714C541.096 310.181 547.571 319.138 553.808 331.708C557.254 338.654 556.859 338.333 558.239 335.301C559.937 331.572 560.027 327.48 558.577 320.007C557.245 313.145 557.306 313.041 562.585 313.19C566.675 313.305 565.4 307.396 559.847 300.507L558.612 298.975L560.241 297.696C565.773 293.35 569.113 287.848 569.39 282.625C569.487 280.776 569.072 277.276 568.762 277.334C568.692 277.347 567.654 277.7 566.456 278.118C563.439 279.171 558.714 279.243 550.811 278.355C539.647 277.101 534.184 278.79 532.872 283.902L532.545 285.176L530.998 284.68C527.334 283.504 520.857 286.437 518.56 290.311ZM404.975 405.196C405.879 406.58 406.638 409.132 406.911 411.695C407.516 417.387 409.211 419.741 417.062 425.795C422.107 429.684 422.696 430.371 420.255 429.51C417.305 428.471 414.794 426.714 411.316 423.256L408.199 420.158L408.073 422.688C407.89 426.373 406.942 428.908 404.881 431.223L403.222 433.085L405.363 434.936C409.175 438.232 410.873 441.009 411.506 444.984C411.991 448.025 413.681 448.921 418.853 448.882C420.596 448.869 422.491 448.979 423.065 449.127L424.108 449.396L423.433 449.757C420.466 451.342 415.861 451.65 412.81 450.467L411.12 449.811L408.372 452.559C405.475 455.456 403.543 456.708 401.418 457.065L400.419 457.233L399.961 459.994C399.303 463.969 400.908 465.308 408.031 466.727C412.365 467.591 412.354 467.583 410.305 468.377C407.243 469.563 403.643 468.861 400.162 466.397C398.852 465.47 398.477 465.329 398.311 465.701C397.41 467.727 392.307 473.102 390.575 473.851C390.088 474.061 390.233 474.274 392.23 476.272C397.876 481.917 403.237 482.121 408.57 476.893L410.651 474.853L412.314 475.793C421.786 481.146 431.105 472.556 427.256 462.019C427.239 461.971 427.998 461.932 428.944 461.932C434.185 461.933 437.931 454.89 435.284 450.009C434.856 449.22 433.552 447.302 432.388 445.748C427.565 439.314 427.268 435.788 431.244 432.163C436.159 427.684 442.664 427.967 448.468 432.915C453.354 437.079 460.563 434.03 460.561 427.8L460.561 426.907L464.065 427.303C477.276 428.795 482.736 422.625 477.574 412.038L476.427 409.685L477.755 408.357C483.207 402.904 482.136 395.403 475.323 391.33L474.14 390.623L473.439 391.962C472.62 393.527 469.617 396.301 467.344 397.595L465.912 398.41L467.228 400.232C470.105 404.215 470.564 407.994 468.604 411.576C468.311 412.113 468.201 411.872 467.79 409.79C465.829 399.861 459.288 397.418 455.192 405.084C453.599 408.063 452.13 409.755 450.598 410.372C450.233 410.519 450.23 411.103 450.587 412.625C451.381 416.01 451.04 419.149 449.632 421.406C449.16 422.164 449.128 422.053 449.125 419.639C449.12 415.092 448.028 410.617 446.989 410.893C443.236 411.892 439.556 410.41 434.424 405.831C432.996 404.558 431.802 403.627 431.77 403.764C431.481 404.986 426.808 407.147 423.126 407.76C420.665 408.169 420.602 408.349 422.311 410.072C427.685 415.491 430.103 419.901 429.249 422.725C429.077 423.293 429.028 423.237 428.511 421.903C426.936 417.829 418.523 408.325 415.966 407.728C415.191 407.548 412.749 406.843 410.54 406.163C408.33 405.482 406.06 404.812 405.496 404.674L404.471 404.423L404.975 405.196ZM433.434 435.137C433.13 435.647 432.927 436.284 432.983 436.554C433.401 438.586 433.681 439.416 434.5 441.061C439.609 451.323 454.764 459.772 473.664 462.897C476.084 463.297 478.107 463.669 478.161 463.723C478.358 463.919 475.135 471.498 473.905 473.733C465.584 488.85 449.664 492.834 430.91 484.491C428.215 483.292 427.867 483.223 426.266 483.564C423.761 484.099 421.018 483.89 418.396 482.967C416.309 482.232 415.181 481.602 412.532 479.694L411.631 479.045L408.486 481.373C404.73 484.152 404.753 483.567 408.298 486.196C436.204 506.887 460.494 507.463 479.115 487.874C486.513 480.092 490.587 473.037 493.606 462.785C494.661 459.205 495.164 458.618 499.279 456.172C514.604 447.06 525.983 428.836 526.522 412.539L526.61 409.877L528.967 408.779C538.679 404.255 544.989 393.522 544.691 382.034C544.332 368.202 530.501 359.427 526.782 370.671C525.316 375.102 525.649 376.402 529.149 379.905C536.076 386.838 533.324 397.229 524.4 397.831C524.33 397.836 523.893 396.573 523.43 395.024C522.309 391.283 520.345 387.424 517.823 384.012L515.759 381.218L514.817 381.349C514.037 381.457 509.393 382.572 504.397 383.85L503.326 384.124L505.649 387.372C517.911 404.523 516.752 422.33 502.443 436.654C487.036 452.075 467.358 452.382 449.064 437.485C440.431 430.455 436.57 429.875 433.434 435.137ZM391.455 513.188C389.807 516.81 390.822 519.132 395.259 521.888L397.25 523.124L397.154 524.106C396.408 531.822 391.065 535.518 380.803 535.419L374.728 535.361L373.924 537.075C373.481 538.018 372.593 539.74 371.95 540.902C370.051 544.332 369.981 544.125 373.242 544.723C381.014 546.148 388.041 545.297 393.859 542.225C396.128 541.028 396.381 540.795 403.877 533C408.954 527.721 414.447 524.984 419.266 525.329C423.215 525.613 424.762 524.822 429.941 519.872C434.275 515.728 434.677 515.529 439.444 515.169C444.226 514.807 444.307 514.621 440.558 512.617C435.259 509.785 434.171 509.767 430.995 512.457C427.436 515.471 422.775 516.413 418.292 515.023C413.886 513.657 412.979 513.833 408.914 516.836C406.043 518.957 406.107 518.941 405.875 517.594C404.322 508.615 394.854 505.722 391.455 513.188Z" fill="#316753"/>
</svg>
