<svg width="181" height="154" viewBox="0 0 181 154" fill="none" xmlns="http://www.w3.org/2000/svg">
<path fill-rule="evenodd" clip-rule="evenodd" d="M152.468 0.146989C147.929 0.834233 138.175 4.39219 116.866 13.1338C113.937 14.3356 111.205 15.443 110.795 15.5941C110.13 15.8402 108.841 15.1718 98.5753 9.25519L87.0996 2.64136L84.3357 2.49019C80.9893 2.30731 74.9927 2.66993 75.8355 3.00427C76.1522 3.13 77.5127 3.24402 78.8588 3.25773C83.966 3.31003 86.8897 4.42905 95.4005 9.58895C105.368 15.6318 107.993 18.5514 104.577 19.7939C100.624 21.2315 96.0052 24.9049 94.3156 27.9554C93.2554 29.8688 93.3115 29.8668 95.2012 27.9199C100.458 22.5054 110.233 19.3064 117.874 20.5003L119.314 20.7254L118.594 20.1494C118.198 19.8327 117.226 19.3612 116.435 19.1015C115.643 18.8417 114.171 18.1768 113.163 17.6238L111.331 16.6183L113.739 15.6413C135.143 6.95885 145.12 3.19315 149.403 2.18072C151.987 1.57006 155.068 1.20886 154.675 1.56291C153.976 2.19215 147.994 4.13015 146.751 4.13015C145.654 4.13015 146.307 4.63737 147.628 4.81139C149.652 5.07772 153.144 4.52135 156.596 3.38289L159.614 2.38732L162.643 2.96083C164.309 3.27602 166.231 3.61664 166.915 3.71751C168.597 3.96584 168.509 4.0007 164.075 4.85025C153.191 6.9357 133.506 12.7477 126.08 16.0682L125.073 16.5188L126.656 16.718C127.954 16.8815 128.603 16.7894 130.256 16.2076C142.867 11.767 159.594 6.64052 167.265 4.86454C169.205 4.41533 169.948 4.87454 169.281 6.11101C168.926 6.76911 168.913 6.7734 164.52 7.71039C143.164 12.2648 115.091 22.1299 95.9775 31.7968L92.5358 33.5376L92.3147 31.3356C92.1932 30.1245 91.8376 28.1151 91.5243 26.8703C91.211 25.6253 90.9867 24.5869 91.0256 24.5629C91.0645 24.5389 91.6144 24.2828 92.2479 23.9934C96.4656 22.0676 102.182 19.2844 102.182 19.1564C102.182 18.9783 102.36 18.9112 95.8744 21.5344C93.118 22.6494 90.7857 23.5604 90.6916 23.559C90.5974 23.5579 90.2692 22.7577 89.9622 21.7813C88.0895 15.823 80.9057 5.61637 77.3071 3.80096C76.9728 3.63236 77.6924 4.50535 78.9058 5.74124C83.0316 9.94186 86.0846 14.95 88.205 20.9955C89.4589 24.5709 90.7186 23.599 78.5709 28.4277C72.9489 30.6623 62.9719 34.7781 56.3998 37.5736C41.7458 43.8071 42.1579 43.6685 38.7605 43.5019L36.1003 43.3716L22.9991 37.5671C7.09294 30.5195 8.10332 30.7146 1.90779 33.4976C-0.9471 34.7798 -1.22007 34.2049 5.46582 40.9927C8.63916 44.2146 11.1713 46.7221 11.0924 46.565C11.0138 46.4078 9.13125 44.0306 6.90953 41.2825C1.32903 34.38 2.01864 34.1523 13.3533 39.1556C37.9574 50.0158 35.0648 49.5534 46.8285 44.5081C64.3169 37.0078 89.5755 26.9152 89.8312 27.3258C91.5275 30.0497 91.1577 30.3937 82.1701 34.4552C67.5686 41.0539 49.9681 49.9703 37.9718 56.8465L32.645 59.8998L25.1587 61.0388C17.2329 62.2444 15.6167 62.7102 19.359 62.7102H21.5928L18.5278 65.1391C16.8419 66.475 15.2842 67.568 15.0659 67.568C14.6058 67.568 12.5447 69.29 12.7552 69.4986C13.4437 70.1821 16.8212 68.4816 20.2931 65.7038C23.5767 63.0763 24.11 62.7519 25.4221 62.5833C46.8299 59.8329 63.7525 55.7086 77.8202 49.8131C80.0204 48.891 82.2231 48.1315 82.7151 48.1252C83.2072 48.1189 84.549 47.9503 85.6973 47.7503C86.8456 47.5505 87.7849 47.4354 87.7849 47.4948C87.7849 50.0866 80.5012 59.8915 76.2389 63.0371C74.1917 64.5476 73.7701 64.9768 74.8997 64.3996C83.363 60.0761 90.839 48.8156 92.146 38.4226C92.4584 35.9383 92.6006 35.4693 93.1002 35.2742C93.4232 35.1481 95.0481 34.4066 96.7109 33.6265C102.031 31.1307 109.65 27.9471 116.003 25.5659C129.198 20.6197 143.501 16.2976 156.17 13.4281C158.704 12.854 161.036 12.3174 161.353 12.2353C162.137 12.0325 159.287 13.7578 155.994 15.4795C153.322 16.8766 149.14 18.6483 134.611 24.5371C126.187 27.9514 124.57 28.8944 118.981 33.6528C117.056 35.2916 114.885 37.0567 114.158 37.5748C112.626 38.6669 112.631 38.8604 114.18 38.4463C115.816 38.0091 118.351 36.4038 121.108 34.0594C126.542 29.439 125.831 29.8131 140.189 24.0196C170.629 11.7376 178.764 4.18873 164.232 1.71065C162.807 1.46775 160.863 1.02741 159.913 0.732505C157.742 0.0584055 154.657 -0.184203 152.468 0.146989ZM89.5125 25.5679C89.5125 25.7285 89.2211 25.9831 88.8646 26.1337C88.5082 26.2843 81.7382 29.0315 73.8199 32.2389C65.9017 35.4459 55.7951 39.6142 51.3609 41.5014C37.4389 47.4268 39.8909 47.6048 21.0417 39.3007C6.7382 32.9992 7.51535 33.2293 4.37569 34.3686C1.26281 35.4979 0.985526 35.1301 4.05263 33.9405C7.73562 32.5123 7.24641 32.3894 19.7676 37.8857C35.3936 44.745 35.2696 44.6947 37.2223 44.9656C40.5995 45.4339 42.3205 44.9327 52.3687 40.5546C54.9817 39.4162 62.4321 36.3332 68.925 33.7036C78.1214 29.9791 85.9159 26.7886 89.4405 25.3064C89.48 25.2898 89.5125 25.4076 89.5125 25.5679ZM90.501 32.6906C90.3533 32.8341 87.3817 34.2571 83.8977 35.8525C71.4119 41.5705 55.8556 49.4802 43.4426 56.4221C40.988 57.7949 38.5261 59.0019 37.9718 59.1039C34.1953 59.8003 67.2213 42.6821 85.6253 34.4037C90.1295 32.3777 91.2162 31.996 90.501 32.6906ZM90.4776 34.6249C87.4333 35.6319 66.5616 49.1725 67.1513 49.758C67.221 49.8272 68.6204 48.9893 70.261 47.8963C75.6601 44.2995 89.8934 36.4178 90.2862 36.8075C90.4849 37.0047 89.6639 41.6039 89.0198 43.9031C88.4981 45.7657 88.5056 45.7623 83.1779 46.5461C81.3558 46.8141 79.6253 47.3005 77.995 48.0029C70.4577 51.2499 63.1389 53.6726 55.1041 55.5803C50.1075 56.7667 43.624 58.1275 43.5094 58.0141C43.459 57.9638 45.7496 56.615 48.6002 55.0168C63.3483 46.7478 90.3271 33.4047 90.6354 34.2271C90.6988 34.3963 90.6277 34.5752 90.4776 34.6249ZM112.963 36.3492C107.796 39.8288 103.746 43.1487 92.2372 53.3374C83.685 60.9088 82.5009 61.7018 75.4756 64.5642C71.2757 66.275 72.3661 66.2687 77.3471 64.553C84.4134 62.1193 84.6714 61.9527 94.1707 53.6731C98.8143 49.626 105.626 43.6951 109.308 40.4932C117.338 33.5108 117.571 33.2456 112.963 36.3492ZM12.9214 47.8903C11.7336 48.3672 10.7175 48.801 10.6631 48.8544C10.537 48.9787 14.8249 54.6064 15.2395 54.861C15.9801 55.3151 15.6444 54.695 13.9176 52.4198L12.0766 49.994L13.4347 49.3685C15.2761 48.5207 16.507 48.5581 18.8932 49.5348C20.004 49.9895 22.2263 50.8402 23.8313 51.4251C25.4362 52.0103 26.835 52.6264 26.9395 52.7942C27.3907 53.5188 20.6116 57.8523 19.0268 57.8523C18.8361 57.8523 18.6801 57.9809 18.6801 58.1381C18.6801 58.4953 18.3884 58.5387 21.4155 57.7309C27.4446 56.1218 33.4339 52.9202 31.5891 52.2927C31.3781 52.2209 28.0363 50.999 24.163 49.578C16.2822 46.6858 16.0193 46.6464 12.9214 47.8903ZM83.6098 48.4047C82.1442 48.7601 70.6146 54.6636 63.8861 58.5036C-17.0508 104.696 -20.3932 153.962 57.4076 154C67.1686 154.005 69.9791 153.847 80.5864 152.699C104.692 150.09 131.667 143.391 159.625 133.073C165.317 130.972 177.535 125.983 180.212 124.666C181.869 123.852 180.737 124.083 178.453 125.026C160.076 132.61 132.577 141.508 112.439 145.262C-6.58182 171.475 -39.4909 110.858 80.5098 51.0036C82.9225 49.7031 84.826 48.5261 84.7399 48.3878C84.6541 48.2498 84.5588 48.1498 84.5286 48.1658C84.4983 48.182 84.0849 48.2895 83.6098 48.4047ZM13.3167 58.2667C8.25995 60.7773 7.02269 63.3934 10.6081 63.9944C12.1189 64.2478 12.3933 64.0361 11.8796 63.0139C11.1376 61.538 11.9404 60.2718 15.0961 57.9398C16.3602 57.0056 15.5606 57.1525 13.3167 58.2667Z" fill="url(#paint0_linear_2_108)"/>
<defs>
<linearGradient id="paint0_linear_2_108" x1="90.5" y1="1.85822e-06" x2="143.59" y2="147.315" gradientUnits="userSpaceOnUse">
<stop stop-color="#E58E8E"/>
<stop offset="0.865359" stop-color="#E58E8E" stop-opacity="0"/>
</linearGradient>
</defs>
</svg>
